<?xml version="1.0" standalone="no"?>
<!DOCTYPE svg PUBLIC "-//W3C//DTD SVG 1.1//EN" "http://www.w3.org/Graphics/SVG/1.1/DTD/svg11.dtd" >
<svg xmlns="http://www.w3.org/2000/svg">
<metadata>Generated by IcoMoon</metadata>
<defs>
<font id="iconline" horiz-adv-x="1024">
<font-face units-per-em="1024" ascent="960" descent="-64" />
<missing-glyph horiz-adv-x="1024" />
<glyph unicode="&#x20;" d="" horiz-adv-x="512" />
<glyph unicode="&#xe100;" d="M972.576 784.56h-921.152c-19.568 0-35.424 15.872-35.424 35.44s15.856 35.424 35.424 35.424h921.136c19.584 0 35.44-15.856 35.44-35.424s-15.856-35.44-35.424-35.44zM193.136 536.56c-19.568 0-35.424 15.872-35.424 35.44s15.856 35.424 35.424 35.424h637.712c19.568 0 35.424-15.872 35.424-35.424 0-19.568-15.856-35.44-35.424-35.44h-637.712zM51.424 359.424h921.136c19.568 0 35.424-15.856 35.424-35.424s-15.856-35.424-35.424-35.424h-921.136c-19.568 0-35.424 15.856-35.424 35.424s15.856 35.424 35.424 35.424zM264 111.424h531.424c19.568 0 35.424-15.856 35.424-35.424s-15.872-35.424-35.424-35.424h-531.424c-19.568 0-35.424 15.856-35.424 35.424s15.856 35.424 35.424 35.424z" />
<glyph unicode="&#xe101;" d="M972.576 784.56h-921.152c-19.568 0-35.424 15.872-35.424 35.44s15.856 35.424 35.424 35.424h921.136c19.584 0 35.44-15.856 35.44-35.424s-15.856-35.44-35.424-35.44zM51.424 607.424h637.712c19.568 0 35.424-15.872 35.424-35.424 0-19.568-15.872-35.44-35.424-35.44h-637.712c-19.568 0-35.424 15.872-35.424 35.44s15.856 35.424 35.424 35.424zM51.424 359.424h921.136c19.568 0 35.424-15.856 35.424-35.424s-15.856-35.424-35.424-35.424h-921.136c-19.568 0-35.424 15.856-35.424 35.424s15.856 35.424 35.424 35.424zM51.424 111.424h531.424c19.568 0 35.424-15.856 35.424-35.424s-15.872-35.424-35.424-35.424h-531.424c-19.568 0-35.424 15.856-35.424 35.424s15.856 35.424 35.424 35.424z" />
<glyph unicode="&#xe102;" d="M972.576 288.576h-921.152c-19.568 0-35.424 15.856-35.424 35.424s15.856 35.424 35.424 35.424h921.136c19.568 0 35.424-15.856 35.424-35.424 0.016-19.568-15.84-35.424-35.408-35.424zM972.576 536.56h-637.728c-19.568 0-35.424 15.872-35.424 35.44s15.872 35.424 35.424 35.424h637.712c19.568 0 35.424-15.872 35.424-35.424 0.016-19.568-15.84-35.44-35.408-35.44zM972.576 784.56h-921.152c-19.568 0-35.424 15.872-35.424 35.44s15.856 35.424 35.424 35.424h921.136c19.584 0 35.44-15.856 35.44-35.424s-15.856-35.44-35.424-35.44zM441.152 111.424h531.424c19.568 0 35.424-15.856 35.424-35.424s-15.856-35.424-35.424-35.424h-531.424c-19.568 0-35.44 15.856-35.44 35.424s15.856 35.424 35.44 35.424z" />
<glyph unicode="&#xe103;" d="M995.504 204.56l-8.8-3.312c-10.496-6.736-23.408-0.608-29.68 10.192l-46.352 86.064c-28.304-197.568-197.84-345.504-398.688-345.504-200.96 0-370.352 147.968-398.592 345.632l-46.416-86.192c-6.272-10.784-19.184-16.928-29.664-10.192l-8.8 3.312c-10.512 6.752-13.936 20.944-7.664 31.728l79.392 146c0.112 0.192 0.096 0.4 0.208 0.576l5.664 9.776c3.152 5.408 8.144 8.912 13.696 10.224 5.488 1.36 11.536 0.528 16.768-2.864l9.52-6.112c0.176-0.112 0.272-0.272 0.464-0.416l140.496-94.864c10.496-6.736 13.92-20.928 7.664-31.728l-6.32-6.96c-6.272-10.8-20.528-11.232-31.024-4.48l-83.904 57.056c19.952-160.176 149.216-283.024 307.648-297.296v619.056h-123.504c-17.040 0-30.88 13.824-30.88 30.88 0 17.040 13.824 30.88 30.88 30.88h125.168c0.256 0.848 0.192 1.808 0.512 2.624-54.64 13.152-95.296 62.208-95.296 120.88 0 68.752 55.728 124.48 124.48 124.48s124.48-55.728 124.48-124.48c0-59.008-41.104-108.32-96.224-121.12 0.288-0.736 0.224-1.616 0.448-2.384h125.184c17.040 0 30.88-13.824 30.88-30.88s-13.824-30.88-30.88-30.88h-123.536v-619.056c158.464 14.272 287.904 137.184 307.76 297.36l-84-57.12c-10.496-6.736-24.752-6.32-31.024 4.48l-6.32 6.96c-6.256 10.816-2.832 25.008 7.664 31.728l140.496 94.864c0.192 0.144 0.288 0.304 0.464 0.416l9.536 6.112c5.232 3.392 11.296 4.224 16.8 2.864 5.552-1.312 10.544-4.816 13.68-10.224l5.68-9.776c0.112-0.176 0.080-0.384 0.208-0.576l79.376-146c6.272-10.784 2.848-24.976-7.648-31.728zM575.216 819.52c0 34.592-28.144 62.72-62.72 62.72s-62.72-28.128-62.72-62.72 28.144-62.72 62.72-62.72c34.576 0 62.72 28.144 62.72 62.72z" />
<glyph unicode="&#xe104;" d="M470.112 322.224l-383.088 380.32c-16.256 16.096-42.592 16.096-58.832 0-16.256-16.096-16.256-42.208 0-58.304l452.192-448.8c0.704-0.816 0.944-1.872 1.728-2.64 1.28-1.264 3.12-1.296 4.512-2.352 4.416-3.536 9.2-6.032 14.4-7.52 2-0.528 3.776-0.896 5.824-1.12 12.464-1.696 25.44 1.504 35.024 10.992 0.816 0.816 1.104 1.904 1.84 2.752l452.080 448.688c16.256 16.096 16.256 42.208 0 58.304-16.24 16.096-42.576 16.096-58.832 0l-383.088-380.32c0 0-22.208-23.584-43.744-23.584-20.304 0-40.016 23.584-40.016 23.584z" />
<glyph unicode="&#xe105;" d="M386.224 406.112l380.32-383.088c16.096-16.256 16.096-42.592 0-58.832-16.096-16.256-42.208-16.256-58.304 0l-448.8 452.192c-0.816 0.704-1.872 0.944-2.64 1.728-1.264 1.28-1.296 3.12-2.352 4.512-3.536 4.416-6.032 9.2-7.52 14.4-0.528 2-0.896 3.776-1.12 5.824-1.696 12.464 1.504 25.44 10.992 35.024 0.816 0.816 1.904 1.104 2.752 1.84l448.704 452.096c16.096 16.256 42.208 16.256 58.304 0 16.096-16.24 16.096-42.576 0-58.832l-380.32-383.088c0 0-23.584-22.208-23.584-43.744-0.016-20.32 23.568-40.032 23.568-40.032z" />
<glyph unicode="&#xe106;" d="M637.776 406.112l-380.32-383.088c-16.096-16.256-16.096-42.592 0-58.832 16.096-16.256 42.208-16.256 58.304 0l448.8 452.192c0.816 0.704 1.872 0.944 2.64 1.728 1.264 1.28 1.296 3.12 2.352 4.512 3.536 4.416 6.032 9.2 7.52 14.4 0.528 2 0.896 3.776 1.12 5.824 1.696 12.464-1.504 25.44-10.992 35.024-0.816 0.816-1.904 1.104-2.752 1.84l-448.704 452.096c-16.096 16.256-42.208 16.256-58.304 0-16.096-16.24-16.096-42.576 0-58.832l380.32-383.088c0 0 23.584-22.208 23.584-43.744 0.016-20.32-23.568-40.032-23.568-40.032z" />
<glyph unicode="&#xe107;" d="M48.896 31.12c0.336 0 0.704 0 1.056 0.032 15.68 0.512 25.584 12.688 26.912 28.304 1.056 11.504 31.936 289.728 466.192 289.424l0.96-177.904c0-11.984 6.912-22.912 17.776-28.032 10.752-5.152 23.664-3.568 32.912 4.080l401.968 333.024c7.2 5.904 11.36 14.72 11.328 24.016s-4.208 18.096-11.408 23.968l-401.984 329.904c-9.264 7.568-22.064 9.024-32.88 3.968-10.8-5.152-17.712-16.048-17.712-28l-0.96-174c-180.144-5.728-319.648-63.664-410.096-169.488-147.184-172.208-114.336-422.496-112.8-432.912 2.32-15.2 13.456-26.384 28.736-26.384zM575.024 411.376c-0.032 0-0.064 0-0.064 0-310.192-0.192-428.736-104.928-496.416-197.44 9.904 74.112 38.816 163.44 101.712 236.384 83.632 96.96 218.384 148.064 394.768 148.064 17.136 0 30.992 13.872 30.992 30.992v139.28l322.032-264.784-322.032-267.264v143.76c0 8.24-3.264 16.144-9.104 21.952-5.808 5.776-13.68 9.056-21.888 9.056z" />
<glyph unicode="&#xe108;" d="M975.104 31.12c-0.336 0-0.704 0-1.056 0.032-15.68 0.512-25.584 12.688-26.912 28.304-1.056 11.504-32.912 289.728-467.152 289.424v-177.904c0-11.984-6.896-22.912-17.776-28.032-10.752-5.152-23.664-3.568-32.912 4.080l-401.968 333.024c-7.2 5.904-11.344 14.72-11.328 24.016 0.032 9.296 4.208 18.096 11.408 23.968l401.984 329.904c9.264 7.568 22.064 9.024 32.88 3.968 10.8-5.152 17.712-16.048 17.712-28v-174c180.144-5.728 320.624-63.664 411.056-169.488 147.184-172.208 114.336-422.496 112.8-432.912-2.32-15.2-13.456-26.384-28.736-26.384zM448.976 411.376c0.032 0 0.064 0 0.064 0 310.192-0.176 428.736-104.912 496.432-197.424-9.904 74.112-38.8 163.44-101.712 236.384-83.632 96.96-218.384 148.064-394.768 148.064-17.136 0-30.992 13.872-30.992 30.992v139.28l-322.048-264.784 322.032-267.264v143.76c0 8.24 3.264 16.144 9.104 21.952 5.808 5.76 13.68 9.040 21.888 9.040z" />
<glyph unicode="&#xe109;" d="M475.552 371.36l-266.336 266.336c-14.128 14.128-37.040 14.128-51.184 0-14.128-14.128-14.128-37.056 0-51.184l326.448-326.448c0.624-0.72 0.832-1.648 1.52-2.32 1.12-1.12 2.72-1.136 3.936-2.064 3.84-3.104 8-5.296 12.528-6.592 1.744-0.464 3.28-0.784 5.072-0.976 10.832-1.488 22.128 1.312 30.464 9.648 0.72 0.72 0.96 1.664 1.6 2.416l326.352 326.352c14.128 14.128 14.128 37.056 0 51.184s-37.040 14.128-51.184 0l-266.32-266.352c0 0-19.312-20.704-38.064-20.704-17.664 0-34.832 20.704-34.832 20.704z" />
<glyph unicode="&#xe10a;" d="M964.848 404.848h-802.416l229.088-229.088c16.736-16.736 16.736-43.872 0-60.608s-43.872-16.736-60.608 0l-300.272 300.272c-0.864 0.736-1.952 0.976-2.752 1.792-1.328 1.328-1.344 3.216-2.448 4.656-3.68 4.544-6.272 9.472-7.808 14.832-0.544 2.064-0.944 3.888-1.168 6-1.76 12.832 1.568 26.208 11.424 36.080 0.848 0.848 1.968 1.136 2.864 1.904l300.16 300.16c16.736 16.736 43.872 16.736 60.608 0s16.736-43.872 0-60.608l-229.088-229.088h802.432c23.808 0 43.136-19.328 43.136-43.152 0-23.84-19.328-43.152-43.152-43.152z" />
<glyph unicode="&#xe10b;" d="M1007.552 442.704c-0.24-2.112-0.624-3.936-1.168-6-1.552-5.36-4.144-10.288-7.808-14.832-1.104-1.44-1.12-3.328-2.448-4.656-0.816-0.816-1.904-1.056-2.752-1.792l-300.288-300.272c-16.736-16.736-43.872-16.736-60.608 0s-16.736 43.872 0 60.608l229.088 229.088h-802.416c-23.824 0-43.152 19.312-43.152 43.152 0 23.824 19.328 43.152 43.152 43.152h802.432l-229.088 229.088c-16.736 16.736-16.736 43.872 0 60.608s43.872 16.736 60.608 0l300.16-300.16c0.896-0.752 2.016-1.056 2.864-1.904 9.856-9.872 13.184-23.248 11.424-36.080z" />
<glyph unicode="&#xe10c;" d="M470.112 573.776l-383.088-380.32c-16.256-16.096-42.592-16.096-58.832 0-16.256 16.096-16.256 42.208 0 58.304l452.192 448.8c0.704 0.816 0.944 1.872 1.728 2.64 1.28 1.264 3.12 1.296 4.512 2.352 4.416 3.536 9.2 6.032 14.4 7.52 2 0.528 3.776 0.896 5.824 1.12 12.464 1.696 25.44-1.504 35.024-10.992 0.816-0.816 1.104-1.904 1.84-2.752l452.080-448.688c16.256-16.096 16.256-42.208 0-58.304-16.24-16.096-42.576-16.096-58.832 0l-383.088 380.32c0 0-22.208 23.584-43.744 23.584-20.304 0-40.016-23.584-40.016-23.584z" />
<glyph unicode="&#xe10d;" d="M183.84-31.376c-41.984 0-82.304 17.376-114.416 49.552-71.232 71.44-71.232 187.68-0.016 259.088l555.44 589.824c86.656 86.816 219.408 79.024 316.272-17.984 43.408-43.472 67.76-106.176 66.848-172.064-0.912-65.2-26.384-127.6-69.904-171.2l-419.776-446.896c-11.68-12.512-31.28-13.088-43.744-1.328-12.432 11.76-13.040 31.376-1.312 43.856l420.416 447.568c32.88 32.944 51.744 79.68 52.432 128.88 0.704 49.216-17.072 95.632-48.72 127.328-59.424 59.536-156.176 90.736-228.112 18.624l-555.424-589.824c-47.744-47.872-47.728-124.768-0.608-172.016 22.096-22.112 48.336-32.896 76.256-31.184 27.648 1.696 56.048 15.872 80 39.888l441.936 470.368c16.016 16.048 48.208 55.392 15.44 88.224-18.56 18.592-31.584 17.44-35.872 17.088-12.24-1.088-26.544-9.552-41.376-24.432l-332.608-353.792c-11.744-12.48-31.36-13.088-43.744-1.296-12.448 11.728-13.024 31.376-1.312 43.824l333.248 354.432c26.208 26.336 52.976 40.592 80.24 43.056 21.28 1.872 52.928-2.656 85.2-35.024 47.904-47.984 41.952-118.416-14.784-175.264l-441.936-470.384c-35.28-35.408-77.888-55.968-120.624-58.608-3.152-0.208-6.288-0.304-9.44-0.304z" />
<glyph unicode="&#xe10e;" d="M1001.68 97.392c-7.344-9.664-19.648-14.304-31.552-11.424l-155.328 35.632-53.152-148.064c-4.112-11.456-14.576-19.44-26.72-20.4-0.816-0.064-1.632-0.096-2.416-0.096-11.248 0-21.664 6.096-27.136 16.080l-161.776 294.992c-10.48-0.976-21.072-1.616-31.808-1.616-11.728 0-23.312 0.608-34.736 1.76l-158.32-294.912c-5.408-10.096-15.92-16.32-27.264-16.32-0.752 0-1.504 0.032-2.304 0.096-12.176 0.912-22.688 8.88-26.832 20.4l-53.136 148.080-155.328-35.632c-11.84-2.784-24.272 1.776-31.616 11.488-7.344 9.728-8.304 22.88-2.448 33.536l182.016 331.968c-19.296 42.672-30.288 89.904-30.288 139.792 0 187.888 152.32 340.208 340.24 340.208 187.888 0 340.208-152.32 340.208-340.208 0-48.736-10.416-94.992-28.88-136.896l181.168-335.008c5.776-10.704 4.784-23.792-2.592-33.456zM107.232 161.696l114.896 26.352c15.296 3.632 30.736-4.96 36.048-19.696l38.928-108.448 116.576 217.12c-71.136 21.392-132.192 65.552-175.328 123.856l-131.12-239.184zM511.792 880.816c-153.328 0-278.080-124.736-278.080-278.048 0-153.328 124.752-278.096 278.080-278.096s278.048 124.768 278.048 278.096c0 153.312-124.736 278.048-278.048 278.048zM786.752 402.976c-43.68-60.016-106.32-105.2-179.312-126.576l119.168-217.296 39.2 109.248c5.328 14.752 20.704 23.328 36.048 19.696l115.44-26.464-130.544 241.392z" />
<glyph unicode="&#xe10f;" d="M853.888-48h-683.776c-34.336 0-62.16 27.84-62.16 62.16v714.832c0 34.32 27.84 62.16 62.16 62.16h187.632v59.6c0 51.424 41.84 93.248 93.248 93.248h123.952c51.424 0 93.248-41.824 93.248-93.248v-59.616h185.696c34.336 0 62.16-27.84 62.16-62.16v-714.816c0-34.32-27.84-62.16-62.16-62.16zM606.032 850.752c0 17.152-13.936 31.088-31.088 31.088h-123.952c-17.152 0-31.088-13.936-31.088-31.088v-59.616h186.112v59.616zM853.888 728.992h-185.696v-63.952c0 0-0.128-31.2-31.2-31.2-33.024 0-30.96 31.2-30.96 31.2v63.952h-186.112v-63.952c0 0 3.712-31.056-31.264-31.056-31.728 0-30.896 31.056-30.896 31.056v63.952h-187.648v-714.816h683.776v714.816z" />
<glyph unicode="&#xe110;" d="M937.456 149.856c-15.248-32.24-59.568-32.24-78.496-32.24h-182.192c-0.048-91.472-74.208-165.616-165.696-165.616s-165.664 74.144-165.696 165.616h-178.016c-29.776 0-65.824 3.68-80.24 32.368-16.368 32.592 7.888 65.184 38.592 106.448 34.144 45.936 88.016 105.136 88.016 167.76v202.848c0.016 174.784 129.696 316.96 296.752 316.96 167.008 0 297.728-142.176 297.728-316.96v-202.848c0-63.68 49.648-126.16 85.888-170.256 34.112-41.456 58.768-71.424 43.36-104.080zM511.024 17.088c55.552 0 100.576 44.992 100.672 100.528h-201.344c0.096-55.536 45.12-100.528 100.672-100.528zM843.008 211.968c-42.608 51.808-100.944 124.832-100.944 212.24v202.832c0 138.304-101.024 250.8-231.584 250.8s-230.576-112.496-230.576-250.8v-202.848c0-84.528-63.248-156.32-101.104-207.232-7.664-10.288-17.056-22.944-23.44-32.848 3.296-0.224 7.264-0.352 12.016-0.352h691.6c2.352 0 4.528 0.032 6.496 0.096-6.704 8.928-15.296 19.392-22.464 28.112z" />
<glyph unicode="&#xe111;" d="M512-16.992l-496 124v805.984l496-124 496 124v-806l-496-123.984zM78 168.992l403.008-115.136v679.792l-403.008 86.352v-651.008zM946 820l-402.992-86.352v-679.776l402.992 115.136v650.992z" />
<glyph unicode="&#xe112;" d="M954.080 67.28l-409.376-110.896c-13.28-3.632-27.696-4.384-37.472-4.384-14.24 0-27.968 1.632-38.656 4.592l-398.832 110.528c-29.968 8.352-53.52 38.048-53.52 69.104v752.992c0 36.656 34.48 62.32 70.064 52.528l398.848-110.528c10.368-2.912 32.96-2.928 43.36-0.144l409.376 110.896c35.44 9.648 69.92-16.112 69.92-52.736v-752.992c0-31.2-23.648-60.832-53.712-68.96zM78.144 879.456v-743.232c0-3.12 4.176-8.592 7.168-9.408l395.728-109.408v751.76c-4.32 0.688-8.752 1.328-12.448 2.368l-390.448 107.92zM945.856 879.824l-401.152-108.512c-0.576-0.16-1.168-0.24-1.744-0.384v-750.864l394.896 106.976c2.96 0.816 7.984 6.144 7.984 9.2v743.584zM862.912 279.536l-216.704-60.992c-2.784-0.784-5.632-1.152-8.4-1.152-13.52 0-25.952 8.928-29.792 22.592-4.624 16.448 4.96 33.536 21.44 38.192l216.704 60.992c16.368 4.56 33.568-4.992 38.192-21.44s-4.96-33.536-21.44-38.192zM862.912 465.344l-216.704-60.992c-2.784-0.784-5.632-1.152-8.4-1.152-13.52 0-25.952 8.928-29.792 22.592-4.624 16.448 4.96 33.536 21.44 38.192l216.704 60.992c16.368 4.56 33.568-4.992 38.192-21.44s-4.96-33.536-21.44-38.192zM862.912 651.136l-216.704-60.992c-2.784-0.784-5.632-1.152-8.4-1.152-13.52 0-25.952 8.928-29.792 22.592-4.624 16.448 4.96 33.536 21.44 38.192l216.704 60.992c16.368 4.56 33.568-4.992 38.192-21.44s-4.96-33.536-21.44-38.192zM390.064 217.392c-2.784 0-5.616 0.368-8.4 1.152l-216.704 60.992c-16.48 4.656-26.064 21.744-21.44 38.192s21.84 26 38.192 21.44l216.704-60.992c16.48-4.656 26.064-21.744 21.44-38.192-3.84-13.664-16.272-22.592-29.792-22.592zM390.064 403.184c-2.784 0-5.616 0.368-8.4 1.152l-216.704 61.008c-16.48 4.656-26.064 21.744-21.44 38.192s21.84 26 38.192 21.44l216.704-60.992c16.48-4.656 26.064-21.744 21.44-38.192-3.84-13.68-16.272-22.608-29.792-22.608zM390.064 588.992c-2.784 0-5.616 0.368-8.4 1.152l-216.704 60.992c-16.48 4.656-26.064 21.744-21.44 38.192s21.84 26 38.192 21.44l216.704-60.992c16.48-4.656 26.064-21.744 21.44-38.192-3.84-13.664-16.272-22.592-29.792-22.592z" />
<glyph unicode="&#xe113;" d="M633.504 671.456v-13.568c0-62.656-55.632-115.6-121.504-115.6s-121.504 52.944-121.504 115.6v13.568h-374.496v-446.912h992v446.912h-374.496zM691.136 606.144h251.136v-316.304h-860.544v316.304h251.12c24.080-75.44 97.728-129.168 179.136-129.168 81.44 0 155.072 53.728 179.152 129.168z" />
<glyph unicode="&#xe114;" d="M1007.44 436.128c0.128-1.632 0.496-3.184 0.496-4.848v-340.272c0-34.24-27.76-61.984-61.984-61.984h-867.872c-34.24 0-61.984 27.76-61.984 61.984v340.272c0 6.16 1.168 12 2.848 17.616-2.912 6.32-3.872 13.6-1.936 20.864l104.032 374.192c3.632 13.584 15.92 23.040 29.968 23.040h712.24c13.92 0 26.16-9.296 29.872-22.736l113.808-394.304c1.296-4.672 1.344-9.36 0.512-13.824zM78.080 90.992h867.856v340.288h-253.888c-27.056-77.904-93.744-125.616-180.032-125.616-86.304 0-152 47.696-179.072 125.616h-254.864v-340.288zM839.664 804.992h-664.816l-86.912-311.728h296.16c1.392-74.4 53.184-125.616 127.92-125.616s127.488 51.216 128.88 125.616h288.976l-90.208 311.728z" />
<glyph unicode="&#xe115;" d="M633.504 411.072v-13.568c0-62.656-55.632-115.6-121.504-115.6s-121.504 52.944-121.504 115.6v13.568h-374.496v-446.88h992v446.88h-374.496zM691.136 345.76h251.12v-316.272h-860.512v316.272h251.12c24.064-75.44 97.696-129.168 179.136-129.168 81.408 0 155.056 53.744 179.136 129.168zM512 392.64l223.6 221.072-47.712 47.184-142.224-140.592v411.504h-67.328v-411.504l-142.224 140.592-47.712-47.184z" />
<glyph unicode="&#xe116;" d="M479.44 817.552v-385.76h65.136v385.76l133.664-132.352 46.16 45.696-212.4 210.304-212.4-210.304 46.16-45.696zM634.256 401.712v-13.568c0-62.688-55.632-115.632-121.504-115.632s-121.504 52.944-121.504 115.632v13.568l-374.496 0.24v-447.152h992v447.152l-374.496-0.24zM691.872 336.4h251.136v-316.288h-860.528v316.288h251.12c24.080-75.44 97.728-129.168 179.136-129.168 81.44-0.016 155.072 53.728 179.136 129.168z" />
<glyph unicode="&#xe117;" d="M946-15.568h-867.968c-34.080 0-62 27.92-62 62v370.848h-0.032v62h0.032v217.232c0 34.096 27.904 62 62 62h247.968v60.048c0 51.28 41.712 92.992 92.992 92.992h186.416c51.28 0 92.992-41.712 92.992-92.992v-60.064h247.6c34.080 0 62-27.904 62-62v-650.080c0-34.064-27.904-61.984-62-61.984zM636.4 818.56c0 17.104-13.888 30.992-30.992 30.992h-186.416c-17.104 0-30.992-13.888-30.992-30.992v-60.064h248.416v60.064zM946 696.512h-867.968v-217.232h340.864v31.728c0 34.176 27.824 62 62 62h61.76c34.176 0 62-27.824 62-62v-31.728h341.344v217.232zM480.896 510.992v-156.112h61.824l-0.064 156.112h-61.76zM946 417.28h-341.344v-62.4c0-34.176-27.824-62-62-62h-61.76c-34.176 0-62 27.824-62 62v62.4h-340.864v-370.848h867.968v370.848z" />
<glyph unicode="&#xe118;" d="M976.992 14h-930c-17.12 0-31.008 13.888-31.008 31.008v806c0 17.12 13.872 30.992 31.008 30.992h930c17.12 0 31.008-13.872 31.008-30.992v-806c0-17.12-13.872-31.008-31.008-31.008zM946 789.008c0 17.12-13.888 30.992-30.992 30.992h-806c-17.12 0-30.992-13.872-30.992-30.992v-93.008h868l-0.016 93.008zM946 634h-868v-527.008c0-17.12 13.888-31.008 30.992-31.008h806c17.12 0 30.992 13.872 30.992 31.008l0.016 527.008zM202 726.992h-62v62h62v-62zM326 726.992h-62v62h62v-62zM450 726.992h-62v62h62v-62z" />
<glyph unicode="&#xe119;" d="M734.928 351.2c-41.168-35.952-68.336-58.064-68.336-94.656v-52.544c0-1.36-0.24-2.672-0.416-4h0.912v-89.728c0-94.672-62.448-158.272-153.984-158.272-94.816 0-156.016 63.6-156.016 158.272v89.728h0.688c-0.176 1.328-0.368 2.656-0.368 4v52.544c0 24.032-24.304 43.536-60.416 75.92-56.096 50.256-127.088 119.072-127.088 263.632 0 191.824 150.24 347.904 342.080 347.904s342.112-156.080 342.112-347.92c0-135.712-63.472-196.24-119.168-244.88zM510.8 14c60.128 0 94.272 35.088 94.272 96.272v42.032c-22.512-7.888-52.96-14.304-93.072-14.304-40.688 0-71.072 5.984-93.36 13.616l0.448-41.344c-0.016-60.272 33.68-96.272 91.712-96.272zM511.984 882c-157.632 0-280.080-128.272-280.080-285.92 0-116.864 53.824-170.304 106.432-217.456 39.712-35.568 81.072-69.168 81.072-122.080v-40.224c12.704-7.376 38.24-16.928 92.064-16.928 51.28 0 78.4 9.76 93.12 17.984v39.168c0 66.544 47.44 104.576 89.552 141.344 51.008 44.56 97.968 90.64 97.968 198.192-0.016 157.648-122.464 285.92-280.128 285.92z" />
<glyph unicode="&#xe11a;" d="M945.92-48h-867.84c-34.080 0-61.984 27.904-61.984 61.984v868.032c0 34.080 27.904 61.984 61.984 61.984h867.84c34.080 0 61.984-27.904 61.984-61.984v-868.016c0-34.096-27.904-62-61.984-62zM945.92 882.016h-867.84v-868.016h867.84v868.016zM233.056 664.688h61.984v61.984c0 17.12 13.872 30.992 30.992 30.992s30.992-13.872 30.992-30.992v-61.984h61.984c17.12 0 30.992-13.872 30.992-30.992s-13.872-30.992-30.992-30.992h-61.984v-61.984c0-17.12-13.872-30.992-30.992-30.992s-30.992 13.872-30.992 30.992v61.984h-61.984c-17.12 0-30.992 13.872-30.992 30.992 0 17.104 13.872 30.992 30.992 30.992zM216.448 371.328c12.112 12.112 31.728 12.112 43.84 0l65.744-65.744 65.744 65.744c12.112 12.112 31.728 12.112 43.84 0s12.112-31.728 0-43.84l-65.744-65.744 65.744-65.744c12.112-12.112 12.112-31.728 0-43.84-12.096-12.112-31.728-12.112-43.84 0l-65.744 65.744-65.744-65.744c-12.112-12.112-31.728-12.112-43.84 0-12.112 12.096-12.112 31.728 0 43.84l65.744 65.744-65.744 65.744c-12.096 12.112-12.096 31.744 0 43.84zM604.992 664.688h185.968c17.12 0 30.992-13.872 30.992-30.992s-13.872-30.992-30.992-30.992h-185.968c-17.12 0-30.992 13.872-30.992 30.992-0.016 17.104 13.872 30.992 30.992 30.992zM604.992 354.736h185.968c17.12 0 30.992-13.872 30.992-30.992s-13.872-30.992-30.992-30.992h-185.968c-17.12 0-30.992 13.872-30.992 30.992-0.016 17.12 13.872 30.992 30.992 30.992zM604.992 230.752h185.968c17.12 0 30.992-13.872 30.992-30.992s-13.872-30.992-30.992-30.992h-185.968c-17.12 0-30.992 13.872-30.992 30.992-0.016 17.12 13.872 30.992 30.992 30.992z" />
<glyph unicode="&#xe11b;" d="M946-47.888h-868c-34.24 0-62 27.76-62 62v775.008c0 34.24 27.76 62 62 62h247.792v61.776c0 17.136 13.872 30.992 30.992 30.992 17.136 0 31.008-13.872 31.008-30.992v-61.776h248v61.776c0 17.136 13.872 30.992 30.992 30.992 17.136 0 31.008-13.872 31.008-30.992v-61.776h248.208c34.24 0 62-27.76 62-62v-774.992c0-34.256-27.76-62.016-62-62.016zM946 789.12h-248.208v-31.232c0-17.136-13.872-30.992-31.008-30.992s-30.992 13.856-30.992 30.992v31.232h-248v-31.232c0-17.136-13.872-30.992-31.008-30.992s-30.992 13.856-30.992 30.992v31.232h-247.792v-774.992h868v774.992zM232.992 572.112h62c17.12 0 31.008-13.872 31.008-30.992v-62c0-17.12-13.872-31.008-31.008-31.008h-62c-17.12 0-30.992 13.888-30.992 31.008v62c0 17.12 13.872 30.992 30.992 30.992zM232.992 324.112h62c17.12 0 31.008-13.872 31.008-30.992v-62c0-17.12-13.872-30.992-31.008-30.992h-62c-17.12 0-30.992 13.872-30.992 30.992v62c0 17.12 13.872 30.992 30.992 30.992zM480.992 572.112h62c17.12 0 30.992-13.872 30.992-30.992v-62c0-17.12-13.888-31.008-30.992-31.008h-62c-17.12 0-31.008 13.888-31.008 31.008v62c0.016 17.12 13.888 30.992 31.008 30.992zM480.992 324.112h62c17.12 0 30.992-13.872 30.992-30.992v-62c0-17.12-13.888-30.992-30.992-30.992h-62c-17.12 0-31.008 13.872-31.008 30.992v62c0.016 17.12 13.888 30.992 31.008 30.992zM728.992 572.112h62c17.12 0 30.992-13.872 30.992-30.992v-62c0-17.12-13.872-31.008-30.992-31.008h-62c-17.12 0-30.992 13.888-30.992 31.008v62c0 17.12 13.872 30.992 30.992 30.992zM728.992 324.112h62c17.12 0 30.992-13.872 30.992-30.992v-62c0-17.12-13.872-30.992-30.992-30.992h-62c-17.12 0-30.992 13.872-30.992 30.992v62c0 17.12 13.872 30.992 30.992 30.992z" />
<glyph unicode="&#xe11c;" d="M946-16.992h-868c-34.24 0-62 27.744-62 62v681.984c0 34.24 27.76 62 62 62h155.008l30.992 62c0 0 27.76 62 62 62h372c34.24 0 62-62 62-62l30.992-62h155.008c34.24 0 62-27.76 62-62v-682c0-34.24-27.76-61.984-62-61.984zM946 696c0 17.12-13.888 31.008-30.992 31.008h-157.008c0.688 2.592 2 5.008 2 7.744l-49.6 77.504c0 0-22.208 38.752-49.6 38.752h-297.6c-27.392 0-49.6-38.752-49.6-38.752l-49.6-77.504c0-2.752 1.312-5.168 2-7.744h-157.008c-17.12 0-30.992-13.888-30.992-31.008v-620c0-17.12 13.888-30.992 30.992-30.992h806c17.12 0 30.992 13.872 30.992 30.992v620zM512 169.008c-136.96 0-248 111.040-248 248 0 136.976 111.040 248 248 248s248-111.040 248-248c0-136.976-111.040-248-248-248zM512 602.992c-102.72 0-186-83.28-186-186s83.264-186 186-186c102.72 0 186 83.28 186 186 0 102.736-83.28 186-186 186z" />
<glyph unicode="&#xe11d;" d="M975.776 269.504v250.016l15.584 8.24c10.144 5.264 16.528 15.712 16.64 27.152 0.128 11.408-6.048 21.968-16.064 27.488l-466.288 249.472c-9.312 5.12-20.608 5.088-29.984-0.096l-463.744-249.824c-9.872-5.504-15.984-15.936-15.92-27.264s6.288-21.696 16.288-27.088l203.76-108.464c-2.56-4.512-4.128-9.648-4.128-15.2v-262.256c0-8.832 3.776-17.28 10.384-23.152 6.72-5.968 71.12-58.208 268.032-58.208 196.224 0 262.352 49.36 269.248 54.992 7.2 5.872 11.376 14.688 11.376 24v269.008c0 4.352-0.912 8.496-2.528 12.256l125.36 66.208v-217.44c-18.368-10.752-30.848-30.48-30.848-53.312 0-34.24 27.744-61.984 61.984-61.984s61.984 27.744 61.984 61.984c0 22.96-12.608 42.768-31.136 53.472zM728.976 157.088c-24.368-11.712-88.832-34.784-218.64-34.784-130.624 0-193.632 24.544-216.432 36.352v229.68l201.264-107.136c4.576-2.48 9.648-3.728 14.704-3.728 4.928 0 9.872 1.184 14.352 3.536l204.752 108.144v-232.064zM510.128 343.584l-398.64 211.68 399.328 214.016 400.576-213.408-401.264-212.288z" />
<glyph unicode="&#xe11e;" d="M915.024 122.592h-806.048c-51.36 0-92.976 41.616-92.976 92.976v464.864c0 51.36 41.616 92.976 92.976 92.976h806.048c51.36 0 92.976-41.616 92.976-92.976v-464.88c0-51.344-41.616-92.96-92.976-92.96zM108.976 184.576h806.048c17.104 0 30.992 13.888 30.992 30.992v278.912h-868.032v-278.928c0-17.088 13.888-30.976 30.992-30.976zM915.024 711.424h-806.048c-17.104 0-30.992-13.888-30.992-30.992v-61.984h868.032v61.984c0 17.104-13.888 30.992-30.992 30.992z" />
<glyph unicode="&#xe11f;" d="M961.504-48h-216.736c-17.136 0-31.008 13.872-31.008 31.008v929.984c0 17.136 13.872 31.008 31.008 31.008h216.736c17.136 0 31.008-13.872 31.008-31.008v-929.984c-0.016-17.136-13.872-31.008-31.008-31.008zM930.496 882h-154.736v-867.984h154.736v867.984zM620.256-48h-217.072c-17.136 0-31.008 13.872-31.008 31.008v435.68c0 17.136 13.872 31.008 31.008 31.008h217.072c17.136 0 31.008-13.872 31.008-31.008v-435.68c0-17.136-13.872-31.008-31.008-31.008zM589.264 387.696h-155.072v-373.696h155.072v373.696zM279.568-48h-217.072c-17.136 0-31.008 13.872-31.008 31.008v620c0 17.136 13.872 31.008 31.008 31.008h217.056c17.136 0 31.008-13.872 31.008-31.008v-620c0-17.136-13.872-31.008-30.992-31.008zM248.56 572h-155.056v-558h155.056v558z" />
<glyph unicode="&#xe120;" d="M548.16-48c-253.552 0-441.664 186.304-441.664 439.872 0 17.12 13.888 31.008 31.008 31.008s31.008-13.888 31.008-31.008c0-219.392 160.304-377.872 379.664-377.872 219.376 0 397.84 178.464 397.84 397.856 0 219.36-153.008 379.664-372.384 379.664-17.12 0-31.008 13.872-31.008 31.008 0 17.12 13.872 31.008 31.008 31.008 253.536-0.032 434.368-188.144 434.368-441.68 0-253.568-206.288-459.856-459.84-459.856zM450.24 478.752h-403.232c-17.12 0-31.008 13.888-31.008 31.008 0 241.44 192.8 434.24 434.24 434.24 17.12 0 31.008-13.888 31.008-31.008v-403.232c0-17.12-13.888-31.008-31.008-31.008zM419.248 880.72c-182.592-14.96-325.008-157.36-339.968-339.968h339.968v339.968z" />
<glyph unicode="&#xe121;" d="M915.008 107.2h-278.624l-124.384-124.384-124.384 124.384h-278.624c-51.36 0-92.992 41.632-92.992 92.992v620c0 51.36 41.632 92.992 92.992 92.992h806c51.36 0 92.992-41.632 92.992-92.992v-620c0.016-51.36-41.616-92.992-92.976-92.992zM946 789.184c0 34.24-27.76 62-62 62h-744c-34.24 0-62-27.76-62-62v-557.984c0-34.24 27.76-62 62-62h278.608l93.392-93.392 93.376 93.392h278.624c34.24 0 62 27.76 62 62v557.984zM790.992 603.184h-557.984c-17.12 0-31.008 13.872-31.008 31.008 0 17.12 13.872 30.992 31.008 30.992h558c17.12 0 31.008-13.888 31.008-30.992-0.016-17.12-13.888-31.008-31.024-31.008zM356.992 479.2h310c17.12 0 30.992-13.872 30.992-30.992s-13.872-31.008-30.992-31.008h-310c-17.12 0-30.992 13.888-30.992 31.008 0 17.104 13.888 30.992 30.992 30.992z" />
<glyph unicode="&#xe122;" d="M512 820c239.312 0 434-139.056 434-310 0-170.928-194.688-310-434-310l-25.696-0.096c-17.024 0-28.192 0.448-45.616 3.056l-34.736 4.96-22.272-26.96c-10.256-12.384-62.528-55.344-120.24-82.976 11.728 31.024 20.384 64.896 21.168 98.416l0.304 1.84v43.232l-33.776 17.248c-110.032 56.288-173.136 147.872-173.136 251.28 0 170.944 194.688 310 434 310zM512 882c-273.952 0-496-166.56-496-372 0-127.936 75.808-239.424 206.896-306.464 0-0.784-0.24-1.36-0.24-2.24 0-55.584-31.152-116.704-49.408-148.16h0.048c-1.456-3.392-2.304-7.088-2.304-11.056 0-15.584 12.544-28.096 28.096-28.096 2.352 0 6.048 0.48 7.44 0.48 0.32 0 0.512 0 0.48-0.096 96.88 15.824 203.392 101.424 224.592 127.232 21.776-3.232 36.496-3.728 54.72-3.728 7.68 0 15.968 0.096 25.68 0.096 273.92 0 496 166.528 496 372s-222.080 372.032-496 372.032v0z" />
<glyph unicode="&#xe123;" d="M872.704 146.432c0-0.544 0.176-0.976 0.176-1.568 0-39.2 20.176-103.952 33.040-126.096h-0.064c0.992-2.4 1.632-5.024 1.632-7.808 0-10.976-8.864-19.808-19.84-19.808-1.6 0-4.272 0.336-5.168 0.336-0.304 0-0.4 0-0.368-0.064-68.336 11.136-152.304 91.216-167.296 109.392-15.344-2.24-25.712-2.608-38.576-2.608-5.44 0-11.248 0.064-18.128 0.064-126.208 0-226.816 47.408-288.336 122.56 2.24 1.968 103.040 2 88.576 1.12 53.216-41.664 115.6-61.712 199.76-61.712 0 0 34.864 0.016 47.744 1.904l32.576 5.024c0 0 20.768-36.992 81.232-81.328-4.736 20.096-7.952 99.472-7.952 99.472l30.832 15.312c72.368 37.024 103.488 85.504 103.488 152.32 0 54.576-15.088 92.128-68 128.704 6.928 21.056 13.296 45.008 15.296 67.344 81.872-48.048 114.672-112.064 114.672-196.048 0-90.256-42.832-159.232-135.296-206.512zM427.6 286c-7.952 0-14.704-0.096-20.992-0.096-14.88 0-26.864 0.432-44.624 3.056-17.312-21.088-134.016-110.064-213.104-122.976 0.016 0.096-0.096 0.096-0.4 0.096-1.088 0-4.144-0.4-6.016-0.4-12.704 0-22.928 10.192-22.928 22.896 0 3.232 0.704 6.256 1.872 9.040h-0.064c14.88 25.648 52.672 87.888 52.672 133.264 0 0.688 0.176 1.184 0.176 1.808-106.976 54.72-158.192 166.048-158.192 270.48 0 167.664 181.216 301.696 404.816 301.696 223.568 0 400.944-134.016 400.944-301.68 2.672-189.488-170.592-317.184-394.16-317.184zM420.816 842.896c-189.056 0-342.864-106.464-342.864-239.728 0-80.016 38.608-171.408 124.432-215.312l33.76-17.248-2.912-37.904c0 0 0.912-18.912-20.032-78.64 34.432 21.664 74.4 55.040 83.6 65.664l39.664 32.944 34.576-2.416c29.616-4.384 58.48-3.264 58.48-3.264 189.056 0 329.68 108.448 330.272 256.192 0.016 133.248-149.92 239.712-338.976 239.712z" />
<glyph unicode="&#xe124;" d="M946 198.944h-512.464l-179.248-176.432c-5.904-5.808-13.744-8.896-21.744-8.896-4.032 0-8.112 0.784-11.984 2.416-11.504 4.816-19.008 16.080-19.008 28.576v154.336h-123.552c-34.24 0-62 27.76-62 62v559.456c0 34.24 27.76 62 62 62h868c34.24 0 62-27.76 62-62v-559.456c0-34.24-27.76-62-62-62zM946 820.4h-868v-559.456h185.552v-142.32l144.592 142.32h537.872v559.456zM202 416.032c0 17.12 13.872 31.008 31.008 31.008h372c17.12 0 31.008-13.872 31.008-31.008 0-17.12-13.888-30.992-31.008-30.992h-372c-17.136-0.016-31.008 13.872-31.008 30.992zM202 540.032c0 17.12 13.872 31.008 31.008 31.008h558c17.12 0 30.992-13.888 30.992-31.008s-13.872-31.008-30.992-31.008h-558c-17.136 0-31.008 13.888-31.008 31.008zM791.008 633.040h-558c-17.12 0-31.008 13.872-31.008 31.008 0 17.12 13.872 31.008 31.008 31.008h558c17.12 0 30.992-13.888 30.992-31.008 0-17.136-13.872-31.008-30.992-31.008z" />
<glyph unicode="&#xe125;" d="M946-48h-868c-34.24 0-62 27.76-62 62v868c0 34.24 27.76 62 62 62h868c34.24 0 62-27.76 62-62v-868c0-34.24-27.76-62-62-62zM946 851.008c0 17.12-13.872 30.992-30.992 30.992h-806c-17.12 0-31.008-13.872-31.008-30.992v-806c0-17.12 13.888-31.008 31.008-31.008h806c17.12 0 30.992 13.888 30.992 31.008v806z" />
<glyph unicode="&#xe126;" d="M946 944h-868c-34.24 0-62-27.76-62-62v-868c0-34.24 27.76-62 62-62h868c34.24 0 62 27.76 62 62v868c0 34.24-27.76 62-62 62zM766.656 582.336l-307.056-307.040c-1.024-1.472-1.632-3.136-2.944-4.448-6.112-6.096-14.16-8.928-22.16-8.72-8-0.192-16.048 2.624-22.144 8.72-1.312 1.296-1.92 2.96-2.944 4.432l-152.048 152.048c-11.824 11.824-11.824 30.992 0 42.816s30.992 11.824 42.816 0l134.336-134.336 289.328 289.344c11.824 11.824 30.992 11.824 42.816 0s11.824-30.992 0-42.816z" />
<glyph unicode="&#xe127;" d="M946-48h-868c-34.24 0-62 27.76-62 62v868c0 34.24 27.76 62 62 62h868c34.24 0 62-27.76 62-62v-868c0-34.24-27.76-62-62-62zM946 851.008c0 17.12-13.888 30.992-30.992 30.992h-806.016c-17.12 0-30.992-13.872-30.992-30.992v-806c0-17.12 13.888-30.992 30.992-30.992h806c17.12 0 30.992 13.888 30.992 30.992v806zM459.6 275.296c-1.024-1.472-1.632-3.136-2.944-4.448-6.112-6.096-14.16-8.912-22.16-8.72-8-0.192-16.048 2.624-22.144 8.72-1.312 1.312-1.92 2.96-2.944 4.432l-152.064 152.064c-11.824 11.824-11.824 30.992 0 42.816s30.992 11.824 42.816 0l134.336-134.336 289.344 289.328c11.824 11.824 30.992 11.824 42.8 0 11.824-11.824 11.824-30.992 0-42.816l-307.040-307.040z" />
<glyph unicode="&#xe128;" d="M946-48h-868c-34.24 0-62 27.76-62 62v868c0 34.24 27.76 62 62 62h868c34.24 0 62-27.76 62-62v-868c0-34.24-27.76-62-62-62zM946 851.008c0 17.12-13.888 30.992-30.992 30.992h-806.016c-17.12 0-30.992-13.872-30.992-30.992v-806c0-17.12 13.888-30.992 30.992-30.992h806c17.12 0 30.992 13.888 30.992 30.992v806zM728.64 200.4h-433.28c-17.088 0-30.944 13.856-30.944 30.96v433.296c0 17.088 13.856 30.944 30.944 30.944h433.28c17.088 0 30.944-13.856 30.944-30.944v-433.296c0.016-17.104-13.84-30.96-30.944-30.96z" />
<glyph unicode="&#xe129;" d="M512-48c-273.936 0-496 222.064-496 496s222.064 496 496 496c273.936 0 496-222.064 496-496s-222.064-496-496-496zM512 882c-239.696 0-434-194.304-434-434s194.304-434 434-434c239.696 0 434 194.304 434 434s-194.304 434-434 434zM459.6 275.296c-1.024-1.472-1.648-3.136-2.944-4.448-6.112-6.096-14.16-8.912-22.16-8.72-8-0.192-16.048 2.624-22.144 8.72-1.312 1.312-1.92 2.96-2.944 4.432l-152.064 152.064c-11.824 11.824-11.824 30.992 0 42.816s30.992 11.824 42.816 0l134.336-134.336 289.344 289.328c11.824 11.824 30.992 11.824 42.8 0 11.824-11.824 11.824-30.992 0-42.816l-307.040-307.040z" />
<glyph unicode="&#xe12a;" d="M512-48c-273.936 0-496 222.064-496 496s222.064 496 496 496c273.936 0 496-222.064 496-496s-222.064-496-496-496zM766.656 623.696c-11.824 11.824-30.992 11.824-42.8 0l-289.36-289.328-134.336 134.336c-11.824 11.824-30.992 11.824-42.816 0s-11.824-30.992 0-42.816l152.064-152.064c1.024-1.472 1.632-3.12 2.944-4.432 6.096-6.096 14.144-8.928 22.144-8.72 8-0.208 16.048 2.624 22.16 8.72 1.312 1.312 1.936 2.976 2.944 4.432l307.056 307.056c11.824 11.84 11.824 30.992 0 42.816z" />
<glyph unicode="&#xe12b;" d="M806.336-29.6c-4.992-11.2-16.064-18.4-28.336-18.4h-532c-12.256 0-23.328 7.2-28.336 18.4-4.976 11.2-2.88 24.272 5.328 33.344l165.024 195.296v342.368h-20.64c-17.136 0-30.992 13.856-30.992 30.992 0 17.12 13.856 30.992 30.992 30.992h51.632c17.12 0 30.992-13.856 30.992-30.992v-385.28c0-7.68-2.848-15.072-7.984-20.752l-126.272-152.384h392.496l-126.272 152.384c-5.136 5.68-7.984 13.072-7.984 20.752v385.28c0 17.12 13.856 30.992 30.992 30.992h51.632c17.136 0 30.992-13.856 30.992-30.992s-13.856-30.992-30.992-30.992h-20.64v-342.368l165.040-195.296c8.208-9.072 10.304-22.144 5.328-33.344zM682.928 726.24c-60.416 0-109.36 48.736-109.36 108.88 0 60.128 48.96 108.88 109.36 108.88s109.36-48.736 109.36-108.88c0-60.128-48.96-108.88-109.36-108.88zM682.448 882.208c-25.824 0-46.816-20.912-46.816-46.608s20.992-46.608 46.816-46.608c25.808 0 46.816 20.912 46.816 46.608s-21.008 46.608-46.816 46.608zM481.008 634.256c-34.16 0-61.824 27.696-61.824 61.824 0 34.112 27.664 61.808 61.824 61.808s61.824-27.696 61.824-61.808c0-34.128-27.664-61.824-61.824-61.824z" />
<glyph unicode="&#xe12c;" d="M763.536 134.16v-0.096c-17.12 0-31.008 13.872-31.008 31.024 0 17.136 13.888 31.008 31.008 31.008h8.848c106.080 0 176.128 117.792 176.128 223.504 0 116.16-101.040 209.616-216.24 212.048l-22.368 0.48-6.624 21.36c-32.016 103.52-101.216 164.224-224.416 164.224-153.696 0-253.12-113.936-253.12-265.024l0.224-0.368 2.512-28.432-28.16-4.848c-68.592-11.792-123.28-82.144-123.28-160.128 0-88.256 68.368-162.8 148.128-162.8h27.584c17.12 0 31.008-13.872 31.008-31.008s-13.888-31.024-31.008-31.024h-27.584c-113.36 0-209.168 102.944-209.168 224.832 0 99.552 62.192 187.456 148.368 215.008 10.752 173.136 135.776 305.824 314.496 305.824 140.448 0 233.44-72.688 276.704-187.488 140.24-15.088 252.432-129.472 252.432-272.656 0-133.168-89.376-281.344-244.464-285.44zM383.472 192.656c8.656 9.056 22.72 7.12 31.376-1.936l66.016-73.616v312.528c0 17.136 13.888 31.008 31.008 31.008 17.136 0 31.008-13.888 31.008-31.008v-312.208l68.224 75.232c8.656 9.056 22.688 9.056 31.344 0l7.808-6.24c8.656-9.088 8.656-19.872 0-28.928l-114.8-125.76c-0.144-0.176-0.208-0.368-0.368-0.512l-7.84-8.208c-4.304-4.544-10.032-6.784-15.728-6.752-5.728-0.032-11.424 2.208-15.776 6.752l-7.84 8.208c-0.16 0.144-0.176 0.352-0.336 0.512l-111.952 123.824c-8.656 9.056-8.656 23.712 0 32.8l7.856 4.304z" />
<glyph unicode="&#xe12d;" d="M772.144 134.176l-70.64-0.096c-17.12 0-31.008 13.872-31.008 31.024 0 17.136 13.888 31.008 31.008 31.008h70.88c106.080 0 176.128 117.792 176.128 223.504 0 116.16-101.040 209.616-216.24 212.048l-22.368 0.48-6.624 21.36c-32.016 103.52-101.216 164.224-224.416 164.224-153.696 0-253.12-113.936-253.12-265.024l0.224-0.368 2.512-28.432-28.16-4.848c-68.592-11.792-123.28-82.144-123.28-160.128 0-88.256 68.368-162.8 148.128-162.8h89.616c17.12 0 31.008-13.872 31.008-31.008s-13.888-31.024-31.008-31.024h-89.616c-113.36 0-209.168 102.944-209.168 224.832 0 99.552 62.192 187.456 148.368 215.008 10.752 173.136 135.776 305.824 314.496 305.824 140.448 0 233.424-72.688 276.704-187.488 140.24-15.088 252.432-129.472 252.432-272.656 0-133.168-80.784-281.344-235.856-285.44zM487.6 445.152c0.16 0.16 0.176 0.368 0.336 0.512l7.84 8.208c4.368 4.544 10.064 6.784 15.776 6.752 5.696 0.032 11.424-2.224 15.728-6.752l7.84-8.208c0.144-0.16 0.208-0.336 0.368-0.512l114.784-125.76c8.656-9.056 8.656-23.712 0-32.8l-7.808-5.296c-8.672-9.056-22.688-6.112-31.344 2.944l-68.224 75.232v-312.208c0-17.136-13.888-31.008-31.008-31.008-17.136 0-31.008 13.888-31.008 31.008v312.528l-66.016-73.616c-8.672-9.056-22.72-12-31.376-2.944l-7.808 5.296c-8.656 9.088-8.656 23.744 0 32.8l111.92 123.824z" />
<glyph unicode="&#xe12e;" d="M512-48c-273.936 0-496 222.048-496 496 0 273.936 222.064 496 496 496 273.952 0 496-222.064 496-496 0-273.952-222.048-496-496-496zM512 882c-239.312 0-434-194.688-434-434s194.688-434.976 434-434.976 434 195.664 434 434.976c0 239.312-194.688 434-434 434zM618.896 344.704c-2.912-5.264-7.392-9.504-12.8-12.112l-296.176-122.992c-4.064-1.968-8.416-2.912-12.72-2.912-7.664 0-15.232 3.024-20.848 8.752-8.784 8.96-10.848 22.528-5.152 33.696l138.976 280.176c2.816 5.504 7.264 9.968 12.752 12.752l303.376 130.432c11.408 5.808 25.344 3.536 34.272-5.728 8.896-9.232 10.752-23.216 4.512-34.448l-146.192-287.616zM362.672 299.968l169.424 65.584-85.136 106.544-84.288-172.128zM496.4 509.552l86.032-107.664 85.248 175.232-171.28-67.568z" />
<glyph unicode="&#xe12f;" d="M734.256 459.984c-19.616-4.32-38.4-8.448-55.152-12.672-29.232-7.376-47.392-21.84-87.12-61.568l-4.496-4.464-4.336-4.336-8.784-8.832c-39.664-39.728-54.128-57.888-61.472-87.088-4.224-16.896-8.352-35.744-12.688-55.408-27.344-124.064-58.336-264.72-167.616-273.28-3.008-0.24-5.936-0.336-8.928-0.336-105.872 0-170.544 138.384-233.12 272.224-11.616 24.864-22.576 48.304-33.248 69.664-68.752 137.52-51.664 246.608 55.376 353.776l200.048 200.24c41.264 41.248 107.056 96.096 202.096 96.096 47.216 0 96.72-13.296 151.328-40.656 21.312-10.672 44.72-21.632 69.472-33.248 137.84-64.544 280.336-131.28 271.744-242.304-8.512-109.424-149.088-140.448-273.104-167.808zM637.024 848.992c-46.64 23.392-87.088 34.080-123.664 34.080-59.936 0-109.392-28.816-158.528-77.984-15.184-15.248-34.048-34.096-57.184-57.248-33.296-33.328-61.392-61.44-85.008-85.104-23.136-23.152-42-42.032-57.184-57.248-79.104-79.168-105.52-159.184-43.856-282.496 60.704-121.296 129.504-307.216 211.264-307.216 1.392 0 2.784 0.032 4.176 0.144 77.056 6.048 99.792 178.96 125.6 281.84 11.424 45.504 35.44 73.168 77.2 114.96 2.944 2.912 5.84 5.872 8.768 8.8 2.96 2.96 5.904 5.872 8.8 8.784 41.76 41.76 69.424 65.824 114.88 77.312 102.784 25.792 275.52 48.56 281.536 125.712 6.448 83.68-183.504 153.872-306.8 215.664zM572.72 665.328h61.888v-61.904h-61.888v61.904zM572.72 758.16h61.888v-61.888h-61.888v61.888zM479.888 665.328h61.888v-61.904h-61.888v61.904zM479.888 758.16h61.888v-61.888h-61.888v61.888zM360.096 351.328c-11.6-11.6-30.4-11.6-42.016 0l-24.24 24.24-23.536-23.568c-11.6-11.6-30.416-11.6-42.016 0s-11.6 30.432 0 42.016l23.552 23.552-23.552 23.568c-11.6 11.6-11.6 30.416 0 42.016s30.416 11.6 42.016 0l23.552-23.568 23.552 23.568c11.6 11.6 30.416 11.6 42 0 11.616-11.6 11.616-30.416 0-42.016l-23.552-23.568 24.24-24.24c11.616-11.584 11.616-30.4 0-42z" />
<glyph unicode="&#xe130;" d="M976 80h-128v-96c0-17.68-14.336-32-32-32-17.68 0-32 14.336-32 32v96h-608c-2.72 0-5.136 0.912-7.664 1.536-1.424 0.368-2.912 0.304-4.272 0.864-8.064 3.248-14.416 9.632-17.664 17.696-0.464 1.152-0.4 2.416-0.72 3.6-0.752 2.72-1.68 5.36-1.68 8.304v640h-96c-17.68 0-32 14.32-32 32s14.336 32 32 32h96v96c0 17.664 14.32 32 32 32s32-14.336 32-32v-96h595.824l52.64 55.104c12.608 12.624 33.040 12.624 45.648 0s12.608-33.088 0-45.712l-54.112-56.64v-624.752h128c17.68 0 32-14.32 32-32 0-17.664-14.336-32-32-32zM208 752v-559.712l534.688 559.712h-534.688zM251.2 144h532.8v557.744l-532.8-557.744z" />
<glyph unicode="&#xe131;" d="M964.944 639.952c-35.664-43.712-90.496-66.224-162.816-67.312-40-118.032-140.624-205.328-261.632-218.096v-216.912h96.256c17.216 0 31.152-13.936 31.152-31.136 0-17.216-13.936-31.152-31.152-31.152h-251.76c-17.216 0-31.152 13.936-31.152 31.152s13.936 31.136 31.152 31.136h93.216v216.944c-120.832 13.024-221.232 100.32-261.12 218.256-69.92 2-123.184 24.4-158.048 67.12-60.64 74.352-39.744 183.472-38.848 187.984 2.96 14.464 15.728 24.88 30.512 24.88h147.728v31.072c0 17.216 13.936 31.152 31.152 31.152h560.128c17.216 0 31.136-13.936 31.136-31.152v-31.072h152.432c14.784 0 27.552-10.4 30.512-24.88 0.912-4.512 21.808-113.632-38.848-187.984zM78.576 790.528c-1.392-28.32 1.36-77.856 28.96-111.44 20.32-24.768 52.192-39.136 94.672-43.104-2.272 16.16-3.776 32.576-3.776 49.408v105.136h-119.856zM758.576 852.752h-497.856v-167.36c0-149.008 111.68-270.224 248.976-270.224 137.232 0 248.88 121.232 248.88 270.224v167.36zM945.424 790.528h-124.576v-105.136c0-17.008-1.52-33.616-3.84-49.952 44.96 3.296 78.368 17.936 99.472 43.648 27.584 33.584 30.352 83.088 28.944 111.44zM291.92 43.248h437.904c17.2 0 31.136-13.936 31.136-31.136 0-17.216-13.936-31.152-31.136-31.152h-437.904c-17.216 0-31.136 13.936-31.136 31.152s13.92 31.136 31.136 31.136z" />
<glyph unicode="&#xe132;" d="M822.4 169.328c-6.16 0-34.784 0.192-62.912 0.384l-0.048-31.792c0-102.672-82.272-185.92-184.944-185.92h-372.48c-102.672 0-185.92 83.248-185.92 185.92v465.696c0 34.224 27.744 61.968 61.968 61.968l620.208-0.144c34.224 0 61.968-27.744 61.968-61.968l-0.112-61.952c28.16-0.192 54.208-0.352 62.256-0.352 102.448 0 185.504-84.128 185.504-186.8 0-102.704-83.040-185.040-185.488-185.040zM78.080 603.616h-0.096l0.096-465.696c0-68.352 55.584-123.952 123.952-123.952h372.464c68.352 0 122.976 55.584 122.976 123.952l0.816 465.52-620.208 0.176zM822.4 479.12c-8.096 0-34.16 0.16-62.368 0.352l-0.432-248.672c28.048-0.192 56.656-0.384 62.8-0.384 70.816 0 124.544 53.936 124.544 124.912 0 70.96-53.728 123.792-124.544 123.792zM573.856 727.104c-17.12 0-30.992 13.872-30.992 30.992v154.912c0 17.12 13.872 30.992 30.992 30.992 17.104 0 30.992-13.872 30.992-30.992v-154.928c-0.016-17.104-13.888-30.976-30.992-30.976zM387.936 727.104c-17.12 0-30.992 13.872-30.992 30.992v154.912c0 17.12 13.872 30.992 30.992 30.992s30.992-13.872 30.992-30.992v-154.928c0-17.104-13.872-30.976-30.992-30.976zM202.016 727.104c-17.12 0-30.992 13.872-30.992 30.992v154.912c0.016 17.12 13.888 30.992 30.992 30.992s30.992-13.872 30.992-30.992v-154.928c0-17.104-13.872-30.976-30.992-30.976z" />
<glyph unicode="&#xe133;" d="M908.656 844.336l-326.048-761.904-115.68 334.032-333.712 100.88 775.44 326.992zM989.488 943.68c-5.904 0-13.104-1.68-21.424-5.2l-925.616-392.752c-33.328-14.144-35.44-41.392-4.688-60.56l383.264-119.824 125.44-391.008c8.992-14.704 19.872-22.016 30.304-22.016 11.568 0 22.592 8.88 30.112 26.416l395.808 924.72c10.736 25.088 4.64 40.224-13.2 40.224v0z" />
<glyph unicode="&#xe134;" d="M512-48c-273.936 0-496 222.064-496 496s222.064 496 496 496c273.936 0 496-222.064 496-496s-222.064-496-496-496zM512 882c-239.696 0-434-194.304-434-434 0-133.392 60.304-252.608 155.008-332.224v-8.768h11.104c73.808-58.080 166.688-93.008 267.888-93.008s194.080 34.928 267.904 93.008h11.104v8.768c94.704 79.616 155.008 198.832 155.008 332.224-0.016 239.696-194.32 434-434.016 434zM791.008 448c0 154.080-124.912 278.992-278.992 278.992-154.096 0-279.008-124.912-279.008-278.992h-62c0 188.32 152.672 341.008 341.008 341.008 188.32 0 341.008-152.672 341.008-341.008h-62.016zM233.008 253.12c-2.112 3.024-4.576 5.776-6.592 8.88h6.592v-8.88zM503.424 323.136l72.832 287.6c4.32 17.072 20.912 27.2 37.040 22.64 16.128-4.576 25.712-22.128 21.392-39.2l-72.24-285.216c25.552-16.56 42.544-45.216 42.544-77.952 0-51.36-41.632-93.008-92.992-93.008s-93.008 41.632-93.008 93.008c0.016 48.416 37.152 87.728 84.432 92.128zM481.008 200h62v62h-62v-62zM791.008 253.12v8.88h6.592c-2.032-3.088-4.48-5.856-6.592-8.88z" />
<glyph unicode="&#xe135;" d="M998.496 605.2l-472.256-642.944c-5.024-6.832-11.584-10.256-18.16-10.256-6.624 0-13.248 3.504-18.24 10.464l-464.64 647.696c-9.92 13.856-11.52 37.472-3.504 52.512l135.024 253.872c8.016 15.040 28.496 27.344 45.52 27.344h306.048c0.288 0.016 0.544 0.112 0.816 0.112 0.336 0 0.672-0.096 1.008-0.112h311.6c17.024 0 37.44-12.336 45.344-27.44l135.392-258.864c7.92-15.088 6.128-38.656-3.952-52.384zM920.208 603.232h-179.232l-162.448-465.152 341.68 465.152zM508.832 126.464l166.512 476.768h-324.72l158.208-476.768zM663.232 665.184l-151.936 195.616-136.176-195.616h288.112zM439.344 139.136l-154.016 464.096h-178.896l332.912-464.096zM198.848 863.808l-105.648-198.624h171.568l-65.92 198.624zM320.256 694.72l130.32 187.216h-192.448l62.128-187.216zM573.312 881.936l137.52-177.040 61.84 177.040h-199.36zM829.072 855.472l-66.464-190.288h165.984l-99.52 190.288z" />
<glyph unicode="&#xe136;" d="M952.688 612.848l-173.536-186.016c-5.872-6.272-14.080-9.84-22.672-9.84h-259.168v-435.936c0-16.048-13.888-29.072-31.008-29.072-17.104 0-31.008 13.024-31.008 29.072v435.936h-341.312c-17.136 0-31.008 13.872-31.008 31.008v372c0 17.136 13.872 30.992 31.008 30.992h341.728l0.96 63.936c0 16.048 11.952 29.072 29.072 29.072 17.104 0 31.008-13.024 31.008-29.056l0.976-63.936h258.752c8.592 0 16.8-3.568 22.672-9.84l173.536-186c11.104-11.936 11.104-30.4 0-42.32zM743.008 789.008h-618.032v-310h618.032l144.624 154.992-144.624 155.008z" />
<glyph unicode="&#xe137;" d="M1000.208 721.984l-96.368-108.56c-5.856-6.624-14.288-10.4-23.136-10.4h-338.576v-61.952h247.92c17.104 0 30.928-13.84 30.928-30.928v-217.104c0-17.104-13.84-30.928-30.928-30.928h-247.92v-280.032c0-16.016-13.856-29.008-30.928-29.008s-30.928 12.992-30.928 29.008v280.016h-336.976c-8.848 0-17.248 2.816-23.136 9.424l-96.368 108.544c-10.384 11.712-10.384 29.36 0 41.088l96.368 109.536c5.856 6.624 14.288 10.384 23.136 10.384h336.976v61.952h-247.296c-17.104 0-30.928 13.84-30.928 30.928v216.208c0 17.104 13.84 30.928 30.928 30.928h247.28v32.848c0 16.016 13.856 28.992 30.928 28.992s30.928-12.992 30.928-28.992v-32.832h338.576c8.848 0 17.28-3.776 23.136-10.384l96.368-107.632c10.4-11.744 10.4-29.376 0.016-41.104zM157.2 479.2l-68.912-78.592 68.912-76.64h601.92v155.232h-601.92zM866.816 819.232h-602.896v-154.336h602.896l68.912 77.632-68.912 76.704z" />
<glyph unicode="&#xe138;" d="M512-48c-273.952 0-496 222.048-496 496s222.048 496 496 496c273.936 0 496-222.048 496-496s-222.064-496-496-496zM876.688 213.6l-275.2 147.28c-0.464-0.48-0.992-0.896-1.456-1.376l164.176-264.096c44.464 31.968 82.736 72.064 112.48 118.192zM78 448c0-239.312 194.688-434 434-434 71.92 0 139.632 17.808 199.328 48.944l-164.768 265.072c-10.992-3.168-22.56-4.992-34.56-4.992-69.024 0-124.976 55.952-124.976 124.976 0 8.976 0.992 17.712 2.784 26.16l-275.36 147.344c-23.312-53.184-36.448-111.808-36.448-173.504zM449.024 448c0-34.72 28.24-62.976 62.976-62.976s62.976 28.256 62.976 62.976-28.256 62.976-62.976 62.976-62.976-28.256-62.976-62.976zM143.552 676.256l273.968-146.608c0.704 0.816 1.52 1.552 2.256 2.352l-164.736 265.088c-44.336-32.832-82.256-73.84-111.488-120.832zM512 882c-74.032 0-143.6-18.864-204.544-51.744l164.080-264.016c12.672 4.352 26.288 6.72 40.464 6.72 69.024 0 124.976-55.952 124.976-124.976 0-11.552-1.696-22.688-4.624-33.312l274.080-146.688c25.168 54.912 39.584 115.744 39.584 180-0.016 239.328-194.704 434.016-434.016 434.016z" />
<glyph unicode="&#xe139;" d="M418.608 943.072c281.344 0 283.52-11.664 318.368-37.92 18.496-13.904 53.344-23.52 180.736-31.808 9.248-0.608 18.032-4.144 23.936-11.312 2.688-3.28 66.352-96.112 66.352-244.784 0-146.512-45.568-213.312-47.504-216.4-5.664-9.040-15.568-14.544-26.24-14.544-104.592 0-249.568-133.504-347.056-366.56-16.848-40.32-20.336-66.816-82.256-66.816-35.216 0-74.688 25.216-94.192 57.568-39.968 66.064-19.68 208.032-0.88 283.904-63.856-0.512-179.424-1.392-234.416-1.392-76.528 0-127.12 45.616-128.672 112.32-0.512 22 2.384 50.128 8.768 64.656-16.832 16.8-38.576 42.128-39.504 74.752-1.184 42.080 26.384 74.16 43.984 92.544-4.016 12.24-12.128 28.48-11.328 47.888 1.936 47.728 38.784 78.512 61.76 94.56-1.904 13.056-3.392 37.696 0.784 56.752 16.56 76.032 128.080 106.592 307.36 106.592zM901.28 810.56c-110.96 9.184-170.256 21.6-201.552 45.152-24.224 18.224-20.48 25.456-281.12 25.456-79.52 0-235.008-3.328-246.912-57.904-4.752-21.824 18.256-43.296 18.352-43.44 6.288-15.504-0.72-33.712-16.048-40.416-0.24-0.128-62.032-22.288-63.456-56.8-0.912-22.096 14.24-35.36 14.608-35.92 9.008-14 5.712-33.2-7.952-42.72-0.16-0.128-40.208-24.4-39.248-57.504 0.752-26.272 35.392-44.768 36.464-45.376 7.728-4.448 13.36-12.096 15.12-20.864 1.744-8.752-0.224-17.936-5.664-25.008 0 0-15.712-25.024-15.184-48.48 1.152-50.256 55.184-51.824 66.752-51.824 78.080 0 278.656 0.8 278.656 0.8 10.816 0.032 20.16-5.056 25.984-13.712 5.808-8.656 6.24-19.392 2.816-29.232-30.224-87.12-47.12-223.744-19.072-270.432 8.256-13.76 10.144-27.504 41.104-27.504 4.304 0 14.512 3.376 25.152 28.784 103.504 247.488 258 390.64 384.56 403.568 10.912 24.896 31.44 76.448 31.44 170.048 0 95.504-30.256 169.408-44.8 193.328z" />
<glyph unicode="&#xe13a;" d="M511.984-48c-273.472 0-495.984 222.512-495.984 495.984 0 204.8 124.736 380.96 302.24 456.576 0.656 0.272 1.264 0.592 1.936 0.816 59.024 24.864 123.84 38.624 191.808 38.624 273.504 0 496.016-222.512 496.016-496.016 0-273.472-222.512-495.984-496.016-495.984zM939.552 374.88c-28.336 8.272-142.128 36.224-286.336 7.568 51.936-133.504 74.192-245.408 83.184-305.184 105.456 64.080 181.568 171.6 203.152 297.616zM677.84 47.12c-6.192 47.552-26.768 170.896-85.536 320.24-26.032-7.872-52.688-17.568-79.792-29.84-179.744-81.408-251.872-200.576-267.824-230.704 73.76-57.92 166.448-92.784 267.296-92.784 58.736 0 114.704 11.856 165.856 33.088zM78.032 447.984c0-115.584 45.712-220.48 119.632-298.336 29.488 50.016 112.192 164.192 289.312 244.384 27.664 12.528 54.784 22.448 81.392 30.8-11.568 26.096-24.256 52.736-38.288 79.728-2.864 5.488-5.632 10.64-8.432 15.984-146.512-45.856-273.36-56.56-357.52-56.56-37.792 0-66.688 2.064-85.36 3.936-0.32-6.64-0.736-13.232-0.736-19.936zM86.032 529.632c54.784-5.088 212.128-11.776 405.664 46.512-81.856 148.208-142.88 229.216-169.328 261.584-120.832-59.040-210.288-172.384-236.336-308.096zM511.984 881.968c-45.152 0-88.688-6.976-129.648-19.824 33.296-42.608 92.72-126.288 169.232-266.16 170.208 63.84 222.704 151.824 237.168 185.968-75.168 62.4-171.648 100.016-276.752 100.016zM835.504 736.24c-28.096-51.664-95.776-134.128-254.48-195.376 1.344-2.592 2.672-5.056 4.048-7.696 16.272-31.296 30.72-62 43.824-91.984 148.976 32.72 269.376 9.024 316.72-3.568 0.080 3.456 0.352 6.88 0.352 10.368 0 110.688-42.016 211.488-110.464 288.256z" />
<glyph unicode="&#xe13b;" d="M510.448-48c-187.744 0-340.496 150.656-340.496 335.824 0 216.272 302.656 626.272 315.552 643.648 5.824 7.824 14.96 12.464 24.736 12.528 10.864 0.096 18.992-4.464 24.912-12.208 13.024-17.024 318.896-419.776 318.896-643.968 0-185.168-154.144-335.824-343.6-335.824zM510.784 860.080c-72.272-102.624-278.672-409.92-278.672-572.256 0-150.912 124.864-273.664 278.352-273.664 155.184 0 281.44 122.768 281.44 273.664-0.016 168.384-208 471.072-281.12 572.256z" />
<glyph unicode="&#xe13c;" d="M996.944 700.608l-160.304-134.672 136.64-107.792c7.824-6.144 12.176-15.664 11.792-25.6-0.4-9.936-5.52-19.056-13.792-24.576l-120.288-80.176c0.368-1.904 0.592-3.856 0.592-5.856v-145.968c0-10.752-5.584-20.752-14.752-26.432l-308.576-176.896c-5.008-3.056-10.64-4.608-16.272-4.608s-11.28 1.52-16.24 4.576l-312.208 176.912c-9.184 5.664-14.784 15.664-14.784 26.464v124.448c0 9.104 3.984 17.2 10.224 22.88l-127.008 84.672c-8.272 5.52-13.392 14.672-13.792 24.608-0.384 9.936 4 19.488 11.856 25.6l137.248 107.824-160.224 134.592c-7.616 6.4-11.696 16.032-10.976 25.936 0.688 9.92 6.080 18.88 14.512 24.16l276.544 172.56c11.184 7.024 25.664 6.096 35.936-2.208l168.912-136.672 168.944 136.672c10.304 8.336 24.688 9.216 35.936 2.208l276.544-172.576c8.432-5.28 13.824-14.24 14.512-24.16 0.72-9.888-3.36-19.536-10.976-25.92zM901.28 435.904l-115.84 91.36-219.152-137.328 123.568-94.976 211.424 140.944zM789.52 286.8l-83.728-55.808c-5.216-3.488-11.216-5.216-17.216-5.216-6.672 0-13.36 2.16-18.912 6.432l-128.64 98.88v-279.072l248.48 141.28v93.504zM230.8 193.328l248.176-139.328v274.208l-125.488-96.016c-10.544-8.032-25.056-8.512-36.048-1.184l-86.64 57.744v-95.424zM122.016 435.856l211.392-140.912 124.176 95.056-219.12 137.312-116.448-91.456zM321.232 858.912l-221.552-138.272 139.152-116.912 220.448 143.488-138.048 111.696zM294.112 565.664l217.872-136.512 217.872 136.512-217.872 141.792-217.872-141.792zM702.768 858.912l-138.096-111.696 220.448-143.488 139.184 116.912-221.536 138.272z" />
<glyph unicode="&#xe13d;" d="M512-48c-273.952 0-496 222.048-496 496s222.048 496 496 496 496-222.048 496-496-222.048-496-496-496zM512 882c-239.312 0-434-194.688-434-434s194.688-434 434-434c239.312 0 434 194.688 434 434s-194.688 434-434 434zM510.384 136.592c-1.248 0-2.512-0.032-3.76-0.032-189.36 0-268.768 170.864-272.064 178.192-7.056 15.632-0.128 33.968 15.472 41.024 15.616 7.024 33.904 0.112 40.992-15.376 2.672-5.84 66.88-141.824 215.728-141.824 0.976 0 1.936 0.032 2.912 0.032 158.208 1.84 221.632 140.16 222.272 141.552 6.928 15.632 25.184 22.736 40.928 15.68 15.616-6.976 22.672-25.28 15.68-40.928-3.2-7.2-80.656-176-278.16-178.32zM666.512 479.152c-34.176 0-61.856 27.712-61.856 61.856 0 34.112 27.68 61.824 61.856 61.824 34.16 0 61.856-27.712 61.856-61.824 0-34.144-27.696-61.856-61.856-61.856zM356.512 479.152c-34.176 0-61.856 27.712-61.856 61.856 0 34.112 27.68 61.824 61.856 61.824s61.856-27.712 61.856-61.824c0-34.144-27.68-61.856-61.856-61.856z" />
<glyph unicode="&#xe13e;" d="M592.864 881.92h0.16zM592.864 881.92l-70.048-368.032 253.76-0.848-345.44-498.96 70.048 404.896-253.76 0.88 345.44 462.064zM592.896 944c-1.664 0-3.344-0.064-4.992-0.176-10.976-0.88-18.224-4.544-26.848-10.336-4.784-3.184-9.168-7.056-13.008-11.584-1.136-1.328-2.192-2.72-3.2-4.144l-347.872-460.448c-13.744-18.816-15.744-43.68-5.2-64.448 10.528-20.768 31.84-33.92 55.2-34.096l179.216-1.312-56.336-331.968c-5.36-28.528 9.856-56.96 36.624-68.416 7.968-3.424 16.352-5.072 24.624-5.072 19.52 0 35.552 9.12 47.568 25.616l348.352 498.944c13.728 18.832 15.728 43.712 5.2 64.448-10.528 20.768-31.84 33.92-55.2 34.112l-179.2 0.304 55.728 291.872c1.152 4.704 1.76 9.584 1.76 14.624 0 33.584-26.736 60.96-60.208 62.048-0.752 0.032-1.472 0.032-2.208 0.032v0z" />
<glyph unicode="&#xe13f;" d="M1006.752 302.4c0.128-3.2 0.48-6.336 0.48-9.584 0-119.152-96.608-215.76-215.744-215.76-119.152 0-218.992 96.608-218.992 215.76 0 18.352 2.624 36.080 7.072 53.12-13.344 4.704-36.832 10.944-67.904 10.944-31.856 0-54.768-6.816-67.44-11.904 4.16-16.736 6.608-34.144 6.608-52.16 0-119.152-96.608-215.76-215.744-215.76-119.152 0-218.992 96.608-218.992 215.76 0 4.528 0.416 8.96 0.688 13.424-0.592 2.784-0.944 5.664-0.72 8.64 0.928 13.376 48.112 306.528 56 353.776 0.752 4.528 1.344 9.344 2.016 14.432 6.064 47.488 17.424 135.84 159.856 135.84 17.088 0 30.912-13.824 30.912-30.912s-13.824-30.912-30.912-30.912c-88.032 0-92.672-36.128-98.544-81.904-0.752-5.856-1.472-11.472-2.352-16.688-3.68-22.224-20.656-111.12-34.976-198.080 37.76 30.064 85.552 48.144 137.008 48.144 79.184 0 148.208-42.784 185.728-106.384 18.864 7.68 49.36 16.512 90.848 16.512 42.064 0 73.584-8.752 92.144-15.76 38.592 63.168 108.784 105.632 187.664 105.632 49.12 0 94.256-16.608 130.528-44.256-14.144 85.856-30.528 172.432-34.144 194.192-0.88 5.232-1.6 10.832-2.352 16.688-5.856 45.76-10.496 81.904-98.528 81.904-17.088 0-30.912 13.824-30.912 30.912s13.824 30.912 30.912 30.912c142.432 0 153.776-88.352 159.84-135.84 0.672-5.072 1.28-9.904 2.016-14.432 7.888-47.248 58.144-342.336 59.072-355.712 0.304-3.664-0.192-7.2-1.136-10.544zM235.088 446.752c-85.2 0-157.168-70.496-157.168-153.936s71.968-153.936 157.168-153.936c84.896 0 153.936 69.040 153.936 153.936-0.016 84.88-69.040 153.936-153.936 153.936zM944.992 301.152c-0.912 2.352-1.6 4.8-1.776 7.392-0.4 5.424-0.912 11.344-1.552 17.664-15.312 68.864-76.768 120.544-150.176 120.544-85.2 0-157.168-70.496-157.168-153.936s71.968-153.936 157.168-153.936c84.896 0 153.936 69.040 153.936 153.936-0.016 2.816-0.288 5.552-0.432 8.336z" />
<glyph unicode="&#xe140;" d="M581.84 879.936c3.824 0 6-0.16 6-0.16h83.648l-0.432-96.096h-83.088c-45.728 0-44.672-39.040-44.672-39.040v-152.336h161.792l-22.592-95.984h-139.728v-480.272h-96l-0.064 480.272h-127.536l-0.256 95.984h127.856c0 0 0 117.488 0 149.328 0 130.208 108.144 138.304 135.072 138.304zM671.488 879.776h0.16zM581.84 944v0c-23.024 0-68.032-3.808-110.672-29.504-40.352-24.272-88.464-74-88.464-172.864v-85.28h-63.776c-17.008 0-33.344-6.784-45.392-18.832-12-12.064-18.736-28.4-18.672-45.44l0.256-95.984c0.128-35.28 28.784-63.84 64.064-63.84h63.472l0.064-416.208c0-35.376 28.688-64.064 64.064-64.064h96c35.376 0 64.064 28.688 64.064 64.064v416.224h75.664c28.432 0 53.456 18.736 61.472 46.016l22.592 95.968c5.696 19.36 1.904 40.288-10.192 56.432-12.080 16.176-31.088 25.68-51.28 25.68h-97.744v63.216l63.696 0.032c35.248 0 63.904 28.496 64.064 63.776l0.432 92.848c0.064 1.184 0.096 2.352 0.096 3.536 0 35.376-28.624 64.064-64 64.064h-82.032c-1.808 0.096-4.464 0.16-7.776 0.16v0z" />
<glyph unicode="&#xe141;" d="M1008 560.16l-332.432 63.536-152.16 274.272-9.088 16.144-1.408-1.616-2.416 3.36-162.064-292.16-332.432-63.536 231.424-245.664-42.064-334.336 306.64 148.112 306.64-148.112-42.064 334.352 231.424 245.648zM718 334.224l30.4-256.976-236.4 110.688-236.384-110.688 30.384 256.976-176.736 190.608 256.912 52.816 125.824 239.536 125.824-239.536 256.912-52.816-176.736-190.608z" />
<glyph unicode="&#xe142;" d="M1008 560.16l-332.432 63.536-152.16 274.272-9.088 16.144-1.408-1.616-2.416 3.36-162.064-292.16-332.432-63.536 231.424-245.664-42.064-334.336 306.64 148.112 306.64-148.112-42.064 334.352 231.424 245.648z" />
<glyph unicode="&#xe143;" d="M415.728 528.384l-195.984-37.376 136.432-144.544-24.752-196.32 193.52 90.032-0.064 61.488-128.72-60.928 16.4 128.368-88.16 88.688 122.16 21.712 78.384 139.84v55.488l-11.056 30.208zM1008 560.992l-332.448 64-152.144 276.288-9.088 16.256-1.408-1.632-2.416 3.376-162.048-294.288-332.448-64 231.424-247.472-42.064-336.816 306.64 149.2 306.64-149.2-42.064 336.816 231.424 247.472zM718 333.392l30.4-258.88-236.4 111.504-236.384-111.504 30.384 258.88-176.736 192 256.912 53.2 125.824 241.312 125.824-241.296 256.912-53.2-176.736-192.016z" />
<glyph unicode="&#xe144;" d="M975.088 18.048c-17.632 0-31.904 14.272-31.904 31.904 0 457.792-372.448 830.24-830.272 830.24-17.632 0-31.904 14.272-31.904 31.904s14.272 31.904 31.904 31.904c493.008 0 894.080-401.072 894.080-894.048 0.016-17.632-14.256-31.904-31.904-31.904zM112.64 624.976c331.408 0 575.36-245.904 575.36-577.312 0-17.632-14.272-31.904-31.904-31.904s-31.904 14.272-31.904 31.904c0 295.008-216.496 513.504-511.536 513.504-17.632 0-31.904 14.272-31.904 31.904-0.016 17.632 14.256 31.904 31.888 31.904zM368.304 128.176c0-97.136-78.816-176.176-175.664-176.176s-175.648 79.040-175.648 176.176c0 97.12 78.784 176.144 175.632 176.144 96.864-0.016 175.68-79.024 175.68-176.144zM78.544 128.176c0-63.104 51.168-114.448 114.096-114.448s114.128 51.344 114.128 114.448-51.2 114.416-114.128 114.416-114.096-51.328-114.096-114.416z" />
<glyph unicode="&#xe145;" d="M915.008-17.008c0-17.12-13.888-31.008-31.008-31.008h-744c-17.12 0-30.992 13.888-30.992 31.008v930.016c-0.016 17.12 13.872 30.992 30.992 30.992l541.68-0.288 233.024-233.024 0.304-727.696zM605.008 696v186h-403.008c-17.12 0-30.992-13.888-30.992-31.008v-806c0-17.12 13.872-31.008 30.992-31.008h620c17.12 0 30.992 13.872 30.992 31.008v589.008h-248l0.016 62zM666.992 867.616v-171.616h171.616l-171.616 171.616z" />
<glyph unicode="&#xe146;" d="M946 76h-216.992v62h217.008v496h-248v248h-341.008c0 34.24 27.76 62 62 62h340.992l248-248.016v-557.984c0-34.24-27.76-62-62-62zM760 856.32v-160.32h160.304l-160.304 160.32zM667.008 571.984v-557.984c0-34.24-27.76-62-62-62h-527.008c-34.24 0-62 27.76-62 62v744c0 34.24 27.76 62 62 62h341.008l248-248.016zM419.008 732.32v-160.32h160.304l-160.304 160.32zM78 14h527.008v496h-248v248h-279.008v-744z" />
<glyph unicode="&#xe147;" d="M973.68-16.368c0 0-925.136-0.544-925.36-0.544-25.6-0.176-32.416 8.064-32.32 32.48 0.816 211.984-0.064 423.952 0.704 635.92 0.464 129.024 80 228 204.432 255.536 21.744 4.816 44.768 5.552 67.216 5.6-0.4 0.4 456.4 0.272 684.608 0.224 34.832 0 35.008-0.16 35.008-33.744 0.048-287.024 0.048-574.048 0-861.088 0-34.192-0.144-34.368-34.288-34.384zM945.936 817.696c-0.016 30.496-2.816 33.104-33.792 33.104 0.592 0-593.792 0.208-594.064-0.064-152.032 0-240.32-76.528-240.32-231.552 0-135.632-0.192-512.256-0.192-543.264s3.248-30.96 33.28-30.96 799.664 0 800.8 0c32.544 0.016 34.288 1.52 34.288 32.128 0 1.024 0 739.6 0 740.608zM820.448 616.016c-0.288-3.328-0.608-7.12-1.808-10.944-12.784-40.672-25.6-81.344-38.416-122.016-26.944-85.488-54.816-173.904-81.888-260.928-4.768-15.312-14.48-21.856-32.448-21.856h-1.792c-46.256 0.144-50.4 3.024-63.312 44.048-27.408 87.056-54.816 174.112-82.064 261.216-0.944 3.040-1.84 6.064-2.72 9.12-5.104-16.208-10.192-32.32-15.264-48.368-25.616-81.12-49.808-157.744-73.632-235.888-4.816-15.808-12.992-30.448-39.936-30.464-1.664 0-3.424 0.048-5.264 0.16-6.944 0.416-12.416 0.512-16.816 0.592-22.928 0.416-26.080 4.288-32 23.792-0.992 3.264-2.176 7.2-3.728 11.888-31.424 94.912-62.944 191.536-93.408 284.976l-25.856 79.248c-1.328 4.064-2.288 8.096-3.408 12.784-0.56 2.352-1.168 4.896-1.888 7.744l-2.848 11.232h12.864c4.8 0 9.44 0.128 13.984 0.24 4.496 0.112 8.864 0.224 13.152 0.224 8.208 0 14.832-0.416 20.864-1.328 12.224-1.84 19.344-16.704 21.056-22.272 27.408-89.136 54.912-179.824 81.52-267.552l13.488-44.464c0.432 1.392 0.864 2.768 1.312 4.144 9.184 28.624 18.432 57.248 27.664 85.872 23.536 72.848 47.856 148.192 70.8 222.496 6.976 22.592 24.704 22.8 36.432 22.944 1.744 0.032 3.536 0.048 5.344 0.128 1.84 0.080 3.6 0.144 5.296 0.144 12.368 0 27.328-2.64 33.36-23.28 26.144-89.536 53.52-180.384 80-268.256l13.056-43.328 86.384 292.464c7.744 26.176 12.848 43.472 40.288 43.472 8.848 0 20.016-1.728 33.712-3.984l9.472-1.568-1.152-8.576c-0.176-1.264-0.288-2.56-0.4-3.856z" />
<glyph unicode="&#xe148;" d="M973.68-16.368c0 0-925.136-0.544-925.344-0.544-25.6-0.176-32.416 8.064-32.32 32.48 0.816 211.984-0.080 423.952 0.688 635.92 0.464 129.024 80 228 204.432 255.536 21.744 4.816 44.768 5.552 67.216 5.6-0.4 0.4 456.4 0.272 684.608 0.224 34.832 0 35.008-0.16 35.008-33.744 0.048-287.024 0.048-574.048 0-861.088 0-34.192-0.144-34.368-34.288-34.384zM945.936 817.696c0 30.496-2.816 33.104-33.792 33.104 0.592 0-593.792 0.208-594.064-0.064-152.032 0-240.32-76.528-240.32-231.552 0-135.632-0.192-512.256-0.192-543.264s3.248-30.96 33.28-30.96 799.648 0 800.8 0c32.544 0.016 34.288 1.52 34.288 32.128 0 1.024 0 739.6 0 740.608zM697.456 386.128c-16.784 0-30.448 13.776-30.448 30.704 0 78.080-34.912 152.192-94.384 202.32v-339.808c0-60.208-57.216-109.216-127.52-109.216s-127.52 49.008-127.52 109.216c0 60.24 57.216 109.248 127.52 109.248 23.648 0 46.656-5.648 66.608-16.144v351.488l15.232-6.24c122.096-50.016 200.992-168.112 200.992-300.848-0.016-16.928-13.68-30.72-30.48-30.72zM445.104 327.264c-36.736 0-66.624-21.488-66.624-47.904 0-26.384 29.888-47.856 66.624-47.856s66.608 21.472 66.608 47.856c0 26.416-29.872 47.904-66.608 47.904z" />
<glyph unicode="&#xe149;" d="M973.68-16.368c0 0-925.136-0.544-925.344-0.544-25.6-0.176-32.416 8.064-32.32 32.48 0.816 211.984-0.080 423.952 0.688 635.92 0.464 129.024 80 228 204.432 255.536 21.744 4.816 44.768 5.552 67.216 5.6-0.4 0.4 456.4 0.272 684.608 0.224 34.832 0 35.008-0.16 35.008-33.744 0.048-287.024 0.048-574.048 0-861.088 0-34.192-0.144-34.368-34.288-34.384zM945.936 817.696c-0.016 30.496-2.816 33.104-33.792 33.104 0.592 0-593.792 0.208-594.064-0.064-152.032 0-240.32-76.528-240.32-231.552 0-135.632-0.192-512.256-0.192-543.264s3.248-30.96 33.28-30.96c30.032 0 799.648 0 800.8 0 32.544 0.016 34.288 1.52 34.288 32.128 0 1.024 0 739.6 0 740.608zM775.184 347.024c-13.008 0-49.616-1.632-49.616-1.632 57.696-37.136 145.216-51.088 145.216-51.088l-8.912-2.832c-3.264-1.040-6.512-2.208-9.952-3.456-8.32-3.024-16.912-6.144-26.208-7.312-11.792-1.488-24.992-0.256-36.24 3.424-43.952 14.32-88.48 30.112-125.984 46.096l-16.384 8.224c-79.36-8.864-160.944-32.016-230.496-53.584l-2.368-0.736c-6.896-2.144-14.032-4.368-21.472-5.856l-1.008-0.208-1.216-0.016c-0.688 0-1.328 0.048-1.952 0.16-2.256-3.84-4.496-7.68-6.736-11.52-9.104-15.632-18.528-31.792-29.264-46.944-18.8-26.528-39.456-54.576-63.008-79.952-11.248-12.112-27.808-22.272-49.216-30.208-4.768-1.76-10.272-2.656-16.384-2.656-9.92 0-19.68 2.336-26.128 4.304-10.368 3.152-18.096 9.328-22.336 17.84-4.496 9.040-4.608 20.192-0.32 31.424 2.672 6.992 5.68 12.624 9.232 17.248 20.752 27.024 48.128 45.408 74.608 63.2 8.592 5.776 17.472 11.744 25.888 17.856l7.232 5.248-70.528-112.128c-4.032-4.64-7.12-9.504-8.976-14.096-0.304-0.752-0.448-1.84-0.544-3.072 0.768-0.096 1.424-0.176 2.032-0.16 0.016 0 0.016 0 0.032 0 9.68 5.856 20.608 13.024 29.088 22 44.704 47.424 83.584 102.096 118.832 167.12 18.464 34.064 35.744 69.6 52.448 103.968 14.448 29.712 29.392 60.448 45.104 90.24 8.24 15.632 6.288 28.224 2.352 45.664-9.104 40.416-16.976 81.728-24.576 121.664l-3.056 16.016c-1.84 9.6-1.856 19.392-1.728 28.608 0.544 36.48 21.456 59.136 54.592 59.136 2.752 0 5.616-0.16 8.496-0.48 11.52-1.264 22.016-7.52 29.536-17.6 10.48-14.048 14.368-34.48 10.384-54.64l-6.832-34.656-12.688 33.024c-1.648 4.304-3.152 8.544-4.608 12.704-3.216 9.136-6.256 17.776-10.496 25.28-1.568 2.768-5.552 6.048-7.92 7.232-2.656 0.208-5.984 0.208-8.544-6.688-3.088-40.112 12.032-123.456 19.488-139.424 7.472-15.984 23.952 54.8 23.952 54.8s0.512-74.16-8.208-100.032c0 0-1.824-11.952-0.64-15.312 24.080-68.208 66.176-122.768 125.104-162.192l14.448-8.912c11.088 0.176 22.384 0.416 33.824 0.656 25.6 0.544 52.048 1.088 78.784 1.088 17.12 0 32.592-0.224 47.312-0.688 5.328-0.448 10.336-1.888 15.184-3.632 18.176-5.472 26.016-13.248 26.016-13.248 11.312-6.848 24.144-50.816 24.144-50.816l-18.208 10.496c-25.232 14.56-53.168 21.056-90.576 21.056zM492.864 484.080l-12.448-24.944c-18.384-36.88-36.656-73.488-54.976-110.080-5.776-11.552-11.632-23.056-17.504-34.576 56.144 23.84 118.032 42.272 187.84 55.968-46 35.12-79.312 71.904-102.912 113.632z" />
<glyph unicode="&#xe14a;" d="M48.32-16.896c-25.6-0.176-32.416 8.064-32.32 32.48 0.832 211.968-0.064 423.936 0.704 635.904 0.464 129.024 80 228 204.432 255.536 21.744 4.816 44.768 5.552 67.216 5.6-0.4 0.4 456.4 0.272 684.608 0.224 34.832 0 35.008-0.16 35.008-33.744 0.048-287.024 0.048-574.048 0-861.088 0-34.208-0.144-34.384-34.288-34.384 0 0-925.152-0.528-925.36-0.528zM911.648 44.976c32.544 0.016 34.288 1.52 34.288 32.128 0 1.008 0 739.584 0 740.608-0.016 30.496-2.816 33.104-33.792 33.104 0.592 0-593.792 0.208-594.064-0.064-152.032 0-240.32-76.528-240.32-231.552 0-135.632-0.192-512.256-0.192-543.264s3.248-30.96 33.28-30.96 799.648 0 800.8 0zM598.288 225.216c-6.56-6.56-15.2-9.552-23.776-9.312-8.592-0.24-17.232 2.768-23.776 9.312l-186.8 132.736-168.672-225.76c-12.656-12.656-33.168-12.656-45.824 0s-12.656 33.168 0 45.808l183.264 245.264c6.816 6.816 15.872 9.648 24.8 9.12 8.912 0.528 17.984-2.304 24.8-9.12l187.376-133.152 259.088 288.176c12.656 12.656 33.168 12.656 45.824 0s12.656-33.168 0-45.824l-276.304-307.248zM326.48 587.264c-51.36 0-93.008 41.648-93.008 93.008s41.648 93.008 93.008 93.008c51.376 0 93.008-41.648 93.008-93.008s-41.632-93.008-93.008-93.008zM357.488 711.28h-62v-62h62v62z" />
<glyph unicode="&#xe14b;" d="M48.32-16.896c-25.6-0.176-32.416 8.064-32.32 32.48 0.832 211.968-0.064 423.936 0.704 635.904 0.464 129.024 80 228 204.432 255.536 21.744 4.816 44.768 5.552 67.216 5.6-0.4 0.4 456.4 0.272 684.608 0.224 34.832 0 35.008-0.16 35.008-33.744 0.048-287.024 0.048-574.048 0-861.088 0-34.208-0.144-34.384-34.288-34.384 0 0-925.152-0.528-925.36-0.528zM911.648 44.976c32.544 0.016 34.288 1.52 34.288 32.128 0 1.008 0 739.584 0 740.608-0.016 30.496-2.816 33.104-33.792 33.104 0.592 0-593.792 0.208-594.064-0.064-152.032 0-240.32-76.528-240.32-231.552 0-135.632-0.192-512.256-0.192-543.264s3.248-30.96 33.28-30.96 799.648 0 800.8 0zM672.048 584.88c-13.76 60.016-64.624 101.28-132.72 107.696-26.656 2.512-53.84 2.848-79.232 2.848-5.632 0-11.28-0.016-16.912-0.032-5.616-0.016-11.232-0.032-16.848-0.032-12.624 0-27.6 0.080-42.896 0.608-1.088 0.048-2.144 0.064-3.168 0.064-7.072 0-17.328-0.8-24.608-7.728-7.52-7.168-8.48-17.664-8.432-27.008 0.512-102.848 0.48-207.44 0.464-308.592-0.016-40.304-0.032-80.624 0-120.944 0-4.992 0.4-9.776 0.832-14.832 0.192-2.288 0.384-4.64 0.544-7.072l0.656-9.872h75.552v74.624c0 29.68-0.016 59.36 0.016 89.040 0.016 6.512 0.016 13.2 0.64 15.968 3.024 0.624 10.544 0.64 17.856 0.64h1.552c5.408 0 10.816-0.048 16.224-0.080 5.472-0.048 10.944-0.080 16.416-0.080 9.296 0 16.912 0.128 23.952 0.4 38.272 1.52 72.528 11.68 101.792 30.208 58.336 36.896 84.496 103.648 68.32 174.176zM425.232 561.376c-0.144 19.104-0.304 38.864 0.688 57.968 0.24 1.6 2.432 5.184 4.144 7.024 3.088-0.016 6.176-0.016 9.28-0.016h10.64c29.312 0 55.664-0.352 81.312-4.768 40.352-6.944 61.36-30.848 64.192-73.104 3.040-45.44-18.464-80.384-54.832-89.008-28.016-6.656-58.656-7.568-88.288-8.432-7.92-0.24-15.824-0.464-23.68-0.816-1.328 1.936-2.736 4.752-2.88 6.016-0.8 20.448-0.688 41.392-0.576 61.648 0.048 7.376 0.080 14.752 0.080 22.128 0.032 7.136-0.016 14.256-0.080 21.36z" />
<glyph unicode="&#xe14c;" d="M973.68-16.368c0 0-925.136-0.544-925.344-0.544-25.6-0.176-32.416 8.064-32.32 32.48 0.816 211.984-0.080 423.952 0.688 635.92 0.464 129.024 80 228 204.432 255.536 21.744 4.816 44.768 5.552 67.216 5.6-0.4 0.4 456.4 0.272 684.608 0.224 34.832 0 35.008-0.16 35.008-33.744 0.048-287.024 0.048-574.048 0-861.088 0-34.192-0.144-34.368-34.288-34.384zM945.936 817.696c0 30.496-2.816 33.104-33.792 33.104 0.592 0-593.792 0.208-594.064-0.064-152.032 0-240.32-76.528-240.32-231.552 0-135.632-0.192-512.256-0.192-543.264s3.248-30.96 33.28-30.96c30.032 0 799.648 0 800.8 0 32.544 0.016 34.288 1.52 34.288 32.128 0 1.024 0 739.6 0 740.608zM790.992 168.944h-558.064c-17.12 0-31.008 13.888-31.008 31.008s13.888 31.008 31.008 31.008h558.064c17.12 0 31.008-13.888 31.008-31.008s-13.888-31.008-31.008-31.008zM790.992 385.968h-558.064c-17.12 0-31.008 13.888-31.008 31.008s13.888 31.008 31.008 31.008h558.064c17.12 0 31.008-13.888 31.008-31.008-0.016-17.12-13.888-31.008-31.008-31.008zM790.992 602.992h-558.064c-17.12 0-31.008 13.888-31.008 31.008s13.888 31.008 31.008 31.008h558.064c17.12 0 31.008-13.872 31.008-31.008-0.016-17.136-13.888-31.008-31.008-31.008z" />
<glyph unicode="&#xe14d;" d="M48.32-16.912c-25.6-0.176-32.416 8.064-32.32 32.48 0.816 211.984-0.064 423.952 0.704 635.92 0.464 129.024 80 228 204.432 255.536 21.744 4.816 44.768 5.552 67.216 5.6-0.4 0.4 456.4 0.272 684.608 0.224 34.832 0 35.008-0.16 35.008-33.744 0.048-287.024 0.048-574.048 0-861.088 0-34.208-0.144-34.384-34.288-34.384 0 0-925.152-0.544-925.36-0.544zM911.648 44.976c32.544 0.016 34.288 1.52 34.288 32.128 0 1.008 0 739.584 0 740.608-0.016 30.496-2.816 33.104-33.792 33.104 0.592 0-593.792 0.208-594.064-0.064-152.032 0-240.32-76.528-240.32-231.552 0-135.632-0.192-512.256-0.192-543.264s3.248-30.96 33.28-30.96 799.648 0 800.8 0z" />
<glyph unicode="&#xe14e;" d="M973.68-16.368c0 0-925.136-0.544-925.344-0.544-25.6-0.176-32.416 8.064-32.32 32.48 0.816 211.984-0.080 423.952 0.688 635.92 0.464 129.024 80 228 204.432 255.536 21.744 4.816 44.768 5.552 67.216 5.6-0.4 0.4 456.4 0.272 684.608 0.224 34.832 0 35.008-0.16 35.008-33.744 0.048-287.024 0.048-574.048 0-861.088 0-34.192-0.144-34.368-34.288-34.384zM945.936 817.696c-0.016 30.496-2.816 33.104-33.792 33.104 0.592 0-593.792 0.208-594.064-0.064-152.032 0-240.32-76.528-240.32-231.552 0-135.632-0.192-512.256-0.192-543.264s3.248-30.96 33.28-30.96c30.032 0 799.648 0 800.8 0 32.544 0.016 34.288 1.52 34.288 32.128 0 1.024 0 739.6 0 740.608zM356.944 168.944v527.056l402.928-264.176-402.928-262.88zM410.672 593.136v-329.28l250.784 164.176h1.152l-251.936 165.104z" />
<glyph unicode="&#xe14f;" d="M973.68-16.368c0 0-925.136-0.544-925.344-0.544-25.6-0.176-32.416 8.064-32.32 32.48 0.816 211.984-0.080 423.952 0.688 635.92 0.464 129.024 80 228 204.432 255.536 21.744 4.816 44.768 5.552 67.216 5.6-0.4 0.4 456.4 0.272 684.608 0.224 34.832 0 35.008-0.16 35.008-33.744 0.048-287.024 0.048-574.048 0-861.088 0-34.192-0.144-34.368-34.288-34.384zM945.936 817.696c0 30.496-2.816 33.104-33.792 33.104 0.592 0-593.792 0.208-594.064-0.064-152.032 0-240.32-76.528-240.32-231.552 0-135.632-0.192-512.256-0.192-543.264s3.248-30.96 33.28-30.96c30.032 0 799.648 0 800.8 0 32.544 0.016 34.288 1.52 34.288 32.128 0 1.024 0 739.6 0 740.608zM674.368 288.496c10.736-17.184 21.472-34.384 32.24-51.536 2.608-4.16 5.184-8.336 8.432-13.616l13.936-22.608h-15.056c-5.824 0-11.2-0.176-16.256-0.336-4.64-0.144-9.008-0.288-13.2-0.288-7.328 0-13.008 0.432-18.384 1.392-10.080 1.808-23.712 8.32-29.824 18.368-27.28 44.896-54.272 90.96-80.384 135.52-8.704 14.848-17.408 29.696-26.128 44.528-0.112-0.208-0.24-0.416-0.352-0.624-4.624-8.144-8.992-15.84-13.664-23.456-9.488-15.488-19.088-30.928-28.672-46.368-20.72-33.328-42.128-67.792-62.096-102.256-7.36-12.704-18.72-27.28-41.392-27.28-2.72 0-5.6 0.208-8.576 0.624-3.040 0.416-6.304 0.608-10.576 0.608-3.040 0-6.24-0.096-9.664-0.192-4.112-0.128-8.56-0.24-13.44-0.24h-15.36l14 21.888c3.2 5.024 5.792 9.12 8.48 13.168 10.864 16.432 21.696 32.88 32.528 49.328 32.16 48.816 65.424 99.28 98.704 148.56 7.28 10.768 7.36 17.44 0.368 28.528-30.512 48.464-60.944 98.096-90.384 146.096-9.616 15.68-19.232 31.36-28.864 47.024-2.624 4.256-5.12 8.576-8.224 13.904-1.6 2.768-3.376 5.824-5.408 9.296l-7.456 12.72h14.672c5.936 0 11.616 0.128 17.088 0.256 5.216 0.128 10.24 0.24 15.136 0.24 9.264 0 16.416-0.4 23.2-1.312 11.2-1.504 19.904-14.528 23.12-20.064 22.528-38.704 45.104-78.208 66.928-116.416 10.112-17.696 20.208-35.392 30.352-53.072 0.56-0.976 1.2-1.952 1.952-3.024 0.064 0.112 0.128 0.224 0.192 0.352 4.176 7.328 8.112 14.24 12.176 20.96 8.592 14.208 17.296 28.336 26.032 42.48 19.6 31.76 39.856 64.592 58.080 97.728 14.832 26.96 32.816 36.672 59.984 32.24 2.784-0.448 6.64-0.4 11.6-0.24 2.896 0.096 6.128 0.192 9.904 0.192h14.192l-6.88-12.512c-1.744-3.184-3.264-6.032-4.656-8.64-2.704-5.072-5.040-9.456-7.696-13.68-8.816-14.032-17.6-28.064-26.4-42.096-30.848-49.232-62.736-100.16-94.8-149.808-8.208-12.704-8.336-20.24-0.56-32.256 30.88-47.744 61.472-96.72 91.056-144.080z" />
<glyph unicode="&#xe150;" d="M973.68-16.368c0 0-925.136-0.544-925.344-0.544-25.6-0.176-32.416 8.064-32.32 32.48 0.816 211.984-0.080 423.952 0.688 635.92 0.464 129.024 80 228 204.432 255.536 21.744 4.816 44.768 5.552 67.216 5.6-0.4 0.4 456.4 0.272 684.608 0.224 34.832 0 35.008-0.16 35.008-33.744 0.048-287.024 0.048-574.048 0-861.088 0-34.192-0.144-34.368-34.288-34.384zM418.944 850.864v-61.856l98.832 61.872c-35.92 0-69.616 0-98.832-0.016zM945.936 817.696c-0.016 30.496-2.816 33.104-33.792 33.104 0.304 0-150.944 0.048-300.864 0.064l-254.528-163.248v163.216c-24.24-0.016-38.624-0.048-38.672-0.096-152.032 0-240.32-76.528-240.32-231.552 0-135.632-0.192-512.256-0.192-543.264s3.248-30.96 33.28-30.96 799.648 0 800.8 0c32.544 0.016 34.288 1.52 34.288 32.128 0 1.024 0 739.6 0 740.608zM688.16 107.728h-321.408c-22.592 0-40.896 18.56-40.896 41.392v226.032c0 19.232 13.28 34.704 30.896 39.312v169.648l260.080-167.6h71.328c22.592 0 40.896-18.528 40.896-41.36v-226.032c0-22.832-18.304-41.392-40.896-41.392zM418.944 484.144v-67.632h107.904l-107.904 67.632zM667.824 334.176c0 11.392-9.152 20.624-20.448 20.624h-239.824c-11.296 0-20.448-9.232-20.448-20.624v-145.072c0-11.392 9.152-20.624 20.448-20.624h239.808c11.296 0 20.448 9.232 20.448 20.624v145.072zM527.456 199.152c-11.296 0-20.448 9.264-20.448 20.656v83.632c0 11.424 9.152 20.656 20.448 20.656s20.448-9.232 20.448-20.656v-83.632c0-11.392-9.152-20.656-20.448-20.656zM416.176 635.424l277.184 178.624v-356.384l-277.184 177.76zM507.712 636.352l123.456-77.296v155.024l-124.016-77.728h0.56z" />
<glyph unicode="&#xe151;" d="M508.528-48c-234.048 0-400.048 162.288-400.048 385.888 0 118.72 71.184 246.592 74.208 251.968 6.192 11.008 18.32 16.976 30.992 15.584 12.528-1.6 22.816-10.64 26.064-22.864 0.192-0.72 19.376-72.512 44.688-112.384 17.008-26.832 34.256-45.776 53.664-58.928-13.136 56.896-23.184 142.512-6.816 230.368 44.944 241.136 234.752 298.816 242.88 301.152 10.464 3.008 21.552 0.304 29.536-6.944 7.936-7.28 11.584-18.192 9.52-28.768-0.32-1.696-31.664-170.528 34.864-314.384 6.032-13.056 14.448-28.256 23.52-43.44 2.576 20.864 6.576 43.040 12.736 64.576 24.384 85.344 87.488 114.48 90.144 115.664 10.528 4.784 22.8 3.216 31.888-3.904 9.072-7.152 13.424-18.704 11.344-30.080-0.336-2.096-9.12-60.176 40.288-142.544 44.624-74.368 57.52-122.592 57.52-215.056 0-223.616-171.168-385.904-406.992-385.904zM205.152 490.992c-17.040-42.992-34.592-100.16-34.592-153.088 0-187.632 139.888-323.808 337.968-323.808 199.856 0 344.912 136.176 344.912 323.808 0 81.040-10 118.656-48.656 183.104-25.84 43.040-38.608 81.728-44.688 112.528-6.16-9.936-11.84-22.096-16.032-36.736-18.912-66.144-14.144-143.52-14.096-144.304 0.912-13.856-7.52-26.656-20.608-31.28-13.088-4.64-27.68-0.064-35.712 11.312-2.336 3.312-57.536 81.456-81.888 134.112-50.544 109.232-49.68 227.344-44.528 295.376-51.152-29.808-129.664-96.368-154.896-231.776-24.576-131.76 23.152-263.488 23.664-264.8 4.112-10.752 1.936-22.944-5.648-31.616-7.616-8.608-19.312-12.432-30.592-9.728-3.84 0.944-91.216 23.664-147.776 112.8-10.128 15.984-19.2 35.296-26.832 54.096z" />
<glyph unicode="&#xe152;" d="M682.272 324.816c-154.8 0-211.552 92.88-407.616 92.88-56.464 0-101.504-19.056-134.176-40.128v-394.608c0-17.104-13.856-30.96-30.944-30.96-17.104 0-30.96 13.856-30.96 30.96v865.568c0 0 77.392 95.472 203.84 95.472 196.064 0 237.328-92.88 392.128-92.88s270.88 92.88 270.88 92.88v-526.304c0 0-108.352-92.88-263.152-92.88zM883.52 836.512c-54.064-24.528-126.496-47.312-208.976-47.312-85.584 0-141.488 24.096-195.552 47.392-54.272 23.392-105.536 45.488-196.592 45.488-67.776 0-118.608-37.504-141.92-58.72v-374.864c36.384 17.792 81.264 31.104 134.176 31.104 115.792 0 188.496-29.232 252.608-55.008 52.608-21.168 94.144-37.872 155.008-37.872 92.128 0 166.256 39.696 201.232 62.512v387.28z" />
<glyph unicode="&#xe153;" d="M946-48h-868c-34.24 0-62 27.76-62 62v868c0 34.24 27.76 62 62 62h310c34.24 0 62-27.76 62-62v-62h496c34.24 0 62-27.76 62-62v-744c0-34.24-27.76-62-62-62zM915.008 758h-527.008v92.992c0 17.12-13.872 31.008-31.008 31.008h-248c-17.12 0-30.992-13.888-30.992-31.008v-154.992h837.008c17.12 0 30.992 13.872 30.992 30.992s-13.888 31.008-30.992 31.008zM946 572v62h-868v-588.992c0-17.12 13.888-30.992 30.992-30.992h806c17.12 0 30.992 13.872 30.992 30.992v526.992z" />
<glyph unicode="&#xe154;" d="M359.664 773.504l76.176-74.832 19.472-18.16h490.688v-558h-868v650.992h279.008zM388 835.504h-310c-34.24 0-62-27.76-62-62v-651.008c0-34.24 27.76-62 62-62h868c34.24 0 62 27.76 62 62v558c0 34.24-27.76 62-62 62h-464.992l-93.008 93.008z" />
<glyph unicode="&#xe155;" d="M976.992 60.496h-186c-17.12 0-31.008 13.872-31.008 31.008 0 17.12 13.888 31.008 31.008 31.008h155.008v155.008c0 17.12 13.888 30.992 31.008 30.992s31.008-13.872 31.008-30.992v-186c-0.016-17.136-13.888-31.024-31.024-31.024zM976.992 587.504c-17.12 0-31.008 13.872-31.008 30.992v155.008h-155.008c-17.12 0-31.008 13.872-31.008 31.008s13.888 31.008 31.008 31.008h186c17.12 0 31.008-13.872 31.008-31.008v-186c0.016-17.136-13.856-31.008-30.992-31.008zM233.008 60.496h-186c-17.136 0-31.008 13.888-31.008 31.008v186c0 17.12 13.872 30.992 31.008 30.992s31.008-13.872 31.008-30.992v-155.008h155.008c17.12 0 31.008-13.888 31.008-31.008-0.032-17.104-13.904-30.992-31.024-30.992zM233.008 773.504h-155.008v-155.008c0-17.12-13.872-30.992-31.008-30.992s-30.992 13.872-30.992 30.992v186c0 17.12 13.872 31.008 31.008 31.008h186c17.12 0 31.008-13.872 31.008-31.008s-13.888-30.992-31.008-30.992z" />
<glyph unicode="&#xe156;" d="M894.64-45.968c-11.952-4.608-25.632-1.248-34.176 8.352l-114.288 128.448-92.56-126.176c-5.84-7.968-15.136-12.656-24.992-12.656-9.904 0-19.168 4.72-25.008 12.672l-90.256 123.152-91.824-123.328c-5.84-7.872-15.072-12.496-24.848-12.496-0.064 0-0.128 0-0.208 0-9.872 0.048-19.104 4.816-24.88 12.8l-91.456 126.336-116.8-128.928c-6-6.624-14.4-10.192-22.976-10.192-3.744 0-7.536 0.672-11.136 2.080-11.952 4.608-19.856 16.096-19.856 28.912v529.44c0.016 237.936 180.608 431.552 402.608 431.552s402.624-193.616 402.624-431.552v-529.44c0-12.864-7.952-24.4-19.968-28.976zM852.624 512.448c0 203.776-152.816 369.568-340.64 369.568-187.792 0-340.608-165.792-340.608-369.568v-449.056l88.496 97.664c5.904 6.512 14.256 10.208 22.976 10.208 0.576 0 1.12-0.032 1.696-0.064 9.328-0.48 17.92-5.168 23.392-12.736l89.104-123.088 91.696 123.152c5.84 7.872 15.040 12.496 24.848 12.496 0.032 0 0.096 0 0.128 0 9.84-0.032 19.072-4.752 24.88-12.672l90.064-122.912 90.192 123.008c5.536 7.536 14.192 12.176 23.552 12.624 9.296 0.608 18.368-3.36 24.608-10.352l85.616-96.24v447.968zM666.96 479.152c-34.16 0-61.84 27.696-61.84 61.84 0 34.112 27.664 61.808 61.84 61.808s61.84-27.696 61.84-61.808c0-34.128-27.68-61.84-61.84-61.84zM357.040 479.152c-34.16 0-61.84 27.696-61.84 61.84 0 34.112 27.664 61.808 61.84 61.808s61.84-27.696 61.84-61.808c0-34.128-27.68-61.84-61.84-61.84z" />
<glyph unicode="&#xe157;" d="M852.992 788.992c0-242.544-136.224-441.472-310-462.864v-312.128h124c17.12 0 31.008-13.888 31.008-31.008s-13.888-30.992-31.008-30.992h-310c-17.12 0-31.008 13.888-31.008 30.992 0 17.12 13.888 31.008 31.008 31.008h124v312.128c-173.776 21.392-310 220.32-310 462.864 0 32.032 3.264 62.848 7.872 93.008h-7.872v62h682v-62h-7.872c4.624-30.16 7.872-60.976 7.872-93.008zM787.776 882h-551.552c-4.96-30-8.384-60.832-8.384-93.008 0-224.704 127.216-406.864 284.16-406.864s284.16 182.16 284.16 406.864c0 32.176-3.424 63.008-8.384 93.008z" />
<glyph unicode="&#xe158;" d="M541.712-46.064c-5.344-0.576-10.736-0.96-16.176-0.96-1.616 0-3.216 0.176-4.832 0.224-2.912-0.048-5.792-0.224-8.704-0.224-273.488 0-496 222.064-496 495.024s222.512 495.024 496 495.024c2.928 0 5.792-0.176 8.704-0.224 1.616 0.048 3.216 0.224 4.832 0.224 5.44 0 10.816-0.384 16.176-0.96 259.696-15.392 466.288-231.056 466.288-494.064 0-262.992-206.592-478.672-466.288-494.064zM888.288 232.144c-19.312 4.896-57.872 13.088-119.232 20.144-18.176-80.848-47.344-150.192-84.208-201.664 85.68 37.28 157.040 101.344 203.44 181.52zM480.16 541.376c-70.496 0.688-130.272 3.632-180.464 7.584-4.208-32.56-6.688-66.288-6.688-100.96 0-44.56 3.744-87.76 10.544-128.592 49.408 3.792 107.904 6.608 176.608 7.296v214.672zM541.904 326.72c69.104-0.656 127.248-3.568 176.064-7.504 6.608 40.88 10.224 84.16 10.224 128.784 0 34.752-2.416 68.544-6.48 101.168-49.552-4.096-108.912-7.12-179.792-7.808v-214.64zM705.28 258.336c-45.616 3.52-99.632 6.112-163.36 6.736v-246.064c70.688 20.56 131.808 113.648 163.36 239.328zM480.16 19.856v245.088c-62.864-0.656-117.424-3.056-163.504-6.448 32.096-124.048 93.6-216.4 163.504-238.64zM363.232 41.36c-45.44 52.464-83.232 125.664-106.608 211.872-59.424-6.208-99.696-13.424-122.208-18.208 50.608-88.72 131.536-158.096 228.816-193.664zM77.76 448c0-55.008 10.576-107.504 29.424-155.904 19.792 4.8 63.984 14 135.856 21.776-7.616 42.528-11.888 87.44-11.888 134.128 0 36.768 2.72 72.4 7.536 106.688-83.536 9.248-128.736 20.368-140.672 23.616-13.088-41.12-20.256-84.864-20.256-130.304zM121.168 636.048c16.848-4.048 58.88-12.88 128.672-20.448 22.4 98.048 63.248 181.152 113.392 239.056-106.24-38.864-193.072-117.936-242.064-218.608zM310.016 610.080c47.6-3.648 104.016-6.368 170.144-7.040v273.184c-75.024-23.824-140.464-128.32-170.144-266.144zM541.904 876.88v-273.872c66.912 0.64 122.992 3.424 169.824 7.168-29.12 139.52-94 244.688-169.824 266.704zM684.848 845.376c40.976-57.2 72.432-136.432 89.856-229.040 78.080 9.232 117.296 20.256 126.592 23.136-45.456 91.536-122.256 164.928-216.448 205.904zM783.824 555.376c3.952-34.496 6.128-70.368 6.128-107.376 0-46.96-3.44-92.112-9.712-134.864 75.632-8.864 118.56-19.584 135.472-24.512 19.648 49.344 30.528 103.104 30.528 159.376 0 57.824-11.584 112.928-32.272 163.392l10.384-29.248c-2.8-0.992-45.024-15.328-140.528-26.768z" />
<glyph unicode="&#xe159;" d="M511.328 78.704v-64.768h93.456c17.904 0 32.416-13.856 32.416-30.96s-14.512-30.96-32.416-30.96h-124.208c-0.016 0-0.016 0-0.032 0s-0.016 0-0.032 0h-120.88c-17.904 0-32.416 13.856-32.416 30.96s14.512 30.96 32.416 30.96h90.096v61.088c-0.192 0-0.368-0.016-0.56-0.016-60.528 0-119.344 11.36-174.816 33.776-15.872 6.384-23.536 24.48-17.12 40.384 6.4 15.872 24.512 23.568 40.384 17.12 48.016-19.392 99.008-29.232 151.552-29.232 234.992 0 405.568 170.544 405.568 405.536 0 141.408-74.8 269.872-200.128 343.584-14.784 8.704-19.696 27.728-11.024 42.48 8.672 14.784 27.696 19.76 42.48 11.024 144.464-85.008 230.72-233.456 230.72-397.088 0-249.696-167.136-436.192-405.456-463.888zM790.624 539.824c0-188.736-152.944-340.736-341.68-340.736-188.752 0-341.728 152-341.728 340.736 0 188.72 152.976 342.64 341.728 342.64 188.736 0 341.68-153.92 341.68-342.64zM448.944 820.416c-154.224 0-279.68-126.4-279.68-280.592s125.472-278.688 279.68-278.688c154.192 0 279.632 124.496 279.632 278.688 0 154.176-125.44 280.592-279.632 280.592z" />
<glyph unicode="&#xe15a;" d="M930.496 572c-11.168 0-21.712 2.464-31.312 6.704l-201.584-173.184c0.064-1.344 0.4-2.64 0.4-4.016 0-42.8-34.704-77.504-77.504-77.504-42.496 0-76.912 34.224-77.408 76.608l-144.752 72.576c-14.144-15.392-34.288-25.184-56.832-25.184-8.032 0-15.648 1.584-22.944 3.84l-153.328-176.24c3.664-9.008 5.76-18.8 5.76-29.104 0-42.8-34.704-77.504-77.504-77.504s-77.488 34.704-77.488 77.504 34.704 77.504 77.504 77.504c9.568 0 18.608-1.968 27.056-5.136l150.896 173.968c-4.656 9.952-7.44 20.944-7.44 32.672 0 42.8 34.704 77.504 77.504 77.504 40.912 0 74.080-31.824 76.944-72.016l147.984-74.080c13.984 13.632 33.008 22.096 54.080 22.096 18.256 0 34.8-6.576 48.048-17.136l188.928 162.672c-2.688 7.872-4.48 16.176-4.48 24.96 0 42.8 34.704 77.504 77.504 77.504s77.472-34.704 77.472-77.504c0-42.816-34.704-77.504-77.504-77.504z" />
<glyph unicode="&#xe15b;" d="M937.136-48h-283.424c-39.136 0-70.864 31.728-70.864 70.864v283.424c0 39.136 31.728 70.864 70.864 70.864h283.424c39.136 0 70.864-31.728 70.864-70.864v-283.424c0-39.136-31.728-70.864-70.864-70.864zM937.136 270.864c0 19.568-15.856 35.424-35.424 35.424h-212.576c-19.568 0-35.424-15.856-35.424-35.424v-212.576c0-19.568 15.856-35.424 35.424-35.424h212.576c19.568 0 35.424 15.872 35.424 35.424v212.576zM937.136 518.864h-283.424c-39.136 0-70.864 31.712-70.864 70.864v283.408c0.016 39.136 31.728 70.864 70.864 70.864h283.424c39.136 0 70.864-31.728 70.864-70.864v-283.424c0-39.136-31.728-70.848-70.864-70.848zM937.136 837.712c0 19.568-15.856 35.424-35.424 35.424h-212.576c-19.568 0-35.424-15.856-35.424-35.424v-212.576c0-19.568 15.856-35.424 35.424-35.424h212.576c19.568 0 35.424 15.856 35.424 35.424v212.576zM370.288-48h-283.424c-39.136 0-70.864 31.728-70.864 70.864v283.424c0 39.136 31.728 70.864 70.864 70.864h283.424c39.136 0 70.864-31.728 70.864-70.864v-283.424c-0.016-39.136-31.728-70.864-70.864-70.864zM370.288 270.864c0 19.568-15.856 35.424-35.424 35.424h-212.576c-19.568 0-35.424-15.856-35.424-35.424v-212.576c0-19.568 15.856-35.424 35.424-35.424h212.576c19.568 0 35.424 15.872 35.424 35.424v212.576zM370.288 518.864h-283.424c-39.136 0-70.864 31.712-70.864 70.848v283.424c0 39.136 31.728 70.864 70.864 70.864h283.424c39.136 0 70.864-31.728 70.864-70.864v-283.424c-0.016-39.136-31.728-70.848-70.864-70.848zM370.288 837.712c0 19.568-15.856 35.424-35.424 35.424h-212.576c-19.568 0-35.424-15.856-35.424-35.424v-212.576c0-19.568 15.856-35.424 35.424-35.424h212.576c19.568 0 35.424 15.856 35.424 35.424v212.576z" />
<glyph unicode="&#xe15c;" d="M989.84-24.48c-9.744-10.736-27.984-23.52-59.808-23.52h-844.8c-22.448 0-39.952 6.832-51.984 20.272-12.752 14.288-17.76 34.544-14.896 60.224l74.736 487.552c7.008 61.824 64.576 113.2 128.16 113.2h74.16v82.464c0.016 125.904 91.728 228.288 217.536 228.288 125.84 0 215.632-102.384 215.632-228.256v-82.464h68.32c63.584 0 121.152-51.376 128.352-114.544l80.656-487.184c2.944-28.848-7.152-46.192-16.064-56.032zM666.688 715.744c0 91.728-62.048 166.368-153.744 166.368-91.68 0-155.632-74.64-155.632-166.368v-82.464h309.376v82.464zM864.032 510.032c-3.952 34.032-34.576 61.344-67.12 61.344h-68.32v-70.528c18.448-10.72 30.992-30.464 30.992-53.328 0-34.176-27.712-61.888-61.888-61.888s-61.888 27.712-61.888 61.888c0 22.832 12.496 42.56 30.896 53.28v70.576h-309.392v-70.576c18.4-10.72 30.896-30.448 30.896-53.28 0-34.176-27.712-61.888-61.888-61.888s-61.888 27.712-61.888 61.888c0 22.864 12.544 42.608 30.992 53.328v70.528h-74.16c-32.544 0-63.168-27.312-66.88-59.648l-74.72-487.504c-1.232-7.488 4.080-10.336 9.392-10.336l843.76 0.416c9.072 0 12.176 5.040 11.792 9.008l-80.576 486.72z" />
<glyph unicode="&#xe15d;" d="M978.704 796.848l-126.256 126.24c-27.888 27.888-73.104 27.888-101.008 0l-683.552-683.568 0.768-0.768-44.272-286.752 270.752 60.272 683.568 683.568c27.888 27.888 27.888 73.104 0 101.008zM254.992 73.136l-145.2-32.88 33.232 173.408 507.424 507.408 126.24-126.24-521.696-521.696zM827.2 645.312l-126.256 126.256 91.792 91.792 126.256-126.256-91.792-91.792z" />
<glyph unicode="&#xe15e;" d="M294.448 842.928c30.336 0 85.168-14.912 174.128-104.832l44.096-44.576 43.44 45.296c61.76 64.416 127.472 104.432 171.504 104.432 59.376 0 106.176-20.848 151.808-67.6 42.992-44.048 66.688-102.592 66.688-164.896 0.032-62.32-23.648-120.928-67.104-165.456-3.536-3.696-190.448-210.72-347.072-384.256-7.36-7.2-15.824-8.288-20.272-8.288-4.416 0-12.768 1.056-20.112 8.032-38.16 43.584-314.768 359.344-346.928 392.336-43.040 44.096-66.736 102.688-66.736 165.008 0.016 62.288 23.696 120.848 66.752 164.928 41.856 42.96 90.88 59.872 149.808 59.872zM294.448 906.448c-74 0-139.232-22.72-193.552-78.432-113.2-115.904-113.2-303.872 0-419.84 32.32-33.168 346.016-391.424 346.016-391.424 17.872-18.368 41.328-27.52 64.736-27.52s46.816 9.152 64.672 27.52c0 0 343.12 380.192 346.784 384 113.184 115.984 113.184 303.952 0 419.856-56.176 57.568-118.96 86.144-195.488 86.144-73.12 0-154.704-59.872-215.616-123.408-62.848 63.552-141.888 123.104-217.552 123.104v0z" />
<glyph unicode="&#xe15f;" d="M263.44 895.088c34.656 0 97.312 31.232 198.96-71.056l50.384-50.704 49.632 51.504c70.56 73.264 145.648 70.592 195.952 70.592 67.84 0 121.312-23.712 173.44-76.88 49.12-50.080 76.192-116.656 76.192-187.504 0.032-70.88-27.024-137.536-76.672-188.176-4.048-4.192-217.6-239.664-396.544-437.024-8.4-8.192-18.080-9.424-23.168-9.424-5.056 0-14.592 1.2-22.976 9.136-43.6 49.568-359.648 408.688-396.4 446.224-49.168 50.144-76.24 116.784-76.24 187.664 0.016 70.848 27.088 137.44 76.272 187.568 47.84 48.864 103.84 68.080 171.168 68.080z" />
<glyph unicode="&#xe160;" d="M512-48c-273.936 0-496 222.064-496 496s222.064 496 496 496 496-222.064 496-496c0-273.936-222.064-496-496-496zM636 32.24c139.792 41.68 249.728 151.984 291.376 291.76h-201.040c-21.728-37.44-52.896-68.72-90.336-90.464v-201.296zM697.632 447.808c0 102.624-83.104 185.808-185.632 185.808s-185.648-83.2-185.648-185.808c0-102.624 83.12-185.824 185.648-185.824s185.632 83.2 185.632 185.824zM450 18.944c20.304-2.912 40.896-4.944 62-4.944s41.696 2.016 62 4.944v189.2c-19.856-5.12-40.56-8.144-62-8.144s-42.144 3.024-62 8.144v-189.2zM388 32.24v201.296c-37.44 21.744-68.624 53.024-90.336 90.464h-201.040c41.648-139.792 151.584-250.080 291.376-291.76zM82.976 386h189.408c-5.104 19.792-8.048 40.448-8.048 61.84 0 21.504 2.96 42.272 8.112 62.16h-189.44c-2.928-20.32-4.72-41.008-4.72-62.144 0.016-21.040 1.792-41.632 4.688-61.856zM388 863.472c-139.68-41.648-249.584-151.824-291.296-291.472h201.12c21.712 37.312 52.832 68.464 90.176 90.16v201.312zM574 876.768c-20.304 2.912-40.896 4.928-62 4.928s-41.696-2.016-62-4.928v-189.232c19.856 5.12 40.56 8.144 62 8.144s42.144-3.008 62-8.144v189.232zM636 863.472v-201.328c37.344-21.68 68.464-52.848 90.176-90.16h201.12c-41.712 139.664-151.616 249.84-291.296 291.488zM751.552 510c5.152-19.888 8.112-40.656 8.112-62.16 0-21.392-2.944-42.048-8.048-61.84h189.408c2.896 20.224 4.672 40.816 4.672 61.856 0 21.12-1.792 41.824-4.72 62.144h-189.424z" />
<glyph unicode="&#xe161;" d="M512-48c-273.936 0-496 222.048-496 496 0 273.936 222.064 496 496 496 273.952 0 496-222.064 496-496 0-273.952-222.048-496-496-496zM512 882c-239.312 0-434-194.688-434-434s194.688-434.976 434-434.976c239.312 0 434 195.664 434 434.976s-194.688 434-434 434zM645.472 270.416l-153.44 153.44c-0.4 0.4-0.512 0.928-0.88 1.328-6.192 5.664-10.16 13.744-10.16 22.8v310.016c0 17.12 13.872 31.008 31.008 31.008 17.12 0 31.008-13.872 31.008-31.008v-297.424l146.32-146.32c12.112-12.112 12.112-31.728 0-43.84-12.112-12.096-31.744-12.096-43.856 0z" />
<glyph unicode="&#xe162;" d="M1003.456 423.008c-2.768-3.488-6.864-5.2-11.184-5.104v0h-142.4v-435.184c0-9.088-7.408-16.528-16.528-16.528h-222.512c-9.136 0-16.528 7.44-16.528 16.528v269.648h-157.152v-269.648c0-9.088-7.408-16.528-16.528-16.528h-221.536c-4.56 0-8.704 1.904-11.696 4.896-2.992 2.976-4.848 7.088-4.848 11.616v435.2l-150.064 0.032c-4.208 0.032-8.432 1.76-11.68 5.072-6.336 6.608-6.464 16.928 0 23.392l479.632 478.56c6.464 6.464 16.928 6.464 23.392 0l479.632-478.56c6.464-6.464 5.632-16.192 0-23.392zM512.128 835.904l-368.928-360.56 53.408 0.064v-0.672c2.288 0 36.272-0.464 38.256-1.264 5.936-2.544 10.096-8.384 10.096-15.232v-428.672h128.784v269.152c0 9.136 7.408 16.528 16.528 16.528h252.368c9.136 0 16.528-7.376 16.528-16.528v-269.152h127.296v426.944c0 6.832 4.16 12.688 10.096 15.232 1.984 0.816 4.16 1.264 6.432 1.264v1.184l92.72-1.184-383.584 362.896z" />
<glyph unicode="&#xe163;" d="M823.408 881.952h-62.544v-208.944c0-101.248-54.944-177.856-172.736-237.824 122.272-61.872 173.712-137.872 173.712-251.264 0-73.856-0.336-135.808-0.576-169.856h62.144c17.152 0 31.024-13.872 31.024-31.024s-13.888-31.024-31.024-31.024h-622.816c-17.152 0-31.024 13.872-31.024 31.024s13.888 31.024 31.024 31.024h63.952c-0.224 34.048-0.576 96-0.576 169.856 0 113.392 50.704 189.376 172.784 251.264-117.6 59.984-171.824 136.592-171.824 237.824v208.944h-64.352c-17.152 0-31.024 13.872-31.024 31.024s13.888 31.024 31.040 31.024h622.832c17.152 0 31.024-13.872 31.024-31.024s-13.888-31.024-31.040-31.024zM326.016 183.92c0-74 0.336-136 0.576-169.856h372.624c0.24 33.856 0.576 95.872 0.576 169.856 0 86.304-32.112 153.264-187.376 217.648-155.184-64.384-186.4-131.344-186.4-217.648zM698.832 881.952h-371.84v-208.944c0-59.536 20.032-136.208 185.424-204.208 165.44 68 186.4 144.672 186.4 204.208v208.944z" />
<glyph unicode="&#xe164;" d="M946-48h-868c-34.24 0-62 27.76-62 62v868c0 34.24 27.76 62 62 62h868c34.24 0 62-27.76 62-62v-868c0-34.24-27.76-62-62-62zM946 850.992c0 17.12-13.888 30.992-30.992 30.992h-806.016c-17.12 0-30.992-13.872-30.992-30.992v-806c0-17.12 13.888-30.992 30.992-30.992h806c17.12 0 30.992 13.872 30.992 30.992v806zM597.776 209.984c-6.544-6.56-15.2-9.552-23.776-9.312-8.592-0.24-17.232 2.768-23.776 9.312l-186.784 132.72-168.656-225.728c-12.656-12.656-33.152-12.656-45.808 0-12.64 12.656-12.64 33.168 0 45.808l183.232 245.232c6.816 6.816 15.872 9.648 24.8 9.12 8.912 0.528 17.984-2.304 24.8-9.12l187.344-133.136 259.056 288.128c12.656 12.64 33.168 12.64 45.808 0 12.656-12.656 12.656-33.168 0-45.808l-276.24-307.216zM326 572c-51.36 0-92.992 41.632-92.992 93.008 0 51.36 41.632 92.992 92.992 92.992s92.992-41.632 92.992-92.992c0.016-51.376-41.632-93.008-92.992-93.008zM356.992 696h-62v-62h62v62z" />
<glyph unicode="&#xe165;" d="M651.232 385.328c-70.336 0-134.4 26.24-183.472 69.232 0.496-8.528-2.224-17.184-8.736-23.68l-167.024-167.968 131.616-134.064c12.112-12.096 12.112-31.728 0-43.824s-31.744-12.096-43.84 0l-131.488 133.936-79.92-80.368 131.248-133.68c12.112-12.096 12.112-31.712 0-43.824-12.112-12.096-31.744-12.096-43.84 0l-152.016 154.832c-0.112 0.112-0.144 0.288-0.272 0.4-0.192 0.192-0.464 0.24-0.656 0.432-12.112 12.096-12.112 31.728 0 43.824l312.352 314.112c6.608 6.592 15.392 9.264 24.032 8.672-41.68 48.816-66.992 112.048-66.992 181.296-0.032 154.272 124.896 279.344 279.008 279.344s279.040-125.072 279.040-279.344c-0.016-154.272-124.944-279.328-279.040-279.328zM651.232 882.032c-119.408 0-217.024-97.088-217.024-216.912s97.616-216.896 217.024-216.896c119.408 0 217.024 97.088 217.024 216.896 0 119.824-97.616 216.912-217.024 216.912z" />
<glyph unicode="&#xe166;" d="M605.568-48c-281.888 0-284.064 11.68-318.976 37.984-18.528 13.936-53.456 23.568-181.072 31.872-9.264 0.608-18.064 4.144-23.968 11.328-2.704 3.312-66.48 96.304-66.48 245.264 0 146.784 45.648 213.696 47.6 216.8 5.664 9.056 15.6 14.576 26.288 14.576 104.784 0 250.032 133.744 347.696 367.248 16.896 40.384 20.384 66.928 82.416 66.928 35.296 0 74.832-25.264 94.368-57.664 40.032-66.192 19.712-208.416 0.88-284.432 63.968 0.512 179.76 1.392 234.864 1.392 76.656 0 127.36-45.696 128.912-112.528 0.512-22.048-2.4-50.224-8.784-64.768 16.88-16.816 38.656-42.208 39.584-74.88 1.184-42.16-26.432-74.304-44.064-92.704 4.016-12.272 12.144-28.528 11.344-47.984-1.936-47.824-38.864-78.672-61.872-94.736 1.904-13.088 3.392-37.776-0.784-56.848-16.608-76.224-128.336-106.848-307.952-106.848zM122 84.768c111.152-9.184 170.576-21.648 201.92-45.232 24.272-18.272 20.528-25.504 281.664-25.504 79.664 0 235.424 3.328 247.36 58 4.752 21.872-18.288 43.376-18.384 43.52-6.304 15.536 0.72 33.776 16.080 40.496 0.24 0.112 62.144 22.32 63.568 56.912 0.912 22.144-14.272 35.44-14.624 35.984-9.024 14.016-5.728 33.264 7.968 42.8 0.16 0.128 40.288 24.448 39.328 57.616-0.752 26.32-35.472 44.864-36.528 45.456-7.744 4.448-13.392 12.112-15.136 20.896-1.76 8.768 0.208 17.968 5.664 25.056 0 0 15.744 25.072 15.2 48.576-1.152 50.336-55.28 51.92-66.88 51.92-78.24 0-279.168-0.8-279.168-0.8-10.848-0.032-20.208 5.072-26.032 13.728-5.808 8.672-6.256 19.424-2.832 29.296 30.288 87.28 47.216 224.16 19.104 270.928-8.272 13.792-10.176 27.568-41.184 27.568-4.304 0-14.528-3.376-25.184-28.832-103.696-247.952-258.496-391.36-385.28-404.32-10.944-24.944-31.504-76.608-31.504-170.368-0.016-95.696 30.304-169.744 44.88-193.696z" />
</font>
</defs>
</svg>
