<?xml version="1.0" standalone="no"?>
<!DOCTYPE svg PUBLIC "-//W3C//DTD SVG 1.1//EN" "http://www.w3.org/Graphics/SVG/1.1/DTD/svg11.dtd" >
<svg xmlns="http://www.w3.org/2000/svg">
<metadata>Generated by IcoMoon</metadata>
<defs>
<font id="iconform" horiz-adv-x="512">
<font-face units-per-em="512" ascent="480" descent="-32" />
<missing-glyph horiz-adv-x="512" />
<glyph unicode="&#x20;" d="" horiz-adv-x="256" />
<glyph unicode="&#xe200;" d="M488.504-24h-93c-8.56 0-15.504 6.936-15.504 15.496s6.936 15.504 15.504 15.504h77.504v77.496c0 8.56 6.936 15.504 15.504 15.504 8.56 0 15.504-6.936 15.504-15.504v-93c-0.016-8.552-6.96-15.496-15.512-15.496zM411 84.496h-31v279.008h31v-279.008zM488.504 348c-8.56 0-15.504 6.944-15.504 15.504v77.496h-77.504c-8.56 0-15.504 6.944-15.504 15.504 0.008 8.56 6.944 15.496 15.512 15.496h93c8.552 0 15.496-6.936 15.496-15.496v-93c0-8.56-6.944-15.504-15.496-15.504zM287 363.504h31v-279h-31v279zM194 363.504h31v-279h-31v279zM116.496-24h-92.992c-8.568 0-15.504 6.944-15.504 15.496v93c0 8.56 6.936 15.504 15.504 15.504s15.504-6.936 15.504-15.504v-77.496h77.496c8.56 0 15.504-6.944 15.504-15.504-0.008-8.552-6.944-15.496-15.512-15.496zM132 84.496h-31v279.008h31v-279.008zM116.496 441h-77.496v-77.496c0-8.56-6.936-15.504-15.504-15.504s-15.496 6.944-15.496 15.496v93.008c0 8.56 6.936 15.496 15.504 15.496h93c8.56 0 15.504-6.936 15.504-15.496-0.008-8.56-6.944-15.504-15.512-15.504z" />
<glyph unicode="&#xe201;" d="M473-23.944h-434c-17.12 0-31 13.88-31 31v387.504c0 17.12 13.88 31 31 31h123.896v30.888c0 8.568 6.936 15.496 15.496 15.496 8.568 0 15.504-6.936 15.504-15.496v-30.888h124v30.888c0 8.568 6.936 15.496 15.496 15.496 8.568 0 15.504-6.936 15.504-15.496v-30.888h124.104c17.12 0 31-13.88 31-31v-387.496c0-17.128-13.88-31.008-31-31.008zM473 394.56h-124.104v-15.616c0-8.568-6.936-15.496-15.504-15.496s-15.496 6.928-15.496 15.496v15.616h-124v-15.616c0-8.568-6.936-15.496-15.504-15.496s-15.496 6.928-15.496 15.496v15.616h-123.896v-387.496h434v387.496zM116.496 286.056h31c8.56 0 15.504-6.936 15.504-15.496v-31c0-8.56-6.936-15.504-15.504-15.504h-31c-8.56 0-15.496 6.944-15.496 15.504v31c0 8.56 6.936 15.496 15.496 15.496zM116.496 162.056h31c8.56 0 15.504-6.936 15.504-15.496v-31c0-8.56-6.936-15.496-15.504-15.496h-31c-8.56 0-15.496 6.936-15.496 15.496v31c0 8.56 6.936 15.496 15.496 15.496zM240.496 286.056h31c8.56 0 15.496-6.936 15.496-15.496v-31c0-8.56-6.944-15.504-15.496-15.504h-31c-8.56 0-15.504 6.944-15.504 15.504v31c0.008 8.56 6.944 15.496 15.504 15.496zM240.496 162.056h31c8.56 0 15.496-6.936 15.496-15.496v-31c0-8.56-6.944-15.496-15.496-15.496h-31c-8.56 0-15.504 6.936-15.504 15.496v31c0.008 8.56 6.944 15.496 15.504 15.496zM364.496 286.056h31c8.56 0 15.496-6.936 15.496-15.496v-31c0-8.56-6.936-15.504-15.496-15.504h-31c-8.56 0-15.496 6.944-15.496 15.504v31c0 8.56 6.936 15.496 15.496 15.496zM364.496 162.056h31c8.56 0 15.496-6.936 15.496-15.496v-31c0-8.56-6.936-15.496-15.496-15.496h-31c-8.56 0-15.496 6.936-15.496 15.496v31c0 8.56 6.936 15.496 15.496 15.496z" />
<glyph unicode="&#xe202;" d="M473-8.496h-434c-17.12 0-31 13.872-31 31v340.992c0 17.12 13.88 31 31 31h77.504l15.496 31c0 0 13.88 31 31 31h186c17.12 0 31-31 31-31l15.496-31h77.504c17.12 0 31-13.88 31-31v-341c0-17.12-13.88-30.992-31-30.992zM473 348c0 8.56-6.944 15.504-15.496 15.504h-78.504c0.344 1.296 1 2.504 1 3.872l-24.8 38.752c0 0-11.104 19.376-24.8 19.376h-148.8c-13.696 0-24.8-19.376-24.8-19.376l-24.8-38.752c0-1.376 0.656-2.584 1-3.872h-78.504c-8.56 0-15.496-6.944-15.496-15.504v-310c0-8.56 6.944-15.496 15.496-15.496h403c8.56 0 15.496 6.936 15.496 15.496v310zM256 84.504c-68.48 0-124 55.52-124 124 0 68.488 55.52 124 124 124s124-55.52 124-124c0-68.488-55.52-124-124-124zM256 301.496c-51.36 0-93-41.64-93-93s41.632-93 93-93c51.36 0 93 41.64 93 93 0 51.368-41.64 93-93 93z" />
<glyph unicode="&#xe203;" d="M473-24h-434c-17.12 0-31 13.88-31 31v434c0 17.12 13.88 31 31 31h434c17.12 0 31-13.88 31-31v-434c0-17.12-13.88-31-31-31zM473 425.504c0 8.56-6.936 15.496-15.496 15.496h-403c-8.56 0-15.504-6.936-15.504-15.496v-403c0-8.56 6.944-15.504 15.504-15.504h403c8.56 0 15.496 6.944 15.496 15.504v403z" />
<glyph unicode="&#xe204;" d="M473 472h-434c-17.12 0-31-13.88-31-31v-434c0-17.12 13.88-31 31-31h434c17.12 0 31 13.88 31 31v434c0 17.12-13.88 31-31 31zM383.328 291.168l-153.528-153.52c-0.512-0.736-0.816-1.568-1.472-2.224-3.056-3.048-7.080-4.464-11.080-4.36-4-0.096-8.024 1.312-11.072 4.36-0.656 0.648-0.96 1.48-1.472 2.216l-76.024 76.024c-5.912 5.912-5.912 15.496 0 21.408s15.496 5.912 21.408 0l67.168-67.168 144.664 144.672c5.912 5.912 15.496 5.912 21.408 0s5.912-15.496 0-21.408z" />
<glyph unicode="&#xe205;" d="M473-24h-434c-17.12 0-31 13.88-31 31v434c0 17.12 13.88 31 31 31h434c17.12 0 31-13.88 31-31v-434c0-17.12-13.88-31-31-31zM473 425.504c0 8.56-6.944 15.496-15.496 15.496h-403.008c-8.56 0-15.496-6.936-15.496-15.496v-403c0-8.56 6.944-15.496 15.496-15.496h403c8.56 0 15.496 6.944 15.496 15.496v403zM229.8 137.648c-0.512-0.736-0.816-1.568-1.472-2.224-3.056-3.048-7.080-4.456-11.080-4.36-4-0.096-8.024 1.312-11.072 4.36-0.656 0.656-0.96 1.48-1.472 2.216l-76.032 76.032c-5.912 5.912-5.912 15.496 0 21.408s15.496 5.912 21.408 0l67.168-67.168 144.672 144.664c5.912 5.912 15.496 5.912 21.4 0 5.912-5.912 5.912-15.496 0-21.408l-153.52-153.52z" />
<glyph unicode="&#xe206;" d="M473-24h-434c-17.12 0-31 13.88-31 31v434c0 17.12 13.88 31 31 31h434c17.12 0 31-13.88 31-31v-434c0-17.12-13.88-31-31-31zM473 425.504c0 8.56-6.944 15.496-15.496 15.496h-403.008c-8.56 0-15.496-6.936-15.496-15.496v-403c0-8.56 6.944-15.496 15.496-15.496h403c8.56 0 15.496 6.944 15.496 15.496v403zM364.32 100.2h-216.64c-8.544 0-15.472 6.928-15.472 15.48v216.648c0 8.544 6.928 15.472 15.472 15.472h216.64c8.544 0 15.472-6.928 15.472-15.472v-216.648c0.008-8.552-6.92-15.48-15.472-15.48z" />
<glyph unicode="&#xe207;" d="M256-24c-136.968 0-248 111.032-248 248s111.032 248 248 248c136.968 0 248-111.032 248-248s-111.032-248-248-248zM256 441c-119.848 0-217-97.152-217-217s97.152-217 217-217c119.848 0 217 97.152 217 217s-97.152 217-217 217zM229.8 137.648c-0.512-0.736-0.824-1.568-1.472-2.224-3.056-3.048-7.080-4.456-11.080-4.36-4-0.096-8.024 1.312-11.072 4.36-0.656 0.656-0.96 1.48-1.472 2.216l-76.032 76.032c-5.912 5.912-5.912 15.496 0 21.408s15.496 5.912 21.408 0l67.168-67.168 144.672 144.664c5.912 5.912 15.496 5.912 21.4 0 5.912-5.912 5.912-15.496 0-21.408l-153.52-153.52z" />
<glyph unicode="&#xe208;" d="M256-24c-136.968 0-248 111.032-248 248s111.032 248 248 248c136.968 0 248-111.032 248-248s-111.032-248-248-248zM383.328 311.848c-5.912 5.912-15.496 5.912-21.4 0l-144.68-144.664-67.168 67.168c-5.912 5.912-15.496 5.912-21.408 0s-5.912-15.496 0-21.408l76.032-76.032c0.512-0.736 0.816-1.56 1.472-2.216 3.048-3.048 7.072-4.464 11.072-4.36 4-0.104 8.024 1.312 11.080 4.36 0.656 0.656 0.968 1.488 1.472 2.216l153.528 153.528c5.912 5.92 5.912 15.496 0 21.408z" />
<glyph unicode="&#xe209;" d="M457.504-8.504c0-8.56-6.944-15.504-15.504-15.504h-372c-8.56 0-15.496 6.944-15.496 15.504v465.008c-0.008 8.56 6.936 15.496 15.496 15.496l270.84-0.144 116.512-116.512 0.152-363.848zM302.504 348v93h-201.504c-8.56 0-15.496-6.944-15.496-15.504v-403c0-8.56 6.936-15.504 15.496-15.504h310c8.56 0 15.496 6.936 15.496 15.504v294.504h-124v31zM333.496 433.808v-85.808h85.808l-85.808 85.808z" />
<glyph unicode="&#xe20a;" d="M473-24h-434c-17.12 0-31 13.88-31 31v434c0 17.12 13.88 31 31 31h155c17.12 0 31-13.88 31-31v-31h248c17.12 0 31-13.88 31-31v-372c0-17.12-13.88-31-31-31zM457.504 379h-263.504v46.496c0 8.56-6.936 15.504-15.504 15.504h-124c-8.56 0-15.496-6.944-15.496-15.504v-77.496h418.504c8.56 0 15.496 6.936 15.496 15.496s-6.944 15.504-15.496 15.504zM473 286v31h-434v-294.496c0-8.56 6.944-15.496 15.496-15.496h403c8.56 0 15.496 6.936 15.496 15.496v263.496z" />
<glyph unicode="&#xe20b;" d="M489.352 398.424l-63.128 63.12c-13.944 13.944-36.552 13.944-50.504 0l-341.776-341.784 0.384-0.384-22.136-143.376 135.376 30.136 341.784 341.784c13.944 13.944 13.944 36.552 0 50.504zM127.496 36.568l-72.6-16.44 16.616 86.704 253.712 253.704 63.12-63.12-260.848-260.848zM413.6 322.656l-63.128 63.128 45.896 45.896 63.128-63.128-45.896-45.896z" />
<glyph unicode="&#xe20c;" d="M473-24h-434c-17.12 0-31 13.88-31 31v434c0 17.12 13.88 31 31 31h434c17.12 0 31-13.88 31-31v-434c0-17.12-13.88-31-31-31zM473 425.496c0 8.56-6.944 15.496-15.496 15.496h-403.008c-8.56 0-15.496-6.936-15.496-15.496v-403c0-8.56 6.944-15.496 15.496-15.496h403c8.56 0 15.496 6.936 15.496 15.496v403zM298.888 104.992c-3.272-3.28-7.6-4.776-11.888-4.656-4.296-0.12-8.616 1.384-11.888 4.656l-93.392 66.36-84.328-112.864c-6.328-6.328-16.576-6.328-22.904 0-6.32 6.328-6.32 16.584 0 22.904l91.616 122.616c3.408 3.408 7.936 4.824 12.4 4.56 4.456 0.264 8.992-1.152 12.4-4.56l93.672-66.568 129.528 144.064c6.328 6.32 16.584 6.32 22.904 0 6.328-6.328 6.328-16.584 0-22.904l-138.12-153.608zM163 286c-25.68 0-46.496 20.816-46.496 46.504 0 25.68 20.816 46.496 46.496 46.496s46.496-20.816 46.496-46.496c0.008-25.688-20.816-46.504-46.496-46.504zM178.496 348h-31v-31h31v31z" />
<glyph unicode="&#xe20d;" d="M256-24c-136.968 0-248 111.032-248 248s111.032 248 248 248c136.968 0 248-111.032 248-248s-111.032-248-248-248zM256 441c-119.848 0-217-97.152-217-217s97.152-217 217-217 217 97.152 217 217-97.152 217-217 217zM411 115.496c-18.8-24.432-32.96 21.8-31 31s-2.944-12.272-15.504 15.496-50.52 20.72-31 31c19.52 10.28 1.592 46.456 31 46.496s40.976-3.528 46.504 0c5.52 3.528-8.992 38.696-15.504 31s-24.408-13.776-31 0c-6.592 13.768-10.032-1.064-15.504 15.504-5.464 16.568-27.312 16.632-15.504 31 11.816 14.368 33.12-2.568 31 15.496-2.128 18.072-41.384-11.872 0 46.504 0 0 7.344-4.592 31-31s42.744-62.88 46.504-108.504-12.192-99.552-30.992-123.992zM258.752 75.744c-0.584-11.512-25.448-17.056-35.368-22.72-9.92-5.656-33.416-28.448-35.368-3.784 0 0 4.344 20.32-3.928 26.504s-39.056 35.144-31.44 45.432c7.616 10.288 20.456 26.904 11.792 30.288s-21.408 2.44-35.368 18.928c-13.96 16.488-42.568 16.592-43.224 37.864s-17.568 16.16-15.72 41.648 16.216 50.784 27.512 64.368c11.288 13.576 23.832 30.808 23.576 37.856-0.248 7.048 5.936 14.6 11.792 15.144 5.848 0.544 13.36 7.568 19.648 11.36s-10.128-29.896 3.928-30.288c14.056-0.384 28.48-0.52 27.504-7.568s-11.008-12.168-11.792-18.928c-0.784-6.768 20.488-4.344 35.368-7.568 14.88-3.24 18.568-18.4 19.648-26.504s-20.144-10.736-19.648-18.928c0.496-8.2-14.264-3.608-23.576-7.576s-17.832-19.592-15.72-26.504c2.112-6.904-6.36-24.52-3.928-34.072 2.424-9.56-18.408-9.32-15.72-18.928s6.304-28.088 23.576-26.504c17.28 1.584 38.424 4.424 43.224 0 4.808-4.432 15.256-15.72 27.512-15.144 12.248 0.576 9.256-5.352 19.648-11.36s28.328-10.112 23.584-18.928c-4.744-8.832-26.92-22.576-27.512-34.088z" />
<glyph unicode="&#xe20e;" d="M480.776 419.584h-449.552c-12.808 0-23.224-10.4-23.224-23.192v-344.768c0-12.8 10.416-23.208 23.224-23.208h449.552c12.8 0 23.224 10.416 23.224 23.208v344.768c0 12.792-10.416 23.192-23.224 23.192zM38.376 375.872l146.92-146.752-146.904-113.84-0.016 260.592zM38.392 77.12l168.432 130.528 36.696-36.648c8.768-8.76 24.064-8.768 32.84 0l33.256 33.216 163.872-127-0.728-18.432-434.368 0.848v17.488zM253.648 203.816l-185.632 185.408h383.832l-185.624-185.408c-3.36-3.352-9.224-3.36-12.576 0zM473.616 368.008v-252.728l-142.496 110.424 142.496 142.304z" />
<glyph unicode="&#xe20f;" d="M488.504-24h-93c-8.56 0-15.504 6.936-15.504 15.496s6.936 15.504 15.504 15.504h77.504v77.504c0 8.56 6.936 15.504 15.504 15.504 8.56 0 15.504-6.936 15.504-15.504v-93c-0.016-8.568-6.96-15.504-15.512-15.504zM488.504 348c-8.56 0-15.504 6.936-15.504 15.504v77.496h-77.504c-8.56 0-15.504 6.944-15.504 15.504 0.008 8.552 6.944 15.496 15.512 15.496h93c8.552 0 15.496-6.944 15.496-15.504v-93c0-8.56-6.944-15.496-15.496-15.496zM116.496 441h-77.496v-77.496c0-8.56-6.936-15.504-15.504-15.504s-15.496 6.936-15.496 15.504v92.992c0 8.56 6.936 15.504 15.504 15.504h93c8.56 0 15.504-6.944 15.504-15.504-0.008-8.56-6.944-15.496-15.512-15.496zM85.656 69v310c0 8.56 6.944 15.496 15.504 15.496h309.736c8.56 0 15.504-6.936 15.504-15.496v-310c0-8.56-6.936-15.504-15.504-15.504h-309.736c-8.568 0-15.504 6.944-15.504 15.504zM116.656 100c0-8.56 6.944-15.496 15.504-15.496h247.736c8.56 0 15.504 6.936 15.504 15.496v248c0 8.56-6.936 15.504-15.504 15.504h-247.736c-8.56 0-15.504-6.936-15.504-15.504v-248zM23.504 100c8.56 0 15.504-6.936 15.504-15.504v-77.504h77.496c8.56 0 15.504-6.944 15.504-15.504s-6.936-15.496-15.504-15.496h-93c-8.568 0.008-15.504 6.944-15.504 15.504v93c0 8.568 6.936 15.504 15.504 15.504z" />
<glyph unicode="&#xe210;" d="M256-24c-136.968 0-248 111.032-248 248s111.032 248 248 248 248-111.032 248-248c0-136.968-111.032-248-248-248zM256 441c-119.848 0-217-97.152-217-217s97.152-217 217-217 217 97.152 217 217c0 119.848-97.152 217-217 217z" />
<glyph unicode="&#xe211;" d="M256-24c-136.968 0-248 111.032-248 248s111.032 248 248 248 248-111.032 248-248c0-136.968-111.032-248-248-248zM256 441c-119.848 0-217-97.152-217-217s97.152-217 217-217 217 97.152 217 217c0 119.848-97.152 217-217 217zM259.496 109.744c-67 0-121.32 54.312-121.32 121.32 0 67 54.312 121.312 121.32 121.312s121.32-54.312 121.32-121.312c0-67.008-54.312-121.32-121.32-121.32z" />
<glyph unicode="&#xe212;" d="M256 472c-136.968 0-248-111.032-248-248 0-136.96 111.032-248 248-248s248 111.040 248 248c0 136.968-111.032 248-248 248zM259.496 109.744c-67 0-121.32 54.312-121.32 121.32 0 67 54.312 121.312 121.32 121.312s121.32-54.32 121.32-121.312c0-67.008-54.312-121.32-121.32-121.32z" />
<glyph unicode="&#xe213;" d="M256-24c-136.968 0-248 111.032-248 248s111.032 248 248 248c136.968 0 248-111.032 248-248s-111.032-248-248-248z" />
<glyph unicode="&#xe214;" d="M270.344 78.448v-74.032h120.856c7.92 0 14.352-6.36 14.352-14.208-0.008-7.84-6.432-14.208-14.352-14.208h-270.4c-7.92 0-14.344 6.368-14.344 14.216s6.424 14.208 14.344 14.208h120.864v74.032c-94.464 7.352-156.16 86.664-156.16 183.304v39.64c0 7.848 6.424 14.208 14.344 14.208s14.344-6.36 14.344-14.208v-39.64c0-85.8 55.064-155.616 141.808-155.616s141.808 69.808 141.808 155.616v39.64c0 7.848 6.424 14.208 14.344 14.208s14.352-6.36 14.352-14.208v-39.64c0-96.64-61.704-175.952-156.16-183.312zM256 155.864c-68.312 0-92.88 54.984-92.88 122.576v70.984c0 67.592 24.576 122.576 92.88 122.576s92.88-54.984 92.88-122.576v-70.984c0-67.592-24.568-122.576-92.88-122.576zM320.192 349.424c0 51.92-11.696 94.152-64.192 94.152-52.488 0-64.2-42.232-64.2-94.152v-70.984c0-51.92 11.704-94.152 64.2-94.152s64.192 42.232 64.192 94.152v70.984z" />
<glyph unicode="&#xe215;" d="M498.68-18.68c-7.096-7.088-18.592-7.088-25.688 0l-120.12 120.12c-36.496-30.696-83.544-49.248-134.968-49.248-115.928 0-209.904 93.976-209.904 209.904s93.976 209.904 209.904 209.904 209.904-93.976 209.904-209.904c0-51.424-18.552-98.464-49.248-134.968l120.12-120.12c7.096-7.096 7.096-18.592 0-25.688zM389.64 262.096c0 94.848-76.888 171.736-171.736 171.736s-171.736-76.888-171.736-171.736c0-94.848 76.888-171.736 171.736-171.736s171.736 76.888 171.736 171.736z" />
<glyph unicode="&#xe216;" d="M237.776 185.68l-133.168 133.168c-7.064 7.064-18.52 7.064-25.592 0-7.064-7.064-7.064-18.528 0-25.592l163.224-163.224c0.312-0.36 0.416-0.824 0.76-1.16 0.56-0.56 1.36-0.568 1.968-1.032 1.92-1.552 4-2.648 6.264-3.296 0.872-0.232 1.64-0.392 2.536-0.488 5.416-0.744 11.064 0.656 15.232 4.824 0.36 0.36 0.48 0.832 0.8 1.208l163.176 163.176c7.064 7.064 7.064 18.528 0 25.592s-18.52 7.064-25.592 0l-133.16-133.176c0 0-9.656-10.352-19.032-10.352-8.832 0-17.416 10.352-17.416 10.352z" />
<glyph unicode="&#xe217;" d="M256-24c-136.968 0-248 111.032-248 248s111.032 248 248 248c136.968 0 248-111.032 248-248s-111.032-248-248-248zM256 441c-119.848 0-217-97.152-217-217s97.152-217 217-217c119.848 0 217 97.152 217 217s-97.152 217-217 217zM372.552 193.36h-147.184v147.184c0 8.36 6.776 15.136 15.136 15.136s15.136-6.776 15.136-15.136v-116.912h116.912c8.36 0 15.136-6.776 15.136-15.136 0-8.352-6.776-15.128-15.136-15.136z" />
<glyph unicode="&#xe218;" d="M364.504 76.752h-217c-77.048 0-139.504 62.456-139.504 139.496v15.504c0 77.040 62.456 139.496 139.504 139.496h217c77.040 0 139.504-62.456 139.504-139.496v-15.504c-0.008-77.040-62.464-139.496-139.504-139.496zM473 231.88c0 59.848-48.52 108.368-108.368 108.368h-217.264c-59.848 0-108.368-48.52-108.368-108.368v-15.768c0-59.848 48.52-108.368 108.368-108.368h217.264c59.848 0 108.368 48.52 108.368 108.368v15.768zM161.136 143.744c-45.288 0-82.008 36.816-82.008 82.224 0 45.416 36.72 82.224 82.008 82.224 45.296 0 82.008-36.816 82.008-82.224s-36.712-82.224-82.008-82.224z" />
<glyph unicode="&#xe219;" d="M364.504 76.752h-217c-77.048 0-139.504 62.456-139.504 139.496v15.504c0 77.040 62.456 139.496 139.504 139.496h217c77.040 0 139.504-62.456 139.504-139.496v-15.504c-0.008-77.040-62.464-139.496-139.504-139.496zM473.48 231.616c0 59.848-48.52 108.368-108.368 108.368h-217.92c-59.848 0-108.368-48.52-108.368-108.368v-15.504c0-59.848 48.52-108.368 108.368-108.368h217.928c59.848 0 108.368 48.52 108.368 108.368v15.504zM351.16 143.712c-45.36 0-82.136 36.768-82.136 82.128s36.776 82.136 82.136 82.136c45.36 0 82.136-36.768 82.136-82.136 0-45.36-36.776-82.128-82.136-82.128z" />
<glyph unicode="&#xe21a;" d="M501.104 213.576c-50.968-95.784-142.448-152.968-244.72-152.968-102.224 0-193.984 57.152-245.448 152.872-3.944 7.352-3.92 16.192 0.088 23.512 51.488 94.176 143.504 150.408 246.144 150.408 102.776 0 193.984-56.336 243.968-150.688 3.824-7.248 3.824-15.904-0.032-23.136zM257.2 356.272c-89.4 0-170.264-48.696-219.080-131.056 48.8-83.888 129.36-133.488 218.216-133.488 88.896 0 169.216 49.656 217.512 133.632-47.368 82.264-127.344 130.912-216.648 130.912zM256 145.84c-44.44 0-80.6 36.048-80.6 80.344s36.16 80.352 80.6 80.352 80.6-36.040 80.6-80.344-36.16-80.352-80.6-80.352zM255.976 272.632c-25.744 0-46.688-20.944-46.688-46.688s20.944-46.688 46.688-46.688 46.688 20.944 46.688 46.688-20.944 46.688-46.688 46.688z" />
<glyph unicode="&#xe21b;" d="M473-23.944h-434c-17.12 0-31 13.88-31 31v387.504c0 17.12 13.88 31 31 31h123.888v30.888c0 8.568 6.936 15.496 15.496 15.496 8.568 0 15.504-6.936 15.504-15.496v-30.888h124v30.888c0 8.568 6.936 15.496 15.504 15.496s15.496-6.936 15.496-15.496v-30.888h124.112c17.12 0 31-13.88 31-31v-387.496c0-17.128-13.88-31.008-31-31.008zM473 394.56h-124.112v-15.616c0-8.568-6.928-15.496-15.496-15.496s-15.504 6.928-15.504 15.496v15.616h-124v-15.616c0-8.568-6.936-15.496-15.504-15.496s-15.496 6.928-15.496 15.496v15.616h-123.888v-387.496h434v387.496zM319.696 260.912l-76.736-159.336h-36.28l76.456 152.36v0.56h-85.384v28.464h121.944v-22.048z" />
<glyph unicode="&#xe21c;" d="M392.152-2.56h-326.976v453.088h326.976v-163.056l23.664 23.656v163.032h-374.288v-500.32h374.288v87.928l-23.664-23.72zM149.88 415.080h157.584v-23.664h-157.584v23.664zM101.728 354.008h246.232v-13.32h-246.232v13.32zM101.728 314.168h246.232v-13.384h-246.232v13.384zM101.728 273.224h246.232v-13.352h-246.232v13.352zM414.632 221.96c2.552 2.552 2.552 6.704 0 9.256-2.56 2.552-6.696 2.552-9.256 0l-101.792-101.792c-15.328-15.336-15.328-40.192 0-55.528 15.336-15.32 40.192-15.32 55.528 0l129.552 129.56c20.44 20.44 20.44 53.584 0 74.032-20.448 20.448-53.584 20.448-74.032 0l-148.056-148.064c-25.552-25.56-25.552-66.984 0-92.544 25.552-25.552 66.976-25.552 92.544 0l120.296 120.304c2.552 2.552 2.552 6.696 0 9.256-2.56 2.552-6.696 2.552-9.256 0l-120.296-120.304c-20.448-20.432-53.592-20.432-74.032 0-20.44 20.44-20.44 53.584 0 74.032l148.056 148.056c15.336 15.328 40.192 15.328 55.528 0 15.328-15.336 15.328-40.192 0-55.52l-129.552-129.544c-10.224-10.216-26.8-10.216-37.016 0s-10.216 26.792 0 37.016l101.784 101.784zM101.728 218.352h224.816l13.68 13.288h-238.496z" />
</font>
</defs>
</svg>
