<?xml version="1.0" encoding="utf-8"?>
<!-- Generator: Adobe Illustrator 19.0.0, SVG Export Plug-In . SVG Version: 6.00 Build 0)  -->
<svg version="1.1" id="图层_1" xmlns="http://www.w3.org/2000/svg" xmlns:xlink="http://www.w3.org/1999/xlink" x="0px" y="0px"
	 viewBox="214 -92.1 1024 1024" style="enable-background:new 214 -92.1 1024 1024;" xml:space="preserve">
<style type="text/css">
	.st0{fill:#697292;}
	.st1{clip-path:url(#SVGID_2_);}
	.st2{fill:#D9CEB0;}
	.st3{fill:none;stroke:#919191;stroke-width:2;stroke-miterlimit:10;}
	.st4{fill:none;stroke:#919191;stroke-width:2;stroke-miterlimit:10;stroke-dasharray:2.9858,2.9858;}
</style>
<g>
	<g>
		<path class="st0" d="M717.7,673.9c80.4,1.1,120.6-56.7,120.6-173.4C837,385.1,797,326.7,717.7,325.6
			c-79.1,3.2-119.9,61.6-122.1,174.9C596.7,615.1,637.3,672.9,717.7,673.9z M717.7,365.2c46.2-2.2,68.8,43.4,67.7,137
			c0,91.3-22.6,136.4-67.7,135.3c-45.3,1.1-67.7-44-67.7-135.3C649.9,409.7,672.6,364.1,717.7,365.2z"/>
		<polygon class="st0" points="362.3,844.2 361.9,844.2 308,757.4 297,757.4 297,848.8 304.4,848.8 304.4,762.5 305.1,762.5 
			358.5,848.8 369.3,848.8 369.3,757.4 362.3,757.4 		"/>
		<polygon class="st0" points="600.7,848.5 608.1,848.5 608.1,804.7 656.1,804.7 656.1,798.6 608.1,798.6 608.1,763.5 662.9,763.5 
			662.9,757.5 600.7,757.5 		"/>
		<path class="st0" d="M463.5,668.9h46.2v-75.9l44.5,0v-38h-44.5V327.2h-46.2L298.4,561.5v31.4h165.1V668.9z M348,555.1l117-169.7
			l0.2,169.7H348z"/>
		<polygon class="st0" points="482.7,763.4 515.7,763.4 515.7,848.4 522.6,848.4 522.6,763.4 555.4,763.4 555.4,757.4 482.7,757.4 
					"/>
		<path class="st0" d="M430.2,756c-28.3,1.5-43.3,17.6-44.8,48c1.2,28.9,15.9,44.2,43.9,45.7c28.3-1.2,43.1-16.6,44.3-46.2
			C471.5,773.7,457,757.8,430.2,756z M428.8,844.2c-22.9-1.5-35-15.1-36.2-40.6c1.5-25.3,13.9-39,36.6-41.1
			c23.1,1.8,35.3,15.6,36.5,41.1C464.7,829.4,452.2,843,428.8,844.2z"/>
		<rect x="1092.2" y="837" class="st0" width="10.9" height="10.9"/>
		<rect x="1058.3" y="837" class="st0" width="10.9" height="10.9"/>
		<path class="st0" d="M1077.4,327.2h-46.2L866.1,561.5v31.4h165.1v75.9h46.2v-75.9h44.7v-38h-44.7V327.2z M1032.7,555.1h-117
			l117-169.7V555.1z"/>
		<rect x="1125.9" y="837" class="st0" width="10.9" height="10.9"/>
		<path class="st0" d="M997.5,757.4h-33.4v91h32.5c29.6,0.6,44-14.5,43.4-45.3C1039,773.6,1024.9,758.3,997.5,757.4z M996.5,843.5
			h-25.1v-80.1H997c23.4,0.9,35.6,14.2,36.2,39.9C1033.2,830.1,1020.9,843.5,996.5,843.5z"/>
		<path class="st0" d="M844.9,810.5c0.3,22.6-9.5,33.9-29.7,33.9c-19.6,0-29.1-11.2-28.8-33.9v-53h-6.9v53
			c-0.3,26.5,11.7,39.6,35.7,39.3c24.6,0.3,36.8-12.8,36.6-39.3v-53h-6.9V810.5z"/>
		<path class="st0" d="M719.5,756c-28.3,1.5-43.3,17.6-44.8,48c1.2,28.9,15.9,44.2,43.9,45.7c28.3-1.2,43.1-16.6,44.3-46.2
			C760.8,773.7,746.3,757.8,719.5,756z M718.3,844.2c-22.9-1.5-35-15.1-36.2-40.6c1.4-25.3,13.7-39,36.5-41.1
			c23.2,1.8,35.4,15.6,36.6,41.1C754.2,829.4,741.7,843,718.3,844.2z"/>
		<polygon class="st0" points="937.4,844.2 937,844.2 883.1,757.4 872.1,757.4 872.1,848.8 879.5,848.8 879.5,762.5 880,762.5 
			933.4,848.8 944.3,848.8 944.3,757.4 937.4,757.4 		"/>
	</g>
	<g>
		<g>
			<g>
				<g>
					<defs>
						<polygon id="SVGID_1_" points="1034.3,-11.1 1060.9,135.5 1210.7,88.1 						"/>
					</defs>
					<clipPath id="SVGID_2_">
						<use xlink:href="#SVGID_1_"  style="overflow:visible;"/>
					</clipPath>
					<g class="st1">
						
							<image style="overflow:visible;enable-background:new    ;" width="641" height="561" xlink:href="DCD1CD4.jpg"  transform="matrix(1.5373 0 0 1.5369 225.7156 -11.888)">
						</image>
					</g>
				</g>
			</g>
		</g>
		<g>
			<g>
				<polygon id="SVGID_3_" class="st2" points="1052.4,88.1 1211.8,88.1 1042.1,34.6 1012.6,68.5 				"/>
			</g>
		</g>
		<g>
			<g>
				<path class="st3" d="M260.7,225.4c0,0,0.3-0.8,1.1-2"/>
				<path class="st4" d="M263.9,219.3c12.9-23.1,63.4-104.9,140.6-116.2C494.4,89.8,554.6,227.1,668,207.4
					C779.7,187.8,875.8,51.1,984.7,63"/>
				<path class="st3" d="M986.8,63.3c0.8,0.2,1.5,0.2,2.3,0.3"/>
			</g>
		</g>
	</g>
</g>
</svg>
