<?xml version="1.0" encoding="utf-8"?>
<!-- Generator: Adobe Illustrator 19.0.0, SVG Export Plug-In . SVG Version: 6.00 Build 0)  -->
<svg version="1.1" id="图层_1" xmlns="http://www.w3.org/2000/svg" xmlns:xlink="http://www.w3.org/1999/xlink" x="0px" y="0px"
	 viewBox="214 -92.1 1024 1024" style="enable-background:new 214 -92.1 1024 1024;" xml:space="preserve">
<style type="text/css">
	.st0{clip-path:url(#SVGID_3_);}
	.st1{fill:#D9CEB0;}
	.st2{fill:#6D7594;}
	.st3{fill:none;stroke:#919191;stroke-width:2;stroke-miterlimit:10;}
	.st4{fill:none;stroke:#919191;stroke-width:2;stroke-miterlimit:10;stroke-dasharray:2.9858,2.9858;}
</style>
<g>
	<g>
		<g>
			<g>
				<defs>
					<polygon id="SVGID_2_" points="1031.7,-11.1 1058.4,135.6 1208.3,88.1 					"/>
				</defs>
				<clipPath id="SVGID_3_">
					<use xlink:href="#SVGID_2_"  style="overflow:visible;"/>
				</clipPath>
				<g class="st0">
					
						<image style="overflow:visible;enable-background:new    ;" width="641" height="561" xlink:href="A2B12C3E.jpg"  transform="matrix(1.5385 0 0 1.5381 222.5768 -11.8865)">
					</image>
				</g>
			</g>
		</g>
	</g>
	<g>
		<g>
			<polygon id="SVGID_1_" class="st1" points="1049.9,88.1 1209.4,88.1 1039.6,34.7 1010,68.6 			"/>
		</g>
	</g>
	<g>
		<path class="st2" d="M511.4,786.3c-0.8-12.8-8.8-19.4-24.2-19.9h-33.3v71.8h5.4v-32.5h23.4l26.7,32.5h7.6l-27.7-32.5
			C503.8,805,511.2,798.5,511.4,786.3z M459.1,801.1v-30h26c13.6,0,20.2,4.9,20.2,14.9c0.3,10.3-6.5,15.4-20.2,15.1H459.1z"/>
		<polygon class="st2" points="391.7,803.4 435.4,803.4 435.4,798.8 391.7,798.8 391.7,771.1 437.9,771.1 437.9,766.4 386.3,766.4 
			386.3,838.3 439.7,838.3 439.7,834.2 391.7,834.1 		"/>
		<path class="st2" d="M996.5,685.5c80.3,1.1,120.5-56.7,120.7-173.5c-1.2-115.6-41.3-174-120.7-175c-79.2,3.2-120,61.6-122.2,175
			C875.3,626.7,916,684.5,996.5,685.5z M996.5,376.6c46.2-2.2,68.7,43.6,67.8,137.1c0,91.4-22.7,136.5-67.8,135.4
			c-45.3,1.1-67.8-44.1-67.8-135.4C928.7,421.1,951.3,375.5,996.5,376.6z"/>
		<path class="st2" d="M431.6,649.2c-40.8,0-65-21.4-72.7-64.4l-49.6,11.6c15.4,59.5,56.7,89.2,123.9,89.2
			c77-2.2,116.8-40.7,119-115.6C548.7,499.4,512.3,463,443,460.9c-28.7,0-52.4,8.9-71,26.5l10-100.8h151.9v-43.1H339l-14.8,185.1
			l39.6,1.7c14.3-20.8,36.4-31.9,66.1-33c46.2,1.1,70,26.3,71,76C498.7,620.5,475.6,645.9,431.6,649.2z"/>
		<path class="st2" d="M345.9,798.8c-15.1-2.5-22.5-7.2-22-14.5c1.2-8.8,7.9-13.6,20.2-14c12,0.3,19,5.5,20.8,16l6.2-1.8
			c-2.6-12.5-11.7-18.8-27.4-19.1c-16.3,0.5-24.8,6.8-25.6,19.1c-0.5,10,8.2,16.5,26,19.1c16.2,2.2,23.9,7.4,23.1,15.6
			c-0.9,10-8,15.4-21.3,15.9c-14.3,0-22.7-6.6-24.5-19.6l-6.2,2.2c3.4,14.9,13.7,22.2,31.1,21.7c16.5-0.8,25.4-7.2,26.7-19.6
			C373.6,808.2,364.7,801.3,345.9,798.8z"/>
		<polygon class="st2" points="552.8,834.4 525.4,766.4 519.5,766.4 549.9,838.3 555.3,838.3 586.1,766.4 579.9,766.4 		"/>
		<path class="st2" d="M886.6,786.3c-0.8-12.8-8.8-19.4-24.2-19.9h-33.3v71.8h5.4v-32.5h23.4l26.7,32.5h7.6l-27.7-32.5
			C879,805,886.4,798.5,886.6,786.3z M834.4,801.1v-30h26c13.6,0,20.3,4.9,20.2,14.9c0.3,10.3-6.5,15.4-20.2,15.1H834.4z"/>
		<path class="st2" d="M959.5,786.3c-0.8-12.8-8.8-19.4-24.2-19.9H902v71.8h5.4v-32.5h23.4l26.8,32.5h7.6l-27.7-32.5
			C952.1,805,959.5,798.5,959.5,786.3z M907.4,801.1v-30h26c13.4,0,20.2,4.9,20.2,14.9c0.3,10.3-6.5,15.4-20.2,15.1H907.4z"/>
		<path class="st2" d="M1006.8,765.4c-22.5,1.2-34.2,13.9-35.4,37.9c0.9,22.8,12.5,34.8,34.7,36.1c22.3-0.9,34.1-13.1,35.1-36.4
			C1039.4,779.4,1027.9,766.8,1006.8,765.4z M1005.7,835c-18-1.2-27.6-12-28.5-32.2c1.1-20,10.8-30.8,28.8-32.5
			c18.3,1.4,27.9,12.3,29,32.5C1034.1,823.3,1024.2,834.1,1005.7,835z"/>
		<path class="st2" d="M712.3,685.5c80.3,1.1,120.5-56.7,120.7-173.5c-1.2-115.6-41.3-174-120.7-175c-79.2,3.2-120,61.6-122.2,175
			C591.2,626.7,631.9,684.5,712.3,685.5z M712.3,376.6c46.2-2.2,68.7,43.6,67.8,137.1c0,91.4-22.7,136.5-67.8,135.4
			c-45.3,1.1-67.8-44.1-67.8-135.4C644.5,421.1,667.2,375.5,712.3,376.6z"/>
		<path class="st2" d="M1111.6,786.3c-0.8-12.8-8.8-19.4-24.2-19.9h-33.3v71.8h5.4v-32.5h23.4l26.7,32.5h7.6l-27.7-32.5
			C1104.2,805,1111.4,798.5,1111.6,786.3z M1059.5,801.1v-30h26c13.4,0,20.2,4.9,20.2,14.9c0.3,10.3-6.5,15.4-20.2,15.1H1059.5z"/>
		<polygon class="st2" points="766.9,803.4 810.6,803.4 810.6,798.8 766.9,798.8 766.9,771.1 813.1,771.1 813.1,766.4 761.5,766.4 
			761.5,838.3 814.9,838.3 814.9,834.2 766.9,834.1 		"/>
		<polygon class="st2" points="600.8,803.4 644.5,803.4 644.5,798.8 600.8,798.8 600.8,771.1 647,771.1 647,766.4 595.4,766.4 
			595.4,838.3 648.8,838.3 648.8,834.2 600.8,834.1 		"/>
		<path class="st2" d="M720.5,786.3c-0.8-12.8-8.8-19.4-24.2-19.9H663v71.8h5.4v-32.5h23.4l26.7,32.5h7.6l-27.7-32.5
			C712.9,805,720.3,798.5,720.5,786.3z M668.2,801.1v-30h26c13.6,0,20.2,4.9,20.2,14.9c0.3,10.3-6.5,15.4-20.2,15.1H668.2z"/>
	</g>
	<g>
		<g>
			<path class="st3" d="M257.6,225.6c0,0,0.3-0.8,1.1-2"/>
			<path class="st4" d="M260.8,219.4c12.9-23.1,63.5-104.9,140.7-116.3c90-13.3,150.2,124.2,263.6,104.5
				C777,188,873.2,51.2,982.1,63"/>
			<path class="st3" d="M984.3,63.3c0.8,0.2,1.5,0.2,2.3,0.3"/>
		</g>
	</g>
</g>
</svg>
