<?xml version="1.0" encoding="utf-8"?>
<!-- Generator: Adobe Illustrator 17.0.0, SVG Export Plug-In . SVG Version: 6.00 Build 0)  -->
<!DOCTYPE svg PUBLIC "-//W3C//DTD SVG 1.1//EN" "http://www.w3.org/Graphics/SVG/1.1/DTD/svg11.dtd">
<svg version="1.1" id="图层_1" xmlns="http://www.w3.org/2000/svg" xmlns:xlink="http://www.w3.org/1999/xlink" x="0px" y="0px"
	 width="1024px" height="1024px" viewBox="0 0 1024 1024" enable-background="new 0 0 1024 1024" xml:space="preserve">
<g>
	<path fill="#C6CED2" d="M506.4,714.2c266,0,482.1,36.6,482.1,81.9s-215.6,81.9-482.1,81.9S24.3,841.3,24.3,796.1
		S240.4,714.2,506.4,714.2z"/>
	<g>
		<path fill="#F9F5ED" d="M374.2,541.3c0,0,91.5-79.3,186.1,1.5c0,123.6,0,226.3,0,226.3l-185.1-1.5L374.2,541.3z"/>
	</g>
	<g>
		<path fill="#1DA5EC" d="M734.3,588.1c0,0-28.5,11.7-86.5,47.8c-17.8-27.5-72.7-95.1-72.7-95.1s0,0-0.5,0l0,0h-13.7
			c0,0,0,0.5-0.5,1c-5.1,1-11.2,3.6-16.8,7.6c4.6,0,8.6,0,13.2,0c-15.8,36.6-36.1,71.2-53.4,98.2c-10.7,16.3-21.9,33.1-34.6,48.3
			c-1,1.5-2,2-2,2s-58-78.3-89-148.5c3.1,0,6.6,0,9.7,0l-11.2-3.1c-1.5-3.1-2-5.1-2-5.1l-18.3-0.5c0,0,0,0,0,0.5
			c-7.1,5.1-59.5,44.2-95.1,147.5c-30,87.5-41.2,113.9-41.2,113.9s58,14.7,111.9,27.5c-0.5,13.2-1,25.9-1.5,38.1
			c133.2,27,259.9,0,259.9,0s-0.5-76.8-1-125.1c0-5.1-0.5-11.7-0.5-18.8c24.9,28,46.3,37.6,61,34.6c23.9-4.6,90-33.6,119.5-51.9
			c29.5-18.3,31-25.4,31-25.4L734.3,588.1z"/>
	</g>
	<g>
		<path fill="#F9DAB4" d="M786.6,675.5c0,0,35.6,9.7,65.6-16.8c30-26.4,65.6-63.1,72.2-76.8c6.6-13.7,6.1-44.8-13.7-38.1
			c8.6-27-2.5-49.3-33.1-39.7c7.1-31-6.6-38.1-16.3-40.2c-9.2-2-38.1,27.5-45.3,37.1c-7.1,10.2-25.4,29-25.4,29s-2-27.5-11.2-35.6
			s-29-21.4-29,5.1c0,27,1.5,40.7,1.5,40.7s-24.4,32-14.2,63.1C754.6,658.2,786.6,675.5,786.6,675.5z"/>
	</g>
	<path fill="#F9DAB4" d="M334,790.5c-16.3-3.1-24.4,16.8-24.4,16.8s-3.6,11.2-13.7-12.7c-9.7-23.9-36.1-8.6-41.2,5.6
		c-5.1,14.2-5.6,2.5-14.2-8.1c-9.2-10.7-31.5,7.1-31.5,13.2c0,6.1,0,5.6-3.1,26.4c-3.1,20.9-3.1,37.1,4.6,46.3
		c7.6,9.2,19.8,15.3,35.1,6.1c4.6,12.7,36.6,13.7,46.3,7.1c7.6,13.2,29.5,5.1,41.7,8.6c19.8,5.6,12.7-41.2,12.7-41.2s2.5-5.1,7.1-27
		C357.4,808.3,349.8,793.5,334,790.5z"/>
	<path fill="#1DA5EC" d="M903.6,389.7H801.4c-5.1,0-9.7,4.1-9.7,9.7v181.1c0,5.1,4.1,9.7,9.7,9.7h102.2c5.1,0,9.7-4.1,9.7-9.7V399.4
		C913.3,393.8,908.7,389.7,903.6,389.7z"/>
	<g>
		<path fill="#1DA5EC" d="M854.8,268.2c22.9,0,42.7,13.7,51.4,33.6l-8.6,6.6c-6.1-17.8-21.4-28.5-42.7-28.5s-36.6,10.7-42.7,28.5
			l-8.6-6.6C812.1,281.9,831.9,268.2,854.8,268.2z"/>
		<path fill="#1DA5EC" d="M854.8,209.7c42.2,0,78.8,23.4,98.7,58.5l-9.2,6.6c-17.8-32-50.9-53.4-89.5-53.4
			c-38.1,0-71.7,21.4-89.5,53.4l-9.2-6.6C776,233.1,812.6,209.7,854.8,209.7z"/>
		<path fill="#1DA5EC" d="M854.8,162.4c-58.5,0-108.8,31-136.8,77.8l-9.2-6.6c30-49.8,83.9-83.4,145.5-83.4s115.4,33.6,145.5,83.4
			l-8.1,7.1C963.6,193.4,913.3,162.4,854.8,162.4z"/>
	</g>
	<path fill="#FFFFFF" d="M903.6,542.3c0,2.5-2,4.6-4.6,4.6h-92.6c-2.5,0-4.6-2-4.6-4.6V418.2c0-2.5,2-4.6,4.6-4.6H899
		c2.5,0,4.6,2,4.6,4.6V542.3z"/>
	<circle fill="#FFFFFF" cx="852.8" cy="568.2" r="11.7"/>
	<rect x="838.5" y="398.9" fill="#FFFFFF" width="28.5" height="4.6"/>
	<path fill="#FFFFFF" d="M467.2,697.9c0,0,55.9-69.2,89.5-148.5c-48.3,0-125.6,0-178.5,0C409.3,619.6,467.2,697.9,467.2,697.9z"/>
	<g>
		<g>
			<path fill="#3B3D3D" d="M271.4,384.6c-9.2,37.6,22.4,51.4,22.4,51.4s131.7-3.1,339.2-3.1c38.7-38.1,32.5-84.9,19.8-107.8
				c11.2,11.2,18.8,4.1,18.8,4.1c-6.1,0-11.7-10.2-16.3-38.1S631,250.9,631,250.9c17.8-6.1,18.3-29.5,18.3-29.5
				c-4.1,15.3-29.5,17.3-47.3-11.2c-17.8-28.5-57-45.3-96.1-45.3c22.9-29.5-9.7-41.2-9.7-41.2c0,28.5-34.6,34.1-34.6,34.1
				s-81.4,3.1-105.8,27c-42.7,0-61.5,24.9-68.7,69.7c-11.2,0-19.8-21.9-19.8-21.9c0,16.8,13.2,45.3,13.2,45.3
				c-19.8,0-22.4-21.9-22.4-21.9c-8.1,8.1-8.6,46.3,14.2,54.4C273,310.4,250.1,339.9,271.4,384.6z"/>
		</g>
		<g>
			<path fill="#F9DAB4" d="M601,359.2c0,0,7.6,15.3,5.1,26.4c0,0-6.1-12.7-25.9-25.9c-19.8-12.7-35.1-18.8-41.2-29.5
				c0,0,1,14.2,12.7,19.3c0,0-40.2,9.2-56.5-30c0,0,1.5,16.8-5.1,27.5c-6.6,10.7-12.2,22.4-4.6,30c0,0-10.7-1.5-17.8-17.8
				c-7.6-15.8-18.3-15.3-29-17.3c-10.7-2-25.9-3.6-27.5-19.3c0,0-5.1,20.9,25.9,29c0,0-32,11.2-49.3-20.9c0,0,2.5,32,28.5,41.7
				c0,0-53.4-2-72.2-37.6c0,0,10.7,32.5-18.3,47.8c-3.1,1.5-6.1,3.1-9.2,4.6v81.4c0,19.8-4.6,91,151,91
				c77.8,0,153.1-17.3,153.1-72.2V381.1C615.8,372.9,614.2,363.8,601,359.2z"/>
		</g>
		<g>
			<g>
				<path fill="#6B4627" d="M395,410.1c3.6,10.7-2.5,22.4-13.7,25.9s-22.9-2.5-25.9-13.7c-3.6-10.7,2.5-22.4,13.7-25.9
					C379.8,392.8,391.5,398.9,395,410.1z"/>
			</g>
			<g>
				<path fill="#F9F5ED" d="M386.9,404.5c-0.5,2.5-4.1,4.1-8.1,3.1c-4.1-1-6.6-3.6-6.1-6.1c0.5-2.5,4.6-4.1,8.1-3.1
					C384.9,398.9,387.4,401.9,386.9,404.5z"/>
			</g>
		</g>
		<g>
			<g>
				<path fill="#6B4627" d="M541.5,410.1c-3.6,10.7,2.5,22.4,13.7,25.9c11.2,3.6,22.9-2.5,25.9-13.7c3.6-10.7-2.5-22.4-13.7-25.9
					C556.8,392.8,545.1,398.9,541.5,410.1z"/>
			</g>
			<g>
				<path fill="#F9F5ED" d="M549.6,404.5c0.5,2.5,4.1,4.1,8.1,3.1c4.1-1,6.6-3.6,6.1-6.1s-4.1-4.1-8.1-3.1
					C551.7,398.9,549.1,401.9,549.6,404.5z"/>
			</g>
		</g>
		<g>
			<g>
				<path fill="#F4C7A2" d="M489.1,450.7c0-1.5-1-5.6-4.6-9.2l0,0c-3.1-3.6-8.1-6.6-15.3-6.6l0,0c-6.6,0-11.2,3.1-14.7,6.6l0,0
					c-3.6,3.6-5.6,7.6-6.6,9.2l0,0c0,0.5-0.5,0.5-0.5,0.5l0,0l0,0c-0.5,1-1.5,1.5-2.5,1l0,0c-1-0.5-1.5-1.5-1-2.5l0,0
					c0,0,2-4.6,6.1-9.2l0,0c4.1-4.6,10.7-9.7,19.3-9.7l0,0c8.6,0,14.7,3.6,18.3,8.1l0,0c3.6,4.6,5.1,9.2,5.1,11.7l0,0c0,1-1,2-2,2
					l0,0C490.1,452.8,489.1,451.8,489.1,450.7L489.1,450.7z"/>
			</g>
		</g>
		<g>
			<path fill="#F9DAB4" d="M321.3,420.7c0,0-6.1-27-30.5-20.3c-23.9,6.6-21.9,32.5-13.2,44.8c8.6,11.7,38.1,29,45.8,5.6
				C322.8,436.5,321.3,420.7,321.3,420.7z"/>
		</g>
		<g>
			<path fill="#F9DAB4" d="M614.7,420.7c0,0,6.1-27,30.5-20.3c23.9,6.6,21.9,32.5,13.2,44.8c-8.6,11.7-38.1,29-45.8,5.6
				C613.7,436.5,614.7,420.7,614.7,420.7z"/>
		</g>
		<g>
			<g>
				<path fill="#E0605C" d="M417.4,529.6h116c0,0-12.7-34.1-49.3-38.1C446.9,487.4,420.5,517.9,417.4,529.6z"/>
			</g>
			<g>
				<path fill="#C44747" d="M475.4,517.4c-14.7-14.7-39.7,12.2-39.7,12.2h70.7C502.3,507.2,483.5,513.3,475.4,517.4z"/>
			</g>
		</g>
	</g>
</g>
</svg>
