<?xml version="1.0" encoding="utf-8"?>
<!-- Generator: Adobe Illustrator 17.0.0, SVG Export Plug-In . SVG Version: 6.00 Build 0)  -->
<!DOCTYPE svg PUBLIC "-//W3C//DTD SVG 1.1//EN" "http://www.w3.org/Graphics/SVG/1.1/DTD/svg11.dtd">
<svg version="1.1" id="图层_1" xmlns="http://www.w3.org/2000/svg" xmlns:xlink="http://www.w3.org/1999/xlink" x="0px" y="0px"
	 width="1000.6px" height="1000.6px" viewBox="0 0 1000.6 1000.6" enable-background="new 0 0 1000.6 1000.6" xml:space="preserve">
<path fill="#040000" d="M867.4,456.1c-24.1,0-43.8,19.7-43.8,43.8c0,1.5,0.1,3.1,0.3,4.6c-2.2,176.4-147.1,319.6-323.7,319.6
	c-178.5,0-323.8-145.3-323.8-323.8s145.3-323.8,323.8-323.8c62.8,0,122.8,17.7,174.4,50.8l-29,52.2c0,0,138.4,2.2,149.2,2.4
	c10.8,0.2,14.6-5.6,14.6-5.6s5.1-5.8,2.4-15.5c-2.6-9.7-43.2-162.2-43.2-162.2l-38.5,61.1c-67.3-45.7-146.7-70.1-229.8-70.1
	c-226.6,0-411,184.4-411,411s184.4,411,411,411c225.8,0,410.1-183.7,410.9-407.3l0.2-4.2C911.2,475.7,891.6,456.1,867.4,456.1z"/>
</svg>
