<?xml version="1.0" standalone="no"?>
<!DOCTYPE svg PUBLIC "-//W3C//DTD SVG 1.1//EN" "http://www.w3.org/Graphics/SVG/1.1/DTD/svg11.dtd" >
<svg xmlns="http://www.w3.org/2000/svg">
<metadata>Generated by IcoMoon</metadata>
<defs>
<font id="iconfont" horiz-adv-x="1024">
<font-face units-per-em="1024" ascent="819.2" descent="-204.8" />
<missing-glyph horiz-adv-x="1024" />
<glyph unicode="&#x20;" horiz-adv-x="512" d="" />
<glyph unicode="&#xe900;" glyph-name="android" d="M264.75 109.387c0-32.544 26.403-58.845 59.049-58.845h40.321v-122.192c0-30.497 24.766-55.161 55.263-55.161 30.599 0 55.263 24.664 55.263 55.161v122.192h74.707v-122.192c0-30.497 24.766-55.161 55.263-55.161 30.599 0 55.263 24.664 55.263 55.161v122.192h40.219c32.646 0 59.049 26.301 59.049 58.845v342.732h-494.398v-342.732zM187.996 462.558c-30.599 0-55.263-24.664-55.263-55.161v-215.832c0-30.497 24.766-55.161 55.263-55.161 30.599 0 55.263 24.664 55.263 55.161v215.832c0.102 30.395-24.664 55.161-55.263 55.161zM634.090 685.246l38.684 70.204c2.047 3.684 0.716 8.392-3.070 10.336-3.684 2.047-8.392 0.716-10.439-3.070l-39.093-70.818c-32.748 14.43-69.386 22.514-108.172 22.514s-75.424-8.085-108.172-22.514l-39.093 70.818c-2.047 3.787-6.652 5.117-10.439 3.070s-5.117-6.652-3.070-10.336l38.684-70.204c-75.833-39.093-127.105-113.391-127.105-198.639h498.287c0.102 85.248-51.169 159.546-127.002 198.639zM398.609 572.674c-13.713 0-24.766 11.053-24.766 24.664s11.053 24.664 24.766 24.664c13.713 0 24.766-11.053 24.766-24.664s-11.155-24.664-24.766-24.664zM625.494 572.674c-13.713 0-24.766 11.053-24.766 24.664s11.155 24.664 24.766 24.664c13.713 0 24.766-11.053 24.766-24.664s-11.155-24.664-24.766-24.664zM836.004 462.558c-30.599 0-55.263-24.664-55.263-55.161v-215.832c0-30.497 24.766-55.161 55.263-55.161 30.599 0 55.263 24.664 55.263 55.161v215.832c0 30.395-24.766 55.161-55.263 55.161z" />
<glyph unicode="&#xe901;" glyph-name="app" d="M910.199 766.708h-313.975c-26.608 0-48.304-21.696-48.304-48.304v-313.872c0-26.608 21.696-48.304 48.304-48.304h313.975c26.608 0 48.304 21.696 48.304 48.304v313.872c-0.102 26.608-21.696 48.304-48.304 48.304zM596.225 404.532v313.872h313.975v-313.872h-313.975zM910.199 283.874h-313.975c-26.608 0-48.304-21.696-48.304-48.304v-313.872c0-26.608 21.696-48.304 48.304-48.304h313.975c26.608 0 48.304 21.696 48.304 48.304v313.872c-0.102 26.608-21.696 48.304-48.304 48.304zM596.225-78.302v313.872h313.975v-313.872h-313.975zM427.161 283.874h-313.872c-26.608 0-48.304-21.696-48.304-48.304v-313.872c0-26.608 21.696-48.304 48.304-48.304h313.975c26.608 0 48.304 21.696 48.304 48.304v313.872c-0.102 26.608-21.696 48.304-48.406 48.304zM113.289-78.302v313.872h313.975v-313.872h-313.975zM427.161 766.708h-313.872c-26.608 0-48.304-21.696-48.304-48.304v-313.872c0-26.608 21.696-48.304 48.304-48.304h313.975c26.608 0 48.304 21.696 48.304 48.304v313.872c-0.102 26.608-21.696 48.304-48.406 48.304zM113.289 404.532v313.872h313.975v-313.872h-313.975z" />
<glyph unicode="&#xe902;" glyph-name="appbag" d="M454.588 220.732h-150.335c-13.099 0-23.743-10.541-23.743-23.538v-124.239c0-12.997 10.643-23.538 23.743-23.538h150.335c13.099 0 23.743 10.541 23.743 23.538v124.239c-0.102 12.997-10.643 23.538-23.743 23.538zM445.582 81.858h-132.426v106.432h132.426v-106.432zM454.588 439.736h-150.335c-13.099 0-23.743-10.541-23.743-23.538v-124.239c0-12.997 10.643-23.538 23.743-23.538h150.335c13.099 0 23.743 10.541 23.743 23.538v124.239c-0.102 12.997-10.643 23.538-23.743 23.538zM445.582 300.965h-132.426v106.33h132.426v-106.33zM718.826 220.732h-150.438c-13.099 0-23.64-10.541-23.64-23.538v-124.239c0-12.997 10.643-23.538 23.64-23.538h150.335c13.099 0 23.743 10.541 23.743 23.538v124.239c0 12.997-10.643 23.538-23.64 23.538zM709.821 81.858h-132.426v106.432h132.426v-106.432zM718.826 439.736h-150.438c-13.099 0-23.64-10.541-23.64-23.538v-124.239c0-12.997 10.643-23.538 23.64-23.538h150.335c13.099 0 23.743 10.541 23.743 23.538v124.239c0 12.997-10.643 23.538-23.64 23.538zM709.821 300.965h-132.426v106.33h132.426v-106.33zM785.756 748.389h-48.201c0.512 5.629 0.921 11.36 0.921 17.091 0 10.848-8.801 19.649-19.649 19.649s-19.649-8.801-19.649-19.649c0-5.731-0.307-11.462-0.921-17.091h-371.080c-0.614 5.629-0.921 11.36-0.921 17.091 0 10.848-8.801 19.649-19.649 19.649s-19.649-8.801-19.649-19.649c0-5.731 0.409-11.462 0.921-17.091h-49.532c-95.38 0-172.952-77.573-172.952-172.952v-547.511c0-95.38 77.573-172.952 172.952-172.952h547.511c95.38 0 172.952 77.573 172.952 172.952v547.511c-0.102 95.277-77.675 172.952-173.055 172.952zM688.841 708.989c-25.175-68.362-94.561-117.792-176.125-117.792s-150.949 49.327-176.125 117.792h352.249zM919.41 27.823c0-73.786-59.868-133.654-133.654-133.654h-547.511c-73.786 0-133.654 59.868-133.654 133.654v547.511c0 73.786 59.868 133.654 133.654 133.654h56.9c26.301-90.467 113.698-157.090 217.47-157.090s191.271 66.725 217.47 157.090h55.57c73.786 0 133.654-59.868 133.654-133.654v-547.511z" />
<glyph unicode="&#xe903;" glyph-name="appbag-fill" d="M512.614 582.089c88.011 0 160.672 62.529 169.473 142.455h-339.048c8.801-79.926 81.462-142.455 169.575-142.455zM772.759 724.544h-38.684c-8.903-108.581-104.692-194.443-221.461-194.443s-212.66 85.862-221.461 194.443h-40.014c-90.877 0-164.765-73.888-164.765-164.765v-521.62c0-90.877 73.888-164.765 164.765-164.765h521.62c90.877 0 164.765 73.888 164.765 164.765v521.62c0 90.877-73.888 164.765-164.765 164.765zM471.679 81.142c0-12.383-10.132-22.412-22.617-22.412h-135.087c-12.485 0-22.617 10.029-22.617 22.412v110.116c0 12.383 10.132 22.412 22.617 22.412h135.087c12.485 0 22.617-10.029 22.617-22.412v-110.116zM471.679 297.997c0-12.383-10.132-22.412-22.617-22.412h-135.087c-12.485 0-22.617 10.029-22.617 22.412v110.116c0 12.383 10.132 22.412 22.617 22.412h135.087c12.485 0 22.617-10.029 22.617-22.412v-110.116zM731.516 81.142c0-12.383-10.132-22.412-22.617-22.412h-135.087c-12.485 0-22.617 10.029-22.617 22.412v110.116c0 12.383 10.132 22.412 22.617 22.412h135.087c12.485 0 22.617-10.029 22.617-22.412v-110.116zM731.516 297.997c0-12.383-10.132-22.412-22.617-22.412h-135.087c-12.485 0-22.617 10.029-22.617 22.412v110.116c0 12.383 10.132 22.412 22.617 22.412h135.087c12.485 0 22.617-10.029 22.617-22.412v-110.116zM734.893 740.816c0 14.327-11.667 25.994-25.994 25.994s-25.994-11.667-25.994-25.994c0-5.526-0.307-10.95-0.921-16.272h51.988c0.512 5.424 0.921 10.848 0.921 16.272zM342.22 740.816c0 14.327-11.667 25.994-25.994 25.994s-25.994-11.667-25.994-25.994c0-5.526 0.409-10.95 0.921-16.272h51.988c-0.614 5.424-0.921 10.848-0.921 16.272z" />
<glyph unicode="&#xe904;" glyph-name="app-fill" d="M427.775 283.874h-313.975c-26.608 0-48.304-21.696-48.304-48.304v-313.872c0-26.608 21.696-48.304 48.304-48.304h313.975c26.608 0 48.304 21.696 48.304 48.304v313.872c0 26.608-21.696 48.304-48.304 48.304zM427.775 766.708h-313.975c-26.608 0-48.304-21.696-48.304-48.304v-313.872c0-26.608 21.696-48.304 48.304-48.304h313.975c26.608 0 48.304 21.696 48.304 48.304v313.872c0 26.608-21.696 48.304-48.304 48.304zM910.711 766.708h-313.975c-26.608 0-48.304-21.696-48.304-48.304v-313.872c0-26.608 21.696-48.304 48.304-48.304h313.975c26.608 0 48.304 21.696 48.304 48.304v313.872c0 26.608-21.696 48.304-48.304 48.304zM910.711 283.874h-313.975c-26.608 0-48.304-21.696-48.304-48.304v-313.872c0-26.608 21.696-48.304 48.304-48.304h313.975c26.608 0 48.304 21.696 48.304 48.304v313.872c0 26.608-21.696 48.304-48.304 48.304z" />
<glyph unicode="&#xe905;" glyph-name="apple" d="M642.993 624.048c31.213 37.865 52.090 90.365 46.359 142.66-44.824-1.637-99.064-29.883-131.198-67.646-28.757-33.465-54.035-86.988-47.178-138.157 49.839-3.889 100.906 25.482 132.017 63.143zM755.054 292.062c-1.023 112.982 92.105 167.426 96.301 170.087-52.5 76.856-133.961 87.397-162.923 88.625-69.386 7.061-135.292-40.935-170.496-40.935s-89.444 39.912-146.958 38.786c-75.731-1.126-145.423-44.108-184.312-112.061-78.494-136.622-20.058-339.252 56.389-450.187 37.456-54.239 82.076-115.336 140.613-113.084 56.389 2.251 77.777 36.637 145.935 36.637s87.397-36.637 146.958-35.511c60.687 1.126 99.268 55.365 136.315 109.809 42.982 62.938 60.584 123.932 61.71 127.105-1.33 0.512-118.303 45.541-119.531 180.73z" />
<glyph unicode="&#xe906;" glyph-name="appscatter" d="M837.13 766.81h-129.97c-67.236 0-121.885-54.649-121.885-121.885v-129.97c0-67.236 54.649-121.885 121.885-121.885h129.97c67.236 0 121.885 54.649 121.885 121.885v129.97c-0.102 67.236-54.751 121.885-121.885 121.885zM910.199 515.057c0-40.321-32.748-73.070-73.070-73.070h-129.97c-40.321 0-73.070 32.748-73.070 73.070v129.97c0 40.321 32.748 73.070 73.070 73.070h129.97c40.321 0 73.070-32.748 73.070-73.070v-129.97zM317.25 246.93h-129.97c-67.134 0-121.783-54.649-121.783-121.783v-129.97c0-67.236 54.649-121.885 121.885-121.885h129.97c67.236 0 121.885 54.649 121.885 121.885v129.97c-0.102 67.134-54.751 121.783-121.988 121.783zM390.319-4.823c0-40.321-32.748-73.070-73.070-73.070h-129.97c-40.321 0-73.070 32.748-73.070 73.070v129.97c0 40.321 32.748 73.070 73.070 73.070h129.97c40.321 0 73.070-32.748 73.070-73.070v-129.97zM837.13 246.93h-129.97c-67.236 0-121.885-54.649-121.885-121.885v-129.97c0-67.236 54.649-121.885 121.885-121.885h129.97c67.236 0 121.885 54.649 121.885 121.885v129.97c-0.102 67.236-54.751 121.885-121.885 121.885zM910.199-4.823c0-40.321-32.748-73.070-73.070-73.070h-129.97c-40.321 0-73.070 32.748-73.070 73.070v129.97c0 40.321 32.748 73.070 73.070 73.070h129.97c40.321 0 73.070-32.748 73.070-73.070v-129.97zM317.25 766.81h-129.97c-67.134 0-121.783-54.649-121.783-121.783v-129.97c0-67.236 54.649-121.885 121.885-121.885h129.97c67.236 0 121.885 54.649 121.885 121.885v129.97c-0.102 67.134-54.751 121.783-121.988 121.783zM390.319 515.057c0-40.321-32.748-73.070-73.070-73.070h-129.97c-40.321 0-73.070 32.748-73.070 73.070v129.97c0 40.321 32.748 73.070 73.070 73.070h129.97c40.321 0 73.070-32.748 73.070-73.070v-129.97z" />
<glyph unicode="&#xe907;" glyph-name="appscatter-fill" d="M320.422 766.81h-127.616c-70.511 0-127.616-57.105-127.616-127.616v-127.616c0-70.511 57.105-127.616 127.616-127.616h127.616c70.511 0 127.616 57.105 127.616 127.616v127.616c0 70.511-57.105 127.616-127.616 127.616zM320.422 256.243h-127.616c-70.511 0-127.616-57.105-127.616-127.616v-127.616c0-70.511 57.105-127.616 127.616-127.616h127.616c70.511 0 127.616 57.105 127.616 127.616v127.616c0 70.511-57.105 127.616-127.616 127.616zM830.989 766.81h-127.616c-70.511 0-127.616-57.105-127.616-127.616v-127.616c0-70.511 57.105-127.616 127.616-127.616h127.616c70.511 0 127.616 57.105 127.616 127.616v127.616c0 70.511-57.105 127.616-127.616 127.616zM830.989 256.243h-127.616c-70.511 0-127.616-57.105-127.616-127.616v-127.616c0-70.511 57.105-127.616 127.616-127.616h127.616c70.511 0 127.616 57.105 127.616 127.616v127.616c0 70.511-57.105 127.616-127.616 127.616z" />
<glyph unicode="&#xe908;" glyph-name="appshop" d="M403.828 122.998l16.272-46.666h23.947l-59.254 160.467h-25.073l-61.505-160.467h22.822l16.886 46.769h65.906zM371.591 212.954l24.152-70.716h-51.067l26.915 70.716zM920.433-25.802h-116.564v320.32c0 10.746-8.699 19.444-19.444 19.444s-19.444-8.699-19.444-19.444v-320.32h-504.939v320.32c0 10.746-8.699 19.444-19.444 19.444s-19.444-8.699-19.444-19.444v-320.32h-116.461c-10.746 0-19.444-8.699-19.444-19.444s8.699-19.547 19.444-19.547h815.741c10.746 0 19.444 8.699 19.444 19.547 0 10.746-8.699 19.444-19.444 19.444zM939.878 588.946c0 64.576-52.193 116.973-116.564 116.973h-621.502c-64.371 0-116.564-52.397-116.564-116.973l-19.444-136.417v-19.444c0-43.085 34.795-77.982 77.675-77.982h38.889c23.231 0 44.006 10.336 58.231 26.506 14.225-16.272 35-26.506 58.231-26.506h19.444c23.231 0 44.006 10.336 58.231 26.506 14.225-16.272 35-26.506 58.231-26.506h19.444c23.231 0 44.006 10.336 58.231 26.506 14.225-16.272 35-26.506 58.231-26.506h19.444c23.231 0 44.006 10.336 58.231 26.506 14.225-16.272 35-26.506 58.231-26.506h19.444c23.231 0 44.006 10.336 58.231 26.506 14.225-16.272 35-26.506 58.231-26.506h38.889c42.88 0 77.675 34.897 77.675 77.982v19.444l-19.137 136.417zM920.433 432.982c0-21.491-17.398-38.991-38.889-38.991h-38.889c-21.491 0-38.889 17.5-38.889 38.991v77.88c0 10.746-8.699 19.444-19.444 19.444s-19.444-8.699-19.444-19.444v-77.88c0-21.491-17.398-38.991-38.889-38.991h-19.444c-21.491 0-38.889 17.5-38.889 38.991v77.88c0 10.746-8.699 19.444-19.444 19.444s-19.444-8.699-19.444-19.444v-77.88c0-21.491-17.398-38.991-38.889-38.991h-19.444c-21.491 0-38.889 17.5-38.889 38.991v77.88c0 10.746-8.699 19.444-19.444 19.444s-19.444-8.699-19.444-19.444v-77.88c0-21.491-17.398-38.991-38.889-38.991h-19.444c-21.491 0-38.889 17.5-38.889 38.991v77.88c0 10.746-8.699 19.444-19.444 19.444s-19.444-8.699-19.444-19.444v-77.88c0-21.491-17.398-38.991-38.889-38.991h-19.444c-21.491 0-38.889 17.5-38.889 38.991v77.88c0 10.746-8.699 19.444-19.444 19.444s-19.444-8.699-19.444-19.444v-77.88c0-21.491-17.398-38.991-38.889-38.991h-38.889c-21.491 0-38.889 17.5-38.889 38.991v19.444l19.444 136.417c0 43.085 34.795 77.982 77.675 77.982h621.605c42.88 0 77.675-34.897 77.675-77.982l19.444-136.417v-19.444zM533.286 143.978c16.374 0 28.962 5.117 37.558 15.453 7.266 8.596 10.95 19.342 10.95 32.134 0 13.304-4.401 24.050-13.099 32.544-8.699 8.392-20.57 12.588-35.409 12.588h-73.581v-160.467h22.105v67.748h51.476zM481.81 218.173h44.824c9.825 0 17.5-1.944 23.026-5.833 6.243-4.503 9.313-11.462 9.313-20.979 0-10.439-3.070-17.909-9.108-22.617-5.424-4.196-13.509-6.243-24.152-6.243h-43.903v55.672zM678.3 143.978c16.374 0 28.962 5.117 37.558 15.453 7.266 8.596 10.95 19.342 10.95 32.134 0 13.304-4.401 24.050-13.099 32.544-8.699 8.392-20.57 12.588-35.409 12.588h-73.581v-160.467h22.105v67.748h51.476zM626.824 218.173h44.824c9.825 0 17.5-1.944 23.026-5.833 6.243-4.503 9.313-11.462 9.313-20.979 0-10.439-3.070-17.909-9.108-22.617-5.424-4.196-13.509-6.243-24.152-6.243h-44.006v55.672z" />
<glyph unicode="&#xe909;" glyph-name="appshop-fill" d="M939.366 588.332c0 64.576-52.193 116.973-116.564 116.973h-621.605c-64.371 0-116.564-52.295-116.564-116.973l-19.444-136.417v-19.444c0-43.085 34.795-77.982 77.675-77.982h38.889c23.231 0 44.006 10.234 58.231 26.506 14.225-16.272 35.102-26.506 58.231-26.506h19.444c23.231 0 44.006 10.234 58.231 26.506 14.225-16.272 35.102-26.506 58.231-26.506h19.444c23.231 0 44.006 10.234 58.231 26.506 14.225-16.272 35.102-26.506 58.231-26.506h19.444c23.231 0 44.006 10.234 58.231 26.506 14.225-16.272 35.102-26.506 58.231-26.506h19.444c23.231 0 44.006 10.234 58.231 26.506 14.225-16.272 35.102-26.506 58.231-26.506h38.889c42.88 0 77.675 34.897 77.675 77.982v19.444l-19.035 136.417zM545.465 206.404c-4.298 3.070-10.848 4.605-19.444 4.605h-38.684v-43.289h37.763c9.21 0 16.067 1.637 20.365 5.015 4.503 3.48 6.652 9.21 6.652 17.705 0.102 7.471-2.149 12.69-6.652 15.965zM690.274 206.404c-4.298 3.070-10.848 4.605-19.444 4.605h-38.684v-43.289h37.763c9.21 0 16.067 1.637 20.365 5.015 4.503 3.377 6.652 9.21 6.652 17.705 0.102 7.471-2.047 12.69-6.652 15.965zM353.17 147.457h33.465l-15.862 46.359zM919.819-26.314h-116.564v342.425c-7.266 4.298-13.816 9.62-19.342 15.965-14.225-16.272-35.102-26.506-58.231-26.506h-19.444c-23.231 0-44.006 10.234-58.231 26.506-14.225-16.272-35.102-26.506-58.231-26.506h-19.444c-23.231 0-44.006 10.234-58.231 26.506-14.225-16.272-35.102-26.506-58.231-26.506h-19.444c-23.231 0-44.006 10.234-58.231 26.506-14.225-16.272-35.102-26.506-58.231-26.506h-19.444c-23.231 0-44.006 10.234-58.231 26.506-5.629-6.345-12.076-11.769-19.444-16.067v-342.323h-116.768c-10.746 0-19.444-8.801-19.444-19.444 0-10.746 8.699-19.444 19.444-19.444h815.741c10.746 0 19.444 8.801 19.444 19.444-0.102 10.746-8.801 19.444-19.444 19.444zM415.188 69.27l-16.272 46.564h-57.003l-16.886-46.666h-36.023l66.111 172.645h33.567l63.655-172.543h-37.149zM574.836 154.518c-9.825-11.667-24.050-17.602-42.266-17.602h-45.336v-67.646h-34.386v172.543h79.619c16.374 0 29.781-4.81 39.605-14.327 9.927-9.517 14.941-22.003 14.941-36.842 0.205-14.225-3.991-26.403-12.178-36.126zM719.747 154.518c-9.825-11.667-24.050-17.602-42.266-17.602h-45.234v-67.646h-34.386v172.543h79.619c16.374 0 29.781-4.81 39.605-14.327 9.927-9.517 14.941-22.003 14.941-36.842 0.102-14.225-4.094-26.403-12.281-36.126z" />
<glyph unicode="&#xe90a;" glyph-name="arrowbittoleft" d="M150.54 319.795l397.892 397.79c5.424 5.424 8.392 12.69 8.392 20.365s-2.968 14.941-8.392 20.365c-5.424 5.424-12.69 8.392-20.365 8.392s-14.941-2.968-20.365-8.392l-415.392-415.29c-5.731-5.731-8.596-13.713-7.88-22.514-0.716-10.234 2.149-18.216 7.88-23.947l415.392-415.188c10.848-10.848 29.781-10.848 40.731 0 11.257 11.257 11.257 29.474 0 40.628l-397.892 397.79zM609.938 319.795l321.343 321.241c5.424 5.424 8.494 12.69 8.494 20.365s-2.968 14.839-8.494 20.365c-5.424 5.424-12.69 8.392-20.365 8.392s-14.941-2.968-20.365-8.392l-338.741-338.638c-5.731-5.731-8.596-13.713-7.88-22.514-0.716-10.234 2.149-18.216 7.88-23.947l338.741-338.638c10.848-10.848 29.781-10.848 40.731 0 5.424 5.424 8.494 12.69 8.494 20.365s-2.968 14.941-8.494 20.365l-321.343 321.036z" />
<glyph unicode="&#xe90b;" glyph-name="arrowbittoleft-fill" d="M246.329 320l318.58 318.58c29.371 29.371 29.371 76.856 0 106.227-29.269 29.371-76.856 29.371-106.227 0l-371.591-371.694c-29.371-29.269-29.371-76.856 0-106.227l371.694-371.694c29.269-29.371 76.856-29.371 106.227 0 29.371 29.269 29.371 76.856 0 106.227l-318.682 318.58zM694.879 320.409l241.519 242.338c29.678 29.781 29.678 77.982 0 107.66-29.678 29.781-77.675 29.781-107.353 0l-295.145-296.168c-29.678-29.781-24.868-51.476 4.401-80.847l290.642-323.083c29.678-29.781 77.675-29.781 107.353 0s29.678 77.982 0 107.66l-241.417 242.44z" />
<glyph unicode="&#xe90c;" glyph-name="arrowbittoright" d="M480.070 319.079c0.716 10.234-2.149 18.216-7.88 23.947l-339.252 338.741c-5.424 5.424-12.69 8.392-20.365 8.392s-14.941-2.968-20.365-8.392c-5.424-5.424-8.392-12.69-8.392-20.365s2.968-14.941 8.392-20.365l321.753-321.241-321.753-321.139c-5.424-5.424-8.392-12.69-8.392-20.365s2.968-14.941 8.392-20.365c10.848-10.848 29.883-10.848 40.833 0l339.252 338.638c5.731 5.833 8.494 13.816 7.778 22.514zM932.305 343.026l-416.006 415.29c-5.424 5.424-12.69 8.392-20.365 8.392s-14.941-2.968-20.365-8.392c-5.424-5.424-8.494-12.69-8.392-20.365 0-7.675 2.968-14.941 8.392-20.263l398.404-397.892-398.404-397.688c-5.424-5.424-8.392-12.69-8.392-20.365s2.968-14.839 8.392-20.365c10.848-10.848 29.883-10.848 40.731 0l415.904 415.188c5.833 5.731 8.596 13.713 7.88 22.514 0.716 10.234-2.047 18.216-7.778 23.947z" />
<glyph unicode="&#xe90d;" glyph-name="arrowbittoright-fill" d="M490.202 395.526l-295.145 311.007c-29.678 31.213-77.675 31.213-107.353 0s-29.678-81.871 0-113.084l241.417-254.414-241.314-254.414c-29.678-31.213-29.678-81.871 0-113.084s77.675-31.213 107.353 0l295.042 310.905c29.678 31.316 29.678 81.871 0 113.084zM937.115 373.114l-371.694 371.591c-29.371 29.371-76.856 29.371-106.227 0-29.269-29.371-29.269-76.856 0-106.227l318.58-318.478-318.58-318.58c-29.269-29.269-29.269-76.856 0-106.227 29.371-29.371 76.856-29.371 106.227 0l371.694 371.694c29.269 29.371 29.269 76.856 0 106.227z" />
<glyph unicode="&#xe90e;" glyph-name="arrowdown" d="M950.419 573.288c-10.848 10.848-29.678 10.848-40.526 0l-397.892-436.576-398.097 436.883c-10.234 10.336-29.474 10.541-40.219-0.307-11.257-11.257-11.257-29.576 0-40.833l416.416-456.942c4.912-4.912 12.076-7.778 19.751-7.778h2.558l1.535-9.21c0 0 0 0 0.102 0v9.108c7.675 0 14.839 2.865 20.058 8.085l416.006 456.43c11.462 11.564 11.462 29.883 0.307 41.14z" />
<glyph unicode="&#xe90f;" glyph-name="arrowdown-fill" d="M935.989 576.051c-30.804 30.906-80.847 30.906-111.754 0l-311.826-344.267-311.928 344.267c-30.804 30.906-80.847 30.906-111.754 0-30.804-30.906-30.804-80.95 0-111.856l362.79-400.451c16.681-16.681 38.991-24.050 60.789-22.719 21.798-1.33 44.108 6.038 60.789 22.719l362.79 400.451c30.906 30.804 30.906 80.95 0.102 111.856z" />
<glyph unicode="&#xe910;" glyph-name="arrowleft" d="M324.413 319.898l435.962 398.199c5.117 5.117 8.085 12.383 8.085 19.956 0 7.675-2.968 14.839-8.392 20.263s-12.69 8.392-20.365 8.392-14.941-2.968-20.365-8.392l-456.021-416.518c-5.322-5.322-8.187-12.997-7.778-21.389-0.409-9.313 2.456-17.091 8.085-22.719l455.407-415.904c11.462-11.462 30.19-11.155 41.038-0.307 5.424 5.424 8.392 12.588 8.392 20.263s-2.968 14.839-8.392 20.263l-435.655 397.892z" />
<glyph unicode="&#xe911;" glyph-name="arrowleft-fill" d="M423.784 320l343.858 311.928c30.804 30.804 30.804 80.847 0 111.754s-80.847 30.804-111.754 0l-400.042-362.893c-16.681-16.681-24.050-38.991-22.719-60.789-1.33-21.798 6.038-44.108 22.719-60.789l399.939-362.79c30.804-30.804 80.847-30.804 111.754 0 30.804 30.804 30.804 80.847 0 111.754l-343.755 311.826z" />
<glyph unicode="&#xe912;" glyph-name="arrowrefresh2" d="M511.898 1.113c-142.046 0-268.332 95.38-307.016 231.899l-2.558 9.006h98.552c3.275 3.787 5.219 7.675 5.219 10.848 0 2.047-0.819 3.787-2.558 5.526l-106.432 107.66c-5.629 5.424-15.965 5.526-21.696-0.102l-105.613-107.456c-6.754-7.88-5.526-9.006 2.047-16.169l0.307-0.307h87.295l1.33-5.424c38.786-163.639 183.186-277.952 351.328-277.952 123.216 0 235.788 61.403 303.025 164.663l-40.117 16.067c-59.97-86.681-157.806-138.259-263.113-138.259zM953.489 369.634h-83.611l-0.921 6.038c-27.427 177.148-177.557 305.788-357.059 305.788-132.426 0-253.083-71.637-316.943-187.484l39.707-15.862c56.798 99.371 162.514 160.774 277.235 160.774 153.917 0 285.832-109.707 313.668-260.861l1.535-8.392h-102.441l-0.307-0.307c-7.573-7.164-8.699-8.289-1.637-16.579l105.409-107.149c5.526-5.424 15.862-5.526 21.696 0.102l106.33 107.456c1.842 1.842 2.661 3.582 2.661 5.629 0 3.070-1.944 7.061-5.322 10.848z" />
<glyph unicode="&#xe913;" glyph-name="arrowrefresh2-fill" d="M512.102 40.923c-124.955 0-230.671 82.076-266.285 195.364h61.096c8.596 8.392 13.099 19.751 4.503 28.041l-104.795 105.92c-8.596 8.392-22.617 8.392-31.213 0l-104.078-105.92c-12.383-14.532-4.094-19.751 4.503-28.041h51.169c30.292-165.584 190.861-306.913 385.1-306.913 142.148 0 266.183 76.14 334.545 189.633l-105.716 41.652c-50.351-72.353-134.064-119.736-228.829-119.736zM949.395 375.775h-51.067c-27.12 189.224-189.429 334.852-386.226 334.852-152.075 0-283.478-87.090-348.054-213.888l104.795-40.321c47.792 85.043 138.771 142.558 243.259 142.558 134.985 0 247.557-95.891 273.449-223.2h-67.236c-8.596-8.392-16.886-13.509-4.503-28.041l104.078-105.92c8.596-8.392 22.617-8.392 31.213 0l104.795 105.92c8.596 8.392 4.094 19.649-4.503 28.041z" />
<glyph unicode="&#xe914;" glyph-name="arrowreply" d="M461.752 533.99h-8.289v204.063c1.023 9.006-1.33 16.272-6.652 21.593-9.62 9.517-26.301 9.517-35.921 0l-331.27-363.2c-5.219-5.219-7.778-11.974-7.368-19.342-0.409-8.187 2.149-14.941 7.061-19.854l330.042-361.767c10.132-12.281 27.12-12.281 37.047-2.047l1.228 1.228c6.243 6.857 6.447 15.248 5.833 19.649 0 1.023 0.512 185.028 0.512 196.285v8.392h8.289c215.32 0 407.717-146.856 458.784-345.7 20.468 54.751 30.804 112.061 30.804 170.701 0 270.174-219.926 489.997-490.1 489.997zM887.071 72.034c-70.818 90.979-257.382 196.695-391.65 196.695-17.398 0-71.228-0.307-91.9-0.512v-191.68l-273.653 300.159 273.653 300.057v-192.499c21.593 0.205 78.289 0.614 92.207 0.205 232.82-7.164 405.056-272.118 406.182-407.308l0.205-24.459-15.044 19.342z" />
<glyph unicode="&#xe915;" glyph-name="arrowreply-fill" d="M463.492 542.893v188.098c1.126 9.415-1.535 19.137-8.801 26.403-12.588 12.485-33.055 12.485-45.745-0.102l-318.478-349.179c-6.754-6.652-9.62-15.555-9.108-24.357-0.409-8.801 2.456-17.602 9.108-24.357l316.84-347.337c11.871-10.132 33.567-15.862 47.485-1.944 7.266 7.266 10.439 13.304 9.313 22.719 0 0 0 172.543 0 191.373 210.408 0 400.86-151.563 438.623-351.021 25.482 58.435 39.707 122.909 39.707 190.759-0.102 264.545-214.502 478.945-478.945 478.945z" />
<glyph unicode="&#xe916;" glyph-name="arrowright" d="M769.075 319.386c0.409 9.415-2.456 17.091-8.085 22.719l-456.43 415.904c-5.731 5.731-12.997 8.699-20.775 8.699s-14.941-2.968-20.468-8.392c-5.424-5.424-8.392-12.588-8.392-20.263s2.968-14.839 8.392-20.263l436.679-397.995-436.986-398.199c-5.117-5.117-8.085-12.281-8.085-19.956s2.968-14.839 8.392-20.263c10.848-10.848 29.985-10.848 40.833 0l457.147 416.62c5.322 5.219 8.187 12.997 7.778 21.389z" />
<glyph unicode="&#xe917;" glyph-name="arrowright-fill" d="M768.358 380.789l-399.939 362.79c-30.804 30.804-80.847 30.804-111.754 0-30.906-30.906-30.906-80.847 0-111.754l343.858-311.928-343.858-311.928c-30.906-30.804-30.906-80.847 0-111.754 30.906-30.804 80.847-30.804 111.754 0l399.939 362.79c16.681 16.681 24.050 38.991 22.617 60.789 1.433 22.003-5.936 44.313-22.617 60.994z" />
<glyph unicode="&#xe918;" glyph-name="arrowsent" d="M944.688 396.14l-331.782 363.814c-9.006 8.903-25.994 9.21-35.614-0.307-5.219-5.219-7.675-12.588-6.652-20.57v-204.984h-8.289c-270.276 0-490.202-219.926-490.202-490.202 0-58.64 10.336-115.95 30.804-170.701 51.067 198.946 243.464 345.802 458.784 345.802h8.289v-8.289c0-11.36 0.614-195.364 0.614-195.364-0.614-5.424-0.409-13.816 5.833-20.672l1.228-1.126c10.132-10.439 27.222-10.132 36.842 1.535l330.042 361.869c5.219 5.219 7.778 11.974 7.368 19.342 0.205 8.187-2.251 14.941-7.266 19.854zM620.479 76.639v191.68c-20.672 0.102-74.502 0.512-91.9 0.512-134.268 0-320.832-105.716-391.65-196.695l-15.146-19.444 0.205 24.459c1.126 135.189 173.464 400.042 406.284 407.308 13.918 0.409 70.614 0 92.207-0.205v192.601l273.653-300.057-273.653-300.159z" />
<glyph unicode="&#xe919;" glyph-name="arrowsent-fill" d="M933.635 408.114l-318.478 349.179c-12.588 12.588-33.158 12.588-45.745 0-7.266-7.266-9.825-16.988-8.801-26.403v-188.098c-264.443 0-478.945-214.399-478.945-478.842 0-67.85 14.327-132.324 39.707-190.759 37.763 199.458 228.113 351.021 438.623 351.021 0-18.83 0-191.373 0-191.373-1.126-9.415 2.047-15.453 9.313-22.719 13.918-13.918 35.614-8.187 47.485 1.944l316.84 347.337c6.754 6.652 9.62 15.555 9.108 24.357 0.512 8.801-2.354 17.602-9.108 24.357z" />
<glyph unicode="&#xe91a;" glyph-name="arrowup" d="M950.419 112.56l-416.518 455.918c-4.912 4.912-12.076 7.778-19.751 7.778h-2.661c-0.102 0-0.102 0-0.205 0-9.313 0-16.374-2.865-21.491-8.085l-415.904-455.304c-11.462-11.564-11.462-29.781-0.205-41.038 10.848-10.848 29.678-10.848 40.526 0l397.79 435.553 398.097-435.86c10.234-10.234 29.371-10.541 40.219 0.307 11.257 11.257 11.257 29.474 0.102 40.731z" />
<glyph unicode="&#xe91b;" glyph-name="arrowup-fill" d="M935.477 175.191l-362.79 402.293c-16.681 16.784-38.991 24.152-60.789 22.822-21.798 1.33-44.108-6.038-60.789-22.822l-362.893-402.293c-30.906-31.009-30.906-81.359 0-112.368 30.804-31.009 80.847-31.009 111.754 0l311.928 345.904 311.928-345.904c30.804-31.009 80.847-31.009 111.754 0 30.702 31.009 30.702 81.359-0.102 112.368z" />
<glyph unicode="&#xe91c;" glyph-name="attach" d="M922.275 432.879l-456.635-451.62c-38.582-38.172-89.853-59.152-144.4-59.152s-105.818 20.979-144.4 59.152c-38.582 38.172-59.868 88.932-59.868 142.865 0 54.035 21.286 104.795 59.868 142.967l416.109 411.503c26.199 25.892 61.096 40.219 98.143 40.219s71.944-14.225 98.143-40.219c26.301-25.994 40.731-60.482 40.731-97.222s-14.43-71.228-40.731-97.119l-416.109-411.503c-27.734-27.529-76.14-27.427-103.874 0-13.918 13.713-21.593 32.032-21.593 51.476s7.675 37.763 21.593 51.476l364.018 360.027-34.693 34.283-364.121-360.13c-23.129-22.924-35.921-53.318-35.921-85.657s12.69-62.836 35.921-85.657c23.129-22.924 54.035-35.511 86.783-35.511s63.552 12.588 86.783 35.511l416.109 411.503c35.511 35.102 55.058 81.769 55.058 131.403s-19.547 96.301-55.058 131.403c-35.511 35.102-82.792 54.444-133.040 54.444s-97.529-19.342-133.040-54.444l-433.404-428.594 0.921-0.921-4.503-5.629c-78.187-99.371-69.181-241.519 20.877-330.554 47.792-47.28 111.344-73.274 178.99-73.274 56.184 0 111.344 18.728 155.555 52.704l5.629 4.298 0.921-0.921 473.93 468.608-34.693 34.283z" />
<glyph unicode="&#xe91d;" glyph-name="attach-fill" d="M912.86 441.476l-454.076-449.062c-75.219-74.4-197.206-74.4-272.425 0s-75.219 195.057 0 269.458l408.638 404.135c50.146 49.634 131.505 49.634 181.651 0s50.146-130.072 0-179.604l-408.74-404.135c-25.073-24.766-65.701-24.766-90.774 0s-25.073 64.985 0 89.853l363.302 359.208-45.438 44.927-363.302-359.208c-50.146-49.634-50.146-130.072 0-179.604 50.146-49.634 131.505-49.634 181.651 0l408.74 404.135c75.219 74.4 75.219 195.057 0 269.458s-197.206 74.4-272.425 0l-431.46-426.752 1.535-1.535c-78.391-99.678-71.432-243.668 21.082-335.261 92.616-91.593 238.244-98.45 339.048-20.877l1.535-1.535 476.796 471.474-45.336 44.927z" />
<glyph unicode="&#xe91e;" glyph-name="attachv" d="M731.619 653.829h-42.573v-560.201c0-97.733-79.517-177.25-177.25-177.25s-177.25 79.517-177.25 177.25v510.567c0 66.52 54.035 120.555 120.555 120.555s120.555-54.035 120.555-120.555v-510.567c0-35.204-28.655-63.859-63.859-63.859s-63.859 28.655-63.859 63.859v446.708h-42.573v-446.708c0-58.64 47.69-106.33 106.33-106.33s106.33 47.69 106.33 106.33v510.567c0 89.956-73.172 163.128-163.128 163.128s-163.128-73.172-163.128-163.128v-538.915c13.918-108.786 108.377-191.476 220.028-191.476s206.212 82.69 219.926 192.397l-0.102 587.628z" />
<glyph unicode="&#xe91f;" glyph-name="attachv-fill" d="M679.528 655.057v-558.462c0-92.514-75.014-167.528-167.528-167.528s-167.528 75.014-167.528 167.528v502.585c0 61.71 50.044 111.651 111.651 111.651 61.71 0 111.651-50.044 111.651-111.651v-502.585c0-30.804-24.971-55.877-55.877-55.877s-55.877 24.971-55.877 55.877v446.81h-55.877v-446.708c0-61.71 50.044-111.651 111.651-111.651 61.71 0 111.651 50.044 111.651 111.651v502.483c0 92.514-75.014 167.528-167.528 167.528s-167.528-75.014-167.528-167.528v-530.523c13.816-110.116 109.502-195.467 223.405-195.467s209.589 85.248 223.405 195.467v586.4h-55.672z" />
<glyph unicode="&#xe920;" glyph-name="add" d="M936.5 342.003h-402.907v402.907c0 12.076-9.825 21.9-21.9 21.9s-21.9-9.825-21.9-21.9v-402.907h-402.907c-12.076 0-21.9-9.825-21.9-21.9s9.825-21.9 21.9-21.9h402.907v-402.907c0-12.076 9.825-21.9 21.9-21.9s21.9 9.825 21.9 21.9v402.907h402.907c12.076 0 21.9 9.825 21.9 21.9s-9.825 21.9-21.9 21.9z" />
<glyph unicode="&#xe921;" glyph-name="bad-fill" d="M512 766.606c-246.329 0-446.708-200.379-446.708-446.606s200.379-446.606 446.708-446.606 446.81 200.277 446.81 446.606-200.481 446.606-446.81 446.606zM370.159 459.078c29.985 0 54.342-24.357 54.342-54.239 0-29.985-24.357-54.239-54.342-54.239s-54.239 24.357-54.239 54.239c0 29.883 24.357 54.239 54.239 54.239zM672.979 93.525c-3.582-7.061-9.62-12.281-17.193-14.839-3.172-1.023-6.345-1.637-9.62-1.637-9.415 0-18.319 4.708-23.845 12.281l-0.102 0.205-2.763 4.196c-13.816 45.541-61.608 77.368-116.257 77.368-54.239 0-102.032-31.623-116.052-76.856l-2.558-4.401h-0.205c-5.424-7.778-14.43-12.69-24.152-12.69-3.275 0-6.55 0.512-9.722 1.637-7.573 2.558-13.611 7.88-17.193 14.839-3.275 6.345-3.991 13.406-2.354 20.161h-0.102l0.307 0.921c0.102 0.409 0.307 0.921 0.409 1.33l0.307 0.819c24.459 64.269 93.333 107.558 171.11 107.558 78.084 0 146.958-43.494 171.315-108.070l0.819-2.149-0.205-0.205c2.047-7.164 1.228-14.225-1.944-20.468zM652.92 350.497c-29.985 0-54.342 24.357-54.342 54.239s24.357 54.239 54.342 54.239c29.985 0 54.239-24.357 54.239-54.239 0.102-29.883-24.254-54.239-54.239-54.239z" />
<glyph unicode="&#xe922;" glyph-name="baidu" d="M225.964 295.848c97.222 20.877 83.918 137.031 81.052 162.309-4.81 39.093-50.76 107.558-113.289 102.134-78.596-7.061-90.16-120.657-90.16-120.657-10.643-52.397 25.482-164.56 122.397-143.786zM637.467 481.49c71.739-9.313 117.894 67.236 127.002 125.262 9.313 57.924-36.944 125.262-87.704 136.827-50.862 11.667-114.415-69.795-120.248-122.909-6.857-65.087 9.313-129.97 80.95-139.18zM406.284 490.598c53.728 0 97.017 61.71 97.017 138.157 0 76.242-43.289 138.055-97.017 138.055-53.523 0-97.119-61.71-97.119-138.055 0.102-76.447 43.596-138.157 97.119-138.157zM921.866 384.064c0 27.734-23.026 111.344-108.581 111.344-85.657 0-97.119-78.903-97.119-134.575 0-53.216 4.503-127.514 110.935-125.16s94.766 120.453 94.766 148.391zM329.223 94.036c-2.865-8.187-9.21-29.064-3.684-47.28 10.848-40.731 46.257-42.573 46.257-42.573h50.862v124.341h-54.444c-24.561-7.368-36.433-26.403-38.991-34.488zM813.285 140.498c0 0-111.037 85.862-175.715 178.581-87.807 136.827-212.557 81.155-254.311 11.564-41.549-69.59-106.33-113.596-115.438-125.262-9.313-11.462-134.064-78.801-106.432-201.812 27.631-122.909 124.955-120.555 124.955-120.555s71.637-7.061 154.838 11.564c83.201 18.421 154.736-4.605 154.736-4.605s194.239-64.985 247.455 60.175c53.011 125.365-30.088 190.35-30.088 190.35zM480.889-45.86h-126.388c-54.546 10.848-76.242 48.099-79.005 54.444-2.661 6.447-18.114 36.33-9.927 87.295 23.538 76.242 90.774 81.769 90.774 81.769h67.236v82.587l57.31-0.921v-305.174zM716.063-45.042h-145.321c-56.389 14.532-58.947 54.546-58.947 54.546v160.672l58.947 0.921v-144.4c3.582-15.351 22.719-18.216 22.719-18.216h59.868v161.695h62.734v-215.218z" />
<glyph unicode="&#xe923;" glyph-name="bell" d="M832.422 221.141v262.908c0 176.636-143.786 320.32-320.422 320.32s-320.422-143.683-320.422-320.32l-0.819-266.592-125.467-250.934h292.484l1.33-6.55c14.634-72.353 79.005-124.853 152.894-124.853s138.259 52.5 152.894 124.853l1.33 6.55h292.484l-126.286 254.618zM612.292-44.428c-15.146-42.573-55.468-71.228-100.292-71.228s-85.146 28.655-100.292 71.228l-3.889 10.95h208.361l-3.889-10.95zM137.236 15.747l103.669 207.338v260.963c0 149.517 121.578 271.095 271.095 271.095s271.095-121.681 271.095-271.095v-260.963l103.669-207.338h-749.528z" />
<glyph unicode="&#xe924;" glyph-name="bell-fill" d="M831.092 192.384v255.232c0 176.227-142.865 319.092-319.092 319.092s-319.092-142.865-319.092-319.092v-255.232l-127.616-255.335h356.855c13.202-37.047 48.201-63.859 89.853-63.859s76.652 26.71 89.853 63.859h356.855l-127.616 255.335z" />
<glyph unicode="&#xe925;" glyph-name="build" d="M938.036-84.647h-116.359c0.102 2.661 0 5.219-0.205 7.573v783.197c0 31.418-29.985 61.096-61.71 61.096h-495.216c-31.725 0-61.71-29.678-61.71-61.096l0.102-780.946c-0.512-3.377-0.819-6.652-0.716-9.825h-116.052c-11.462 0-20.775-9.313-20.775-20.775s9.313-20.775 20.775-20.775h851.866c11.462 0 20.775 9.313 20.775 20.775s-9.313 20.775-20.775 20.775zM601.239-84.647h-178.274v246.943h178.274v-246.943zM780.127-84.442c-0.512 0-1.126 0-1.74 0l-7.982-0.102c-1.126 0.102-2.251 0.102-3.275 0.102l-124.239-0.102v267.718c0 11.462-9.313 20.775-20.775 20.775h-219.926c-11.462 0-20.775-9.313-20.775-20.775v-267.718h-120.555c-7.88 0-14.634 0.819-17.193 1.228 0 0.716 0.102 1.637 0.307 2.763 0.205 1.228 0.307 2.354 0.307 3.684v782.993c0 8.596 11.257 19.547 20.161 19.547h495.216c8.699 0 20.161-11.36 20.161-19.956l0.102-784.835c0.205-2.354 0.205-4.094 0.205-5.322zM443.433 640.832h-96.198c-9.927 0-18.012-8.085-18.012-18.012v-96.198c0-9.927 8.085-18.012 18.012-18.012h96.198c9.927 0 18.012 8.085 18.012 18.012v96.198c-0.102 9.927-8.085 18.012-18.012 18.012zM425.422 544.633h-60.277v60.175h60.277v-60.175zM676.97 640.832h-96.198c-9.927 0-18.012-8.085-18.012-18.012v-96.198c0-9.927 8.085-18.012 18.012-18.012h96.198c9.927 0 18.012 8.085 18.012 18.012v96.198c0 9.927-8.085 18.012-18.012 18.012zM659.061 544.633h-60.277v60.175h60.277v-60.175zM443.433 421.008h-96.198c-9.927 0-18.012-8.085-18.012-18.012v-96.198c0-9.927 8.085-18.012 18.012-18.012h96.198c9.927 0 18.012 8.085 18.012 18.012v96.198c-0.102 9.927-8.085 18.012-18.012 18.012zM425.422 324.81h-60.277v60.175h60.277v-60.175zM676.97 421.008h-96.198c-9.927 0-18.012-8.085-18.012-18.012v-96.198c0-9.927 8.085-18.012 18.012-18.012h96.198c9.927 0 18.012 8.085 18.012 18.012v96.198c0 9.927-8.085 18.012-18.012 18.012zM659.061 324.81h-60.277v60.175h60.277v-60.175z" />
<glyph unicode="&#xe926;" glyph-name="build-fill" d="M937.933-85.159h-116.359c0.102 2.661 0 5.219-0.205 7.573v783.197c0 31.418-29.985 61.096-61.71 61.096h-495.216c-31.725 0-61.71-29.678-61.71-61.096l0.102-780.946c-0.512-3.377-0.819-6.652-0.716-9.825h-116.052c-11.462 0-20.775-9.313-20.775-20.775s9.313-20.775 20.775-20.775h851.866c11.462 0 20.775 9.313 20.775 20.775s-9.313 20.775-20.775 20.775zM365.144 604.297h76.242v-76.242h-76.242v76.242zM365.144 400.438h76.242v-76.242h-76.242v76.242zM601.137-85.159h-178.274v246.943h178.274v-246.943zM658.958 324.196h-76.242v76.242h76.242v-76.242zM658.958 528.054h-76.242v76.242h76.242v-76.242z" />
<glyph unicode="&#xe927;" glyph-name="calendar" d="M260.452 65.586h33.362c16.067 0 29.167 13.099 29.167 29.167v33.362c0 16.067-13.099 29.167-29.167 29.167h-33.362c-16.067 0-29.167-13.099-29.167-29.167v-33.362c-0.102-16.067 12.997-29.167 29.167-29.167zM730.288 65.586h33.362c16.067 0 29.167 13.099 29.167 29.167v33.362c0 16.067-13.099 29.167-29.167 29.167h-33.362c-16.067 0-29.167-13.099-29.167-29.167v-33.362c-0.102-16.067 12.997-29.167 29.167-29.167zM495.319 263.714h33.362c16.067 0 29.167 13.099 29.167 29.167v33.362c0 16.067-13.099 29.167-29.167 29.167h-33.362c-16.067 0-29.167-13.099-29.167-29.167v-33.362c0-16.067 13.099-29.167 29.167-29.167zM495.319 65.586h33.362c16.067 0 29.167 13.099 29.167 29.167v33.362c0 16.067-13.099 29.167-29.167 29.167h-33.362c-16.067 0-29.167-13.099-29.167-29.167v-33.362c0-16.067 13.099-29.167 29.167-29.167zM824.030 710.012h-120.555v35.409c0 11.769-9.517 21.286-21.286 21.286s-21.286-9.517-21.286-21.286v-35.409h-297.805v35.409c0 11.769-9.517 21.286-21.286 21.286s-21.286-9.517-21.286-21.286v-35.409h-120.555c-58.64 0-106.33-47.69-106.33-106.33v-624.061c0-58.64 47.69-106.33 106.33-106.33h624.061c58.64 0 106.33 47.69 106.33 106.33v624.061c0 58.64-47.69 106.33-106.33 106.33zM887.787-20.378c0-35.204-28.655-63.859-63.757-63.859h-624.061c-35.204 0-63.859 28.655-63.859 63.859v517.629h751.677v-517.629zM887.787 539.823h-751.575v63.859c0 35.204 28.655 63.859 63.859 63.859h120.555v-35.409c0-11.769 9.517-21.286 21.286-21.286s21.286 9.517 21.286 21.286v35.409h297.805v-35.409c0-11.769 9.517-21.286 21.286-21.286s21.286 9.517 21.286 21.286v35.409h120.555c35.204 0 63.757-28.655 63.757-63.859v-63.859zM260.452 263.714h33.362c16.067 0 29.167 13.099 29.167 29.167v33.362c0 16.067-13.099 29.167-29.167 29.167h-33.362c-16.067 0-29.167-13.099-29.167-29.167v-33.362c-0.102-16.067 12.997-29.167 29.167-29.167zM730.288 263.714h33.362c16.067 0 29.167 13.099 29.167 29.167v33.362c0 16.067-13.099 29.167-29.167 29.167h-33.362c-16.067 0-29.167-13.099-29.167-29.167v-33.362c-0.102-16.067 12.997-29.167 29.167-29.167z" />
<glyph unicode="&#xe928;" glyph-name="calendar-fill" d="M824.030 710.115h-120.555v35.409c0 11.769-9.517 21.286-21.286 21.286s-21.286-9.517-21.286-21.286v-35.409h-297.805v35.409c0 11.769-9.517 21.286-21.286 21.286s-21.286-9.517-21.286-21.286v-35.409h-120.555c-58.64 0-106.33-47.69-106.33-106.33v-624.061c0-58.64 47.69-106.33 106.33-106.33h624.061c58.64 0 106.33 47.69 106.33 106.33v623.958c0 58.742-47.69 106.432-106.33 106.432zM322.981 94.855c0-16.067-13.099-29.167-29.167-29.167h-33.362c-16.067 0-29.167 13.099-29.167 29.167v33.362c0 16.067 13.099 29.167 29.167 29.167h33.362c16.067 0 29.167-13.099 29.167-29.167v-33.362zM322.981 292.983c0-16.067-13.099-29.167-29.167-29.167h-33.362c-16.067 0-29.167 13.099-29.167 29.167v33.362c0 16.067 13.099 29.167 29.167 29.167h33.362c16.067 0 29.167-13.099 29.167-29.167v-33.362zM557.95 94.855c0-16.067-13.099-29.167-29.167-29.167h-33.465c-16.067 0-29.167 13.099-29.167 29.167v33.362c0 16.067 13.099 29.167 29.167 29.167h33.362c16.067 0 29.167-13.099 29.167-29.167v-33.362zM557.95 292.983c0-16.067-13.099-29.167-29.167-29.167h-33.465c-16.067 0-29.167 13.099-29.167 29.167v33.362c0 16.067 13.099 29.167 29.167 29.167h33.362c16.067 0 29.167-13.099 29.167-29.167v-33.362zM792.817 94.855c0-16.067-13.099-29.167-29.167-29.167h-33.362c-16.067 0-29.167 13.099-29.167 29.167v33.362c0 16.067 13.099 29.167 29.167 29.167h33.362c16.067 0 29.167-13.099 29.167-29.167v-33.362zM792.817 292.983c0-16.067-13.099-29.167-29.167-29.167h-33.362c-16.067 0-29.167 13.099-29.167 29.167v33.362c0 16.067 13.099 29.167 29.167 29.167h33.362c16.067 0 29.167-13.099 29.167-29.167v-33.362zM887.89 539.926h-751.677v63.859c0 35.204 28.655 63.859 63.859 63.859h120.555v-35.409c0-11.769 9.517-21.286 21.286-21.286s21.286 9.517 21.286 21.286v35.409h297.805v-35.409c0-11.769 9.517-21.286 21.286-21.286s21.286 9.517 21.286 21.286v35.409h120.555c35.204 0 63.757-28.655 63.757-63.859v-63.859z" />
<glyph unicode="&#xe929;" glyph-name="camera" d="M512 483.128c-121.169 0-219.823-98.654-219.823-219.823s98.654-219.823 219.823-219.823 219.823 98.654 219.823 219.823-98.552 219.823-219.823 219.823zM512 85.952c-97.733 0-177.25 79.517-177.25 177.25s79.517 177.25 177.25 177.25 177.25-79.517 177.25-177.25-79.517-177.25-177.25-177.25zM852.378 596.519h-89.444l-34.693 69.386c-14.839 29.781-22.924 44.108-46.052 44.108h-340.378c-23.026 0-32.237-16.169-46.462-44.824l-34.283-68.567h-89.444c-58.64 0-106.33-47.69-106.33-106.33v-453.872c0-58.64 47.69-106.33 106.33-106.33h680.756c58.64 0 106.33 47.69 106.33 106.33v453.769c0.102 58.64-47.69 106.33-106.33 106.33zM916.237 36.317c0-35.204-28.655-63.859-63.859-63.859h-680.756c-35.204 0-63.859 28.655-63.859 63.859v453.872c0 35.204 28.655 63.859 63.859 63.859h109.093l26.403 52.807c4.196 6.959 7.471 12.997 10.643 18.626 12.895 23.538 23.129 42.061 52.5 42.061h283.683c29.371 0 39.503-18.523 52.5-42.061 3.070-5.629 6.447-11.667 10.336-18.114l26.71-53.318h109.093c35.204 0 63.859-28.655 63.859-63.859v-453.872z" />
<glyph unicode="&#xe92a;" glyph-name="camera-fill" d="M847.261 599.589h-83.713l-27.938 55.877c-16.477 32.441-24.971 55.877-55.877 55.877h-335.057c-30.804 0-41.038-26.608-55.877-55.877l-27.938-55.877h-83.815c-61.608 0-111.549-50.044-111.549-111.651v-446.708c0-61.71 50.044-111.651 111.651-111.651h670.113c61.71 0 111.651 50.044 111.651 111.651v446.708c0 61.608-49.941 111.651-111.651 111.651zM512.205 41.127c-123.318 0-223.405 99.985-223.405 223.405 0 123.318 99.985 223.405 223.405 223.405 123.318 0 223.405-99.985 223.405-223.405s-100.087-223.405-223.405-223.405zM512.205 432.061c-92.514 0-167.528-75.014-167.528-167.528s75.014-167.528 167.528-167.528c92.514 0 167.528 75.014 167.528 167.528s-75.014 167.528-167.528 167.528z" />
<glyph unicode="&#xe92b;" glyph-name="car" d="M958.094 343.129c-0.409 4.81-1.433 7.573-2.968 11.564-8.392 25.892-32.544 42.675-61.608 42.675h-139.283c-14.43 95.891-92.821 164.867-188.61 164.867h-179.297c-95.891 0-174.18-68.976-188.61-164.867h-67.953c-36.944 0-64.78-25.994-64.78-60.38v-92.207c0-36.74 29.678-67.646 64.78-67.646h24.050c3.684 0 7.164 0.921 10.132 2.661 6.754-57.105 55.57-100.804 113.903-100.804 60.175 0 110.219 46.359 114.312 105.204 3.787-4.298 9.415-7.061 15.658-7.061h220.13c4.298 0 8.289 1.33 11.564 3.582 6.345-57.514 55.365-101.725 114.005-101.725 59.663 0 109.4 45.541 114.21 103.669 3.684-3.377 8.596-5.424 14.020-5.424h11.871c35.204 0 64.883 31.009 64.883 67.646v92.207c0 1.433-0.102 2.865-0.409 6.038zM386.328 520.481h179.297c73.786 0 132.938-50.248 146.549-123.216h-472.395c13.611 73.070 72.763 123.216 146.549 123.216zM350.714 188.802c-2.354-38.275-34.283-68.26-72.865-68.26-38.479 0-70.511 30.395-72.967 69.693-0.205 1.228-0.205 2.354-0.205 3.48 0 1.433 0.102 2.968 0.409 5.526 0.512 8.596 2.661 16.988 6.652 25.278 7.266 15.862 20.058 28.552 36.228 35.819 9.21 4.298 19.24 6.55 30.088 6.55 38.172 0 70.204-30.088 72.967-68.874 0.205-1.433 0.307-2.968 0.307-4.401-0.307-1.126-0.409-2.456-0.614-4.81zM826.384 188.802c-2.354-38.275-34.283-68.26-72.865-68.26-38.479 0-70.511 30.395-72.967 69.59-0.102 1.228-0.205 2.456-0.205 3.684 0 1.535 0.102 3.070 0.307 5.526 0.512 8.596 2.661 16.988 6.55 25.278 7.266 15.862 20.058 28.552 36.228 35.819 9.21 4.298 19.342 6.55 30.088 6.55 38.172 0 70.204-30.19 72.967-68.976 0.205-1.33 0.205-2.763 0.205-4.196 0-1.33-0.102-2.558-0.307-5.015zM916.851 244.781c0-13.406-11.257-25.994-23.231-25.994h-11.871c-5.833 0-11.155-2.456-14.941-6.345-8.903 54.751-56.798 96.301-113.289 96.301-16.886 0-32.953-3.48-47.587-10.439-24.971-11.36-45.131-31.213-56.491-56.082-4.298-9.006-7.266-18.421-8.903-27.734-3.48 2.661-7.88 4.196-12.588 4.196h-220.233c-6.652 0-12.588-3.172-16.374-7.982-8.187 55.57-56.491 97.938-113.494 97.938-16.886 0-32.953-3.48-47.587-10.439-25.073-11.36-45.131-31.316-56.491-56.082-4.094-8.699-7.061-17.807-8.801-26.71-3.275 2.047-7.061 3.275-11.155 3.275h-24.050c-12.076 0-23.026 12.383-23.026 25.994v92.207c0 13.816 12.383 18.728 23.026 18.728h763.855c5.219 0 17.807-1.433 22.514-15.555 0.409-0.921 0.409-1.023 0.716-3.172v-92.105z" />
<glyph unicode="&#xe92c;" glyph-name="car-fill" d="M958.299 342.514c-0.409 4.81-1.433 7.573-2.968 11.564-8.392 25.892-32.544 42.675-61.608 42.675h-139.283c-14.43 95.891-92.821 164.867-188.61 164.867h-179.297c-95.891 0-174.18-68.976-188.61-164.867h-67.953c-36.944 0-64.78-25.994-64.78-60.38v-92.207c0-36.74 29.678-67.646 64.78-67.646h24.050c3.684 0 7.164 0.921 10.132 2.661 6.754-57.105 55.57-100.804 113.903-100.804 60.175 0 110.219 46.359 114.312 105.204 3.787-4.298 9.415-7.061 15.658-7.061h220.13c4.298 0 8.289 1.33 11.564 3.582 6.345-57.514 55.365-101.725 114.005-101.725 59.663 0 109.4 45.541 114.21 103.669 3.684-3.377 8.596-5.424 14.020-5.424h11.871c35.204 0 64.883 31.009 64.883 67.646v92.207c0.102 1.535-0.102 2.968-0.409 6.038zM240.086 396.754c13.611 72.967 72.763 123.216 146.549 123.216h179.297c73.786 0 132.938-50.248 146.549-123.216h-472.395z" />
<glyph unicode="&#xe92d;" glyph-name="cbo" d="M815.025 763.945h-605.128c-79.517 0-144.195-64.166-144.195-143.172v-613.827c0-77.47 54.137-129.458 134.78-129.458h620.888c80.643 0 137.645 51.988 137.645 129.458l0.205 613.827c0 78.903-64.678 143.172-144.195 143.172zM821.37-79.939h-620.991c-45.643 0-92.207 46.564-92.207 92.207v616.897c0 45.643 46.564 92.207 92.207 92.207h624.061c45.643 0 92.207-46.564 92.207-92.207l0.307-616.897c0-45.643-49.941-92.207-95.584-92.207z" />
<glyph unicode="&#xe92e;" glyph-name="cbo-fill" d="M814.615 763.228h-605.128c-79.517 0-144.195-64.269-144.195-143.172v-613.827c0-77.47 54.137-129.458 134.78-129.458h620.888c80.643 0 137.645 51.988 137.645 129.458l0.205 613.827c0 78.903-64.78 143.172-144.195 143.172z" />
<glyph unicode="&#xe92f;" glyph-name="cbook" d="M958.708 619.647c0 78.903-64.678 143.069-144.093 143.069h-604.821c-79.415 0-144.093-64.166-144.093-143.069v-613.52c0-77.47 54.137-129.356 134.678-129.356h620.684c80.54 0 138.157 51.988 138.157 129.356l-0.512 613.52zM820.96-80.758h-620.581c-45.643 0-92.105 46.462-92.105 92.105v616.795c0 45.643 46.462 92.105 92.105 92.105h623.754c45.643 0 92.105-46.462 92.105-92.105l0.307-616.692c0.102-45.745-49.941-92.207-95.584-92.207zM675.742 487.119l-230.262-261.782-96.096 90.365c-13.304 13.509-34.693 13.509-47.997 0s-13.304-35.204 0-48.713l118.406-115.029c7.061-7.164 16.477-10.234 25.687-9.722 9.21-0.512 18.523 2.558 25.687 9.722l252.572 286.446c13.304 13.509 13.304 35.204 0 48.713s-34.693 13.509-47.997 0z" />
<glyph unicode="&#xe930;" glyph-name="cbook-fill" d="M814.615 763.228h-605.128c-79.517 0-144.195-64.269-144.195-143.172v-613.827c0-77.47 54.137-129.458 134.78-129.458h615.976c80.643 0 134.78 51.988 134.78 129.458l8.085 613.827c-0.102 78.903-64.883 143.172-144.297 143.172zM723.227 438.815l-252.674-286.548c-7.061-7.164-16.477-10.234-25.687-9.722-9.21-0.512-18.626 2.558-25.687 9.722l-118.406 114.926c-13.202 13.509-13.202 35.307 0 48.713 13.202 13.509 34.693 13.509 47.997 0l96.198-90.263 230.364 261.884c13.202 13.509 34.693 13.509 47.997 0 13.202-13.509 13.202-35.307-0.102-48.713z" />
<glyph unicode="&#xe931;" glyph-name="chartbar" d="M283.478 501.549h-79.005c-30.19 0-54.751-24.561-54.751-54.751v-518.345c0-30.19 24.561-54.649 54.751-54.649h79.005c30.19 0 54.751 24.561 54.751 54.649v518.345c0 30.19-24.561 54.751-54.751 54.751zM296.373-71.547c0-7.061-5.731-12.895-12.895-12.895h-79.005c-7.061 0-12.895 5.731-12.895 12.895v518.345c0 7.061 5.731 12.895 12.895 12.895h79.005c7.061 0 12.895-5.731 12.895-12.895v-518.345zM551.707 307.515h-79.005c-30.19 0-54.649-24.561-54.649-54.751v-324.209c0-30.19 24.561-54.649 54.649-54.649h79.005c30.19 0 54.751 24.561 54.751 54.649v324.209c0 30.19-24.561 54.751-54.751 54.751zM564.602-71.547c0-7.061-5.731-12.895-12.895-12.895h-79.005c-7.061 0-12.895 5.731-12.895 12.895v324.311c0 7.061 5.731 12.895 12.895 12.895h79.005c7.061 0 12.895-5.731 12.895-12.895v-324.311zM819.937 767.322h-79.005c-30.19 0-54.751-24.561-54.751-54.751v-784.118c0-30.19 24.561-54.649 54.751-54.649h79.005c30.19 0 54.751 24.561 54.751 54.649v784.118c0 30.19-24.561 54.751-54.751 54.751zM832.832-71.547c0-7.061-5.731-12.895-12.895-12.895h-79.005c-7.061 0-12.895 5.731-12.895 12.895v784.118c0 7.061 5.731 12.895 12.895 12.895h79.005c7.061 0 12.895-5.731 12.895-12.895v-784.118z" />
<glyph unicode="&#xe932;" glyph-name="chartbar-fill" d="M283.273 501.037h-79.005c-30.19 0-54.751-24.561-54.751-54.751v-518.345c0-30.19 24.561-54.649 54.751-54.649h79.005c30.19 0 54.751 24.561 54.751 54.649v518.345c0 30.19-24.561 54.751-54.751 54.751zM551.503 306.901h-79.005c-30.19 0-54.649-24.561-54.649-54.751v-324.209c0-30.19 24.561-54.649 54.649-54.649h79.005c30.19 0 54.751 24.561 54.751 54.649v324.209c0 30.19-24.561 54.751-54.751 54.751zM819.732 766.708h-79.005c-30.19 0-54.751-24.561-54.751-54.751v-784.118c0-30.19 24.561-54.649 54.751-54.649h79.005c30.19 0 54.751 24.561 54.751 54.649v784.118c0 30.19-24.561 54.751-54.751 54.751z" />
<glyph unicode="&#xe933;" glyph-name="chartline" d="M942.538 256.959c-15.965 19.342-41.345 28.655-66.827 23.947-27.529-5.219-49.532-27.222-54.649-54.751-2.865-14.839-0.614-30.19 6.14-43.903l-145.628-158.83c-15.146 10.234-33.772 14.43-52.397 10.848-0.102 0-0.307 0-0.409-0.102l-205.598 602.365c5.015 7.573 8.596 16.169 10.234 24.971 3.889 20.672-1.433 41.652-14.634 57.514-15.965 19.342-41.345 28.655-66.827 23.947-27.529-5.219-49.532-27.222-54.649-54.751-3.172-16.681-0.102-33.669 8.596-48.406l-169.984-311.621c-5.015 0.205-9.927-0.205-15.044-1.126-27.529-5.219-49.532-27.222-54.649-54.751-3.889-20.672 1.433-41.652 14.634-57.514 16.067-19.444 41.652-28.552 66.827-23.845 27.529 5.219 49.532 27.222 54.751 54.751 3.889 20.672-1.433 41.652-14.634 57.514-2.456 2.968-5.219 5.833-8.187 8.392l162.616 298.112c11.667-4.196 24.254-5.117 36.637-2.763 1.74 0.307 3.48 0.716 5.322 1.33l204.37-598.681c-7.061-8.801-11.871-19.035-13.816-29.781-3.889-20.672 1.433-41.652 14.634-57.617s32.646-25.073 53.421-25.073c4.401 0 8.903 0.409 13.406 1.228 27.529 5.219 49.532 27.222 54.751 54.751 1.944 10.336 1.433 21.286-1.637 31.93l151.359 165.072c13.509-6.345 27.836-7.982 42.061-5.322 27.529 5.219 49.532 27.222 54.751 54.751 3.582 20.468-1.74 41.447-14.941 57.412zM162.104 253.071c-2.047-10.746-11.257-20.058-22.003-22.003-10.848-2.047-21.082 1.74-27.836 9.722-5.526 6.652-7.573 15.146-5.936 23.947 2.047 10.746 11.257 20.058 22.003 22.003 1.944 0.409 3.991 0.512 5.833 0.512 8.494 0 16.477-3.787 21.9-10.336 5.629-6.55 7.778-15.044 6.038-23.845zM393.287 669.077c-2.047-10.746-11.36-20.058-22.105-22.105-10.848-2.047-21.184 1.74-27.836 9.722-5.526 6.652-7.675 15.146-5.936 24.050 2.047 10.746 11.257 20.058 22.003 22.105 1.944 0.409 3.991 0.512 5.833 0.512 8.494 0 16.477-3.787 21.9-10.336 5.731-6.754 7.778-15.044 6.14-23.947zM670.522-39.618c-2.047-10.746-11.257-20.058-22.003-22.003-10.848-1.944-21.184 1.74-27.836 9.825-5.526 6.652-7.675 15.146-5.936 23.947 2.047 10.848 11.155 19.956 22.003 22.003 1.944 0.409 3.991 0.614 5.833 0.614 8.494 0 16.477-3.787 21.9-10.336 5.526-6.754 7.675-15.248 6.038-24.050zM916.954 206.916c-2.047-10.746-11.257-20.058-22.003-22.003-10.848-2.047-21.082 1.74-27.836 9.722-5.526 6.652-7.573 15.146-5.936 24.050 2.047 10.746 11.257 20.058 22.003 22.003 1.944 0.409 3.991 0.512 5.833 0.512 8.494 0 16.477-3.787 21.9-10.336 5.629-6.754 7.778-15.146 6.038-23.947z" />
<glyph unicode="&#xe934;" glyph-name="chartline-fill" d="M941.413 262.281c-17.398 21.082-45.336 31.316-72.865 26.096-30.088-5.731-54.137-29.781-59.766-59.868-2.763-14.327-1.126-29.474 4.503-43.085l-135.599-147.777c-11.36 6.447-24.152 9.825-37.149 9.825-2.865 0-5.731-0.205-8.289-0.409l-198.844 582.511c4.401 7.471 7.573 15.76 9.21 24.152 4.298 22.514-1.535 45.438-16.067 62.836-17.398 21.082-45.438 31.213-72.865 26.096-30.088-5.731-54.137-29.781-59.766-59.766-3.172-16.681-0.614-33.976 7.266-49.020l-163.025-298.829c-3.889-0.102-7.778-0.512-11.667-1.228-30.088-5.731-54.137-29.781-59.766-59.868-4.298-22.514 1.535-45.438 16.067-62.836 17.398-21.082 45.541-31.111 72.865-26.096 30.088 5.731 54.137 29.781 59.868 59.868 4.298 22.514-1.535 45.438-15.965 62.836-1.433 1.74-2.865 3.377-4.503 5.015l153.917 282.25c10.439-2.763 21.593-3.275 32.646-1.33l197.411-578.213c-6.345-8.801-10.643-18.83-12.588-29.269-4.298-22.514 1.535-45.438 16.067-62.836 14.43-17.5 35.716-27.427 58.333-27.427 5.015 0 9.927 0.512 14.532 1.33 30.088 5.731 54.137 29.781 59.868 59.868 1.842 9.927 1.637 20.468-0.716 30.702l142.251 155.452c12.997-5.015 26.915-6.243 40.833-3.582 30.088 5.731 54.035 29.781 59.766 59.766 4.298 22.514-1.535 45.438-15.965 62.836z" />
<glyph unicode="&#xe935;" glyph-name="chartpie" d="M483.652 767.322h-49.634v-84.327l-6.345-0.716c-203.244-22.003-362.381-199.56-362.381-404.237 0-222.893 181.344-404.237 404.237-404.237 159.137 0 304.048 94.152 369.033 239.779l2.456 5.526 64.78-17.295c34.181 58.231 53.011 129.868 53.011 202.528-0.102 250.934-217.674 462.98-475.158 462.98zM793.943 123.51c-47.485-120.043-184.005-207.133-324.516-207.133-199.458 0-361.665 162.207-361.665 361.665 0 177.046 139.692 335.875 318.068 361.562l8.085 1.228v-384.077l362.688-126.388-2.661-6.857zM874.176 157.896l-2.865-5.117-394.72 134.371v437.6h9.108c227.703 0 427.468-196.49 427.468-420.407-0.102-53.523-12.076-98.654-38.991-146.447z" />
<glyph unicode="&#xe936;" glyph-name="chartpie-fill" d="M484.062 766.708v-483.038l445.275-133.552c17.295 42.982 29.371 94.868 29.371 153.917 0.102 255.539-238.551 462.673-474.646 462.673zM428.287 682.995c-194.648-20.365-362.995-196.183-362.995-404.851 0-223.61 181.242-404.851 404.851-404.851 164.663 0 306.095 98.45 369.34 239.575l-411.196 123.318v446.81z" />
<glyph unicode="&#xe937;" glyph-name="chat" d="M512 763.945c-246.329 0-446.708-174.999-446.708-390.012 0-118.61 60.891-229.341 167.119-303.946l3.070-2.149v-191.885l190.247 115.54 2.558-0.409c28.45-4.708 56.593-7.061 83.713-7.061 246.329 0 446.708 174.999 446.708 390.012s-200.379 389.91-446.708 389.91zM512 26.493c-30.804 0-62.631 3.377-94.663 10.029l-142.046-85.35 1.944 140.306c-106.125 65.19-169.37 170.496-169.37 282.455 0 191.578 181.344 347.44 404.237 347.44s404.237-155.862 404.237-347.44-181.446-347.44-404.34-347.44z" />
<glyph unicode="&#xe938;" glyph-name="chatdot" d="M512 763.945c-246.329 0-446.708-174.999-446.708-390.012 0-118.61 60.891-229.341 167.119-303.946l3.070-2.149v-191.885l190.247 115.54 2.558-0.409c28.45-4.708 56.593-7.061 83.713-7.061 246.329 0 446.708 174.999 446.708 390.012s-200.379 389.91-446.708 389.91zM512 26.493c-30.804 0-62.631 3.377-94.663 10.029l-142.046-85.35 1.944 140.204c-106.125 65.292-169.37 170.598-169.37 282.557 0 191.578 181.344 347.44 404.237 347.44s404.237-155.862 404.237-347.44-181.446-347.44-404.34-347.44zM738.885 423.567c-27.324 0-49.634-22.31-49.634-49.634s22.31-49.634 49.634-49.634 49.634 22.31 49.634 49.634-22.207 49.634-49.634 49.634zM512 423.567c-27.324 0-49.634-22.31-49.634-49.634s22.31-49.634 49.634-49.634 49.634 22.31 49.634 49.634-22.207 49.634-49.634 49.634zM285.115 423.567c-27.324 0-49.634-22.31-49.634-49.634s22.31-49.634 49.634-49.634 49.634 22.31 49.634 49.634-22.31 49.634-49.634 49.634z" />
<glyph unicode="&#xe939;" glyph-name="chatdot-fill" d="M512.409 767.22c-246.738 0-446.708-174.999-446.708-390.933 0-123.42 65.497-233.23 167.528-304.867v-197.718l195.671 118.713c27.12-4.503 54.956-7.061 83.508-7.061 246.738 0 446.708 174.999 446.708 390.933s-200.072 390.933-446.708 390.933zM289.004 320.512c-30.804 0-55.877 24.971-55.877 55.877 0 30.804 24.971 55.877 55.877 55.877 30.804 0 55.877-24.971 55.877-55.877-0.102-30.906-25.073-55.877-55.877-55.877zM512.409 320.512c-30.804 0-55.877 24.971-55.877 55.877 0 30.804 24.971 55.877 55.877 55.877 30.804 0 55.877-24.971 55.877-55.877-0.102-30.906-25.073-55.877-55.877-55.877zM735.712 320.512c-30.804 0-55.877 24.971-55.877 55.877 0 30.804 24.971 55.877 55.877 55.877 30.804 0 55.877-24.971 55.877-55.877s-24.971-55.877-55.877-55.877z" />
<glyph unicode="&#xe93a;" glyph-name="chat-fill" d="M512.409 767.22c-246.738 0-446.708-174.999-446.708-390.933 0-123.42 65.497-233.23 167.528-304.867v-197.718l195.671 118.713c27.12-4.503 54.956-7.061 83.508-7.061 246.738 0 446.708 174.999 446.708 390.933s-199.97 390.933-446.708 390.933z" />
<glyph unicode="&#xe93b;" glyph-name="chatline" d="M653.841 281.725h-283.683c-11.769 0-21.286-9.517-21.286-21.286s9.517-21.286 21.286-21.286h283.683c11.769 0 21.286 9.517 21.286 21.286s-9.517 21.286-21.286 21.286zM710.537 451.914h-397.074c-11.769 0-21.286-9.517-21.286-21.286s9.517-21.286 21.286-21.286h397.074c11.769 0 21.286 9.517 21.286 21.286s-9.517 21.286-21.286 21.286zM512 763.945c-246.329 0-446.708-174.999-446.708-390.012 0-118.61 60.891-229.341 167.119-303.946l3.070-2.149v-191.885l190.247 115.54 2.558-0.409c28.45-4.708 56.593-7.061 83.713-7.061 246.329 0 446.708 174.999 446.708 390.012s-200.379 389.91-446.708 389.91zM512 26.493c-30.804 0-62.631 3.377-94.663 10.029l-142.046-85.35 1.944 140.204c-106.125 65.292-169.37 170.598-169.37 282.557 0 191.578 181.344 347.44 404.237 347.44s404.237-155.862 404.237-347.44-181.446-347.44-404.34-347.44z" />
<glyph unicode="&#xe93c;" glyph-name="chatline-fill" d="M511.898 767.22c-246.738 0-446.708-174.999-446.708-390.933 0-123.42 65.497-233.23 167.528-304.867v-197.718l195.671 118.713c27.12-4.503 54.956-7.061 83.508-7.061 246.738 0 446.708 174.999 446.708 390.933s-199.97 390.933-446.708 390.933zM651.488 236.799h-279.18c-15.453 0-27.938 12.485-27.938 27.938s12.485 27.938 27.938 27.938h279.18c15.453 0 27.938-12.485 27.938-27.938s-12.485-27.938-27.938-27.938zM707.364 404.327h-390.933c-15.453 0-27.938 12.485-27.938 27.938s12.485 27.938 27.938 27.938h390.933c15.453 0 27.938-12.485 27.938-27.938-0.102-15.453-12.588-27.938-27.938-27.938z" />
<glyph unicode="&#xe93d;" glyph-name="chats" d="M599.909 412.309c20.161 0 36.637 16.374 36.637 36.637s-16.374 36.637-36.637 36.637c-20.161 0-36.637-16.374-36.637-36.637s16.477-36.637 36.637-36.637zM855.96 500.935c0.102-2.661 0.205-5.322 0.205-7.982 0-16.169-1.33-32.953-3.991-52.704 40.935-49.123 62.631-106.739 62.631-167.017 0-95.687-54.649-184.107-146.447-237.323v-113.289l-108.786 72.558c-25.175-5.015-50.146-7.573-74.298-7.573-78.391 0-119.941 23.947-173.259 60.482-22.617-1.74-42.164-2.456-61.505-1.535 55.365-51.272 123.83-95.584 234.765-95.584 22.412 0 45.029 1.944 68.976 5.833l2.661 0.409 155.35-95.687v156.885l3.172 2.149c91.081 62.427 143.274 155.759 143.274 256.256 0.102 84.225-36.33 163.23-102.748 224.122zM460.728 448.947c0 20.161-16.374 36.637-36.637 36.637-20.161 0-36.637-16.374-36.637-36.637s16.374-36.637 36.637-36.637c20.263 0 36.637 16.374 36.637 36.637zM248.376 485.584c-20.161 0-36.637-16.374-36.637-36.637s16.374-36.637 36.637-36.637c20.161 0 36.637 16.374 36.637 36.637s-16.477 36.637-36.637 36.637zM782.993 452.631c0 186.563-181.753 325.948-344.165 325.948-205.905 0-373.536-146.242-373.536-325.948 0-104.181 39.605-192.908 114.619-256.665l2.558-2.149v-156.987l156.373 90.57 2.558-0.409c22.207-3.684 73.172-7.573 97.324-7.573 196.285-0.102 344.267 143.172 344.267 333.214zM335.261 170.893l-108.888-72.558v114.005c-77.777 64.166-117.178 143.786-117.178 236.607 0 160.16 144.707 285.627 329.53 285.627 141.739 0 300.261-122.192 300.261-285.627 0-165.482-126.286-285.627-300.261-285.627-23.129 0-76.14 2.558-103.464 7.573z" />
<glyph unicode="&#xe93e;" glyph-name="chats-fill" d="M831.501 512.090l1.433-24.050c0.205-22.822 0-20.775 0-41.856 0-222.689-175.408-376.913-418.872-376.913-32.032 0-83.815 0-83.815 0 66.418-64.985 143.786-104.692 251.344-104.692 22.822 0 45.131 2.047 66.827 5.629l156.476-96.403v158.318c84.839 58.128 139.59 148.391 139.59 250.013 0.102 90.57-43.392 172.134-112.982 229.955zM348.156 132.413c21.696-3.582 71.023-7.368 93.947-7.368 200.481 0 335.057 149.21 335.057 324.618s-168.142 317.557-335.057 317.557c-200.788 0-362.995-142.148-362.995-317.557 0-101.622 38.684-187.894 111.651-250.013v-158.318l157.397 91.081zM595.611 488.040c23.129 0 41.856-18.728 41.856-41.856s-18.728-41.856-41.856-41.856c-23.129 0-41.856 18.728-41.856 41.856s18.728 41.856 41.856 41.856zM428.082 488.040c23.129 0 41.856-18.728 41.856-41.856s-18.728-41.856-41.856-41.856c-23.129 0-41.856 18.728-41.856 41.856s18.728 41.856 41.856 41.856zM260.554 488.040c23.129 0 41.856-18.728 41.856-41.856s-18.728-41.856-41.856-41.856c-23.129 0-41.856 18.728-41.856 41.856s18.728 41.856 41.856 41.856z" />
<glyph unicode="&#xe93f;" glyph-name="chatsquare" d="M814.615 764.866h-605.128c-79.517 0-144.195-64.166-144.195-143.172v-479.047c0-77.47 54.137-129.458 134.78-129.458h191.476l120.453-138.157 120.453 138.157h191.578c80.643 0 134.78 51.988 134.78 129.458v479.149c0 78.903-64.78 143.069-144.195 143.069zM916.237 147.969c0-45.643-46.564-92.207-92.207-92.207h-223.405l-88.625-118.201-88.625 118.201h-223.405c-45.643 0-92.207 46.564-92.207 92.207v482.219c0 45.643 46.564 92.207 92.207 92.207h624.061c45.643 0 92.207-46.564 92.207-92.207v-482.219z" />
<glyph unicode="&#xe940;" glyph-name="chatsquare-fill" d="M809.601 767.322h-595.611c-82.28 0-148.903-66.213-148.903-147.879v-471.576c0-81.666 57.412-134.371 139.59-134.371h185.335l121.783-139.59 121.783 139.59h185.335c82.28 0 139.59 52.704 139.59 134.371v471.576c0 81.666-66.622 147.879-148.903 147.879z" />
<glyph unicode="&#xe941;" glyph-name="chattip" d="M512 764.866c-246.329 0-446.708-171.315-446.708-382.030 0-168.756 132.426-319.501 321.957-366.679l2.149-0.512 122.602-140.613 122.602 140.613 2.149 0.512c189.633 47.178 321.957 197.923 321.957 366.679 0.102 210.715-200.379 382.030-446.708 382.030zM615.055 66.917l-103.055-128.844-103.055 128.844c-177.557 38.479-301.285 170.598-301.285 322.162 0 183.902 181.446 333.521 404.442 333.521s404.442-149.619 404.442-333.521c-0.102-151.563-123.932-283.683-301.49-322.162z" />
<glyph unicode="&#xe942;" glyph-name="chattip-fill" d="M512.307 767.322c-246.738 0-446.708-171.519-446.708-383.053 0-174.487 136.213-321.446 322.264-367.703l124.444-142.762 124.444 142.762c186.052 46.257 322.264 193.215 322.264 367.703 0.102 211.534-199.97 383.053-446.708 383.053z" />
<glyph unicode="&#xe943;" glyph-name="clear" d="M512 766.708c-246.738 0-446.708-199.97-446.708-446.708s199.97-446.708 446.708-446.708c246.738 0 446.708 199.97 446.708 446.708 0.102 246.738-199.97 446.708-446.708 446.708zM512-59.369c-209.487 0-379.369 169.882-379.369 379.369s169.882 379.369 379.369 379.369c209.487 0 379.369-169.882 379.369-379.369s-169.78-379.369-379.369-379.369zM568.798 318.465l153.815 153.815c4.298 4.196 5.936 10.746 4.81 18.319-1.228 8.392-5.833 16.784-12.792 23.743l-1.842 1.842c-8.289 8.289-18.83 13.202-28.245 13.202-3.991 0-9.517-0.921-13.816-5.117l-153.815-153.917-164.56 164.56c-4.298 4.298-10.029 5.219-14.123 5.219-9.62 0-20.365-5.015-28.655-13.406l-1.842-1.842c-13.816-13.816-17.5-33.362-8.187-42.778l164.56-164.56-160.672-160.672c-9.21-9.21-5.526-28.45 7.982-42.061l1.842-1.842c8.289-8.187 18.83-13.099 28.245-13.099 3.991 0 9.62 0.921 13.816 5.117l160.672 160.672 155.657-155.657c4.298-4.298 10.029-5.219 14.020-5.219 9.62 0 20.365 5.015 28.655 13.304l1.944 1.944c13.816 13.816 17.5 33.362 8.187 42.778l-155.657 155.657z" />
<glyph unicode="&#xe944;" glyph-name="clear-fill" d="M512 766.708c-246.738 0-446.708-199.97-446.708-446.708s199.97-446.708 446.708-446.708c246.738 0 446.708 199.97 446.708 446.708 0.102 246.738-199.97 446.708-446.708 446.708zM721.385 115.016l-1.944-1.944c-16.784-16.784-40.424-20.468-52.807-8.085l-150.54 150.642-155.759-155.657c-12.178-12.178-35.511-8.596-52.090 7.982l-1.842 1.842c-16.579 16.579-20.161 39.912-7.982 52.090l155.657 155.657-159.546 159.546c-12.383 12.383-8.699 35.921 8.085 52.807l1.944 1.944c16.784 16.784 40.424 20.468 52.807 8.085l159.546-159.546 148.8 148.8c12.178 12.178 35.511 8.596 52.090-7.982l1.842-1.842c16.579-16.579 20.161-39.912 7.982-52.090l-148.8-148.8 150.642-150.642c12.383-12.383 8.801-36.023-8.085-52.807z" />
<glyph unicode="&#xe945;" glyph-name="close" d="M545.772 320.512l380.188 380.188c9.108 9.108 9.108 24.050 0 33.362-9.108 9.108-24.050 9.108-33.362 0l-380.086-380.29-380.29 380.188c-9.108 9.108-24.050 9.108-33.362 0-9.108-9.108-9.108-24.050 0-33.362l380.188-380.188-379.983-380.188c-9.108-9.108-9.108-24.050 0-33.362 4.605-4.605 10.643-6.857 16.579-6.857 6.038 0 12.076 2.251 16.579 6.857l380.188 380.188 380.188-380.188c4.605-4.605 10.643-6.857 16.579-6.857 6.038 0 12.076 2.251 16.579 6.857 9.108 9.108 9.108 24.050 0 33.362l-379.983 380.29z" />
<glyph unicode="&#xe946;" glyph-name="close-fill" d="M576.883 320.409l351.226 351.226c17.807 17.807 17.807 46.769 0 64.473-17.295 17.295-47.28 17.295-64.473 0l-351.226-351.226-351.226 351.226c-17.295 17.295-47.28 17.295-64.473 0-17.807-17.807-17.807-46.769 0-64.473l351.226-351.226-351.226-351.226c-17.807-17.807-17.807-46.769 0-64.473 17.295-17.295 47.28-17.295 64.473 0l351.226 351.226 351.226-351.226c8.596-8.596 20.161-13.406 32.237-13.406s23.64 4.81 32.237 13.406c17.807 17.807 17.807 46.769 0 64.473l-351.226 351.226z" />
<glyph unicode="&#xe947;" glyph-name="computer" d="M643.096 76.127l-40.219-8.085 14.839-74.195c0.614-2.968 0.205-6.243-1.228-9.006l-0.921-1.842c-2.354-4.81-7.266-7.778-12.588-7.778h-146.651c-5.424 0-10.132 2.968-12.588 7.778-1.637 3.275-1.944 6.959-0.921 10.439 2.047 6.857 15.555 62.734 11.974 76.856l-1.637 6.857-24.357-6.243-14.43-0.614 0.307-6.959c0.205-4.912-6.14-42.061-10.95-57.924-4.094-13.509-2.968-27.938 3.48-40.628 9.415-18.83 28.245-30.497 49.327-30.497h146.651c21.082 0 39.912 11.667 49.327 30.497l0.921 1.74c5.526 10.848 7.164 23.538 4.81 35.409l-15.146 74.195zM891.881 705.919h-759.352c-36.944 0-67.134-30.088-67.134-67.134v-475.158c0-36.944 30.088-67.134 67.134-67.134h759.352c36.944 0 67.134 30.088 67.134 67.134v475.26c-0.102 36.944-30.19 67.032-67.134 67.032zM917.875 159.124c0-15.862-13.918-21.491-25.994-21.491h-759.352c-11.974 0-25.994 5.629-25.994 21.491v86.271h811.34v-86.271zM917.875 286.535h-811.34v347.747c0 13.816 11.564 30.497 25.994 30.497h759.352c14.43 0 25.994-16.681 25.994-30.497v-347.747z" />
<glyph unicode="&#xe948;" glyph-name="computer-fill" d="M642.686 76.127l-40.219-8.085 14.839-74.195c0.614-2.968 0.205-6.243-1.228-9.006l-0.921-1.842c-2.354-4.81-7.266-7.778-12.588-7.778h-146.651c-5.322 0-10.132 2.968-12.588 7.778-1.637 3.275-1.944 6.959-0.921 10.336 2.047 6.857 15.555 62.734 11.974 76.856l-1.74 6.754-24.357-6.243-14.43-0.614 0.205-6.959c0.205-4.912-6.243-42.061-11.053-57.924-4.094-13.509-2.865-27.938 3.48-40.628 9.415-18.83 28.245-30.497 49.327-30.497h146.651c20.979 0 39.912 11.667 49.327 30.497l0.921 1.74c5.424 10.95 7.164 23.538 4.708 35.409l-14.737 74.4zM891.472 705.919h-759.352c-36.944 0-67.032-30.088-67.032-67.032v-475.26c0-36.944 30.088-67.032 67.032-67.032h759.352c36.944 0 67.032 30.088 67.032 67.032v475.26c0 36.944-29.985 67.032-67.032 67.032zM917.466 159.124c0-15.862-14.020-21.491-25.994-21.491h-759.352c-11.974 0-25.994 5.629-25.994 21.491v86.271h811.34v-86.271z" />
<glyph unicode="&#xe949;" glyph-name="contact" d="M811.033 766.708h-567.365c-37.047 0-50.146-27.017-50.146-50.146v-121.783h-37.968c-10.643 0-19.342-8.699-19.342-19.342s8.699-19.342 19.342-19.342h37.968v-131.607h-35.307c-10.643 0-19.342-8.699-19.342-19.342s8.699-19.342 19.342-19.342h35.307v-132.017h-35.921c-10.643 0-19.342-8.699-19.342-19.342s8.699-19.342 19.342-19.342h35.921v-131.403h-35.921c-10.643 0-19.342-8.699-19.342-19.342s8.699-19.342 19.342-19.342h35.921v-123.523c0-44.927 37.354-48.406 48.816-48.406h568.696c42.368 0 76.856 34.488 76.856 76.856v740.010c-0.102 42.266-34.488 76.754-76.856 76.754zM847.978-49.954c0-20.468-16.579-37.047-37.047-37.047h-577.19l-0.512 8.596v123.523h39.81c10.643 0 19.342 8.699 19.342 19.342s-8.699 19.342-19.342 19.342h-39.707v131.403h39.81c10.643 0 19.342 8.699 19.342 19.342s-8.699 19.342-19.342 19.342h-39.707v132.221h40.321c10.643 0 19.342 8.699 19.342 19.342s-8.699 19.342-19.342 19.342h-40.321v131.607h37.558c10.643 0 19.342 8.699 19.342 19.342s-8.699 19.342-19.342 19.342h-37.558v124.853l1.126 6.652 9.006 0.512h567.365c20.365 0 37.047-16.579 37.047-37.047v-740.010z" />
<glyph unicode="&#xe94a;" glyph-name="contact-fill" d="M806.223 766.708h-556.722c-40.117 0-57.617-29.678-57.617-57.617v-111.037h-30.497c-15.146 0-27.324-12.281-27.324-27.324 0-15.146 12.281-27.324 27.324-27.324h30.497v-112.368h-27.836c-15.146 0-27.324-12.281-27.324-27.324 0-15.146 12.281-27.324 27.324-27.324h27.836v-112.982h-28.45c-15.146 0-27.324-12.281-27.324-27.324 0-15.146 12.281-27.324 27.324-27.324h28.45v-112.061h-28.45c-15.146 0-27.324-12.281-27.324-27.324 0-15.146 12.281-27.324 27.324-27.324h28.45v-112.777c0-46.257 36.228-55.877 56.286-55.877h557.95c46.257 0 83.713 37.456 83.713 83.713v725.888c0.102 46.257-37.354 83.713-83.611 83.713zM834.162-42.995c0-15.453-12.485-27.938-27.938-27.938h-55.877v781.867h55.877c15.453 0 27.938-12.485 27.938-27.938v-725.99z" />
<glyph unicode="&#xe94b;" glyph-name="dog" d="M391.24 404.225c-23.538 0-42.675-19.444-42.675-43.392s19.137-43.392 42.675-43.392c23.538 0 42.675 19.444 42.675 43.392s-19.137 43.392-42.675 43.392zM641.663 404.225c-23.538 0-42.675-19.444-42.675-43.392s19.137-43.392 42.675-43.392c23.538 0 42.675 19.444 42.675 43.392s-19.137 43.392-42.675 43.392zM512.307 231.477c-29.576 0-59.561-8.289-59.561-26.915 0-32.646 32.748-60.584 59.561-60.584s59.561 27.938 59.561 60.584c0 18.626-29.883 26.915-59.561 26.915zM958.913 397.163c-86.169 271.811-326.358 285.525-373.843 285.525-6.652 0-12.69-0.102-16.784-0.409-39.4 6.14-76.959 6.038-108.581 0.205-7.573 0.102-13.816 0.205-20.57 0.205-47.485 0-288.697-13.816-373.741-285.422 4.605-13.713 29.781-73.888 122.295-82.076l10.234-0.921-2.149-10.029c-6.754-31.725-10.132-56.491-10.132-73.479 0-163.742 136.008-278.054 330.861-278.054 194.75 0 330.861 114.312 330.861 278.054 0 17.398-3.48 42.368-10.336 74.195l-2.047 9.722 9.825 1.228c90.57 11.462 112.061 74.298 114.108 81.257zM199.97 346.403l-5.526 0.307c-3.582 0.205-87.295 5.015-86.374 55.161 13.509 74.093 130.072 223.098 272.63 238.961l21.9 2.456-13.816-17.193c-1.023-1.228-99.268-124.239-185.949-274.881l-2.865-4.81zM516.503-7.893c-145.525 0-292.381 73.786-292.381 238.654 0 21.593 7.573 63.143 20.877 113.903l1.433 3.070c19.444 26.608 43.801 67.339 67.441 106.637 33.055 55.161 70.614 117.792 104.897 160.569l1.535 1.944 2.251 0.921c27.734 10.746 57.105 15.965 89.853 15.965 32.032 0 60.891-4.708 88.216-14.43l2.456-0.921 1.637-1.944c34.386-42.573 72.149-105.511 105.409-161.081 30.599-50.965 58.947-98.245 80.131-123.113l1.944-3.684c10.848-43.699 16.784-78.391 16.784-97.836-0.102-164.867-146.958-238.654-292.484-238.654zM834.776 346.71l-5.526-0.307-2.763 4.81c-86.681 150.642-185.028 273.653-185.949 274.881l-13.816 17.193 21.9-2.456c142.455-15.862 259.019-164.765 272.425-237.426 1.023-51.579-82.69-56.491-86.271-56.696z" />
<glyph unicode="&#xe94c;" glyph-name="dog-fill" d="M391.138 404.532c-23.538 0-42.675-19.444-42.675-43.392s19.137-43.392 42.675-43.392 42.675 19.444 42.675 43.392c-0.102 23.845-19.24 43.392-42.675 43.392zM641.561 404.532c-23.538 0-42.675-19.444-42.675-43.392s19.137-43.392 42.675-43.392c23.538 0 42.675 19.444 42.675 43.392-0.102 23.845-19.24 43.392-42.675 43.392zM512.205 231.784c-29.576 0-59.561-8.289-59.561-26.915 0-32.646 32.748-60.584 59.561-60.584s59.561 27.938 59.561 60.584c-0.102 18.523-29.985 26.915-59.561 26.915zM958.81 397.368c-86.169 271.811-326.358 285.525-373.843 285.525-6.652 0-12.69-0.102-16.784-0.409-39.4 6.14-76.959 6.038-108.581 0.205-7.573 0.102-13.816 0.205-20.57 0.205-47.485 0-288.697-13.816-373.741-285.422 4.605-13.713 29.781-73.888 122.295-82.076l10.234-0.921-2.149-10.029c-6.754-31.725-10.132-56.491-10.132-73.479 0-163.742 136.008-278.054 330.861-278.054 194.75 0 330.758 114.312 330.758 278.054 0 17.398-3.48 42.368-10.336 74.195l-2.047 9.722 9.825 1.228c90.57 11.564 112.061 74.298 114.21 81.257zM516.298-7.688c-145.525 0-292.381 73.786-292.381 238.654 0 21.593 7.573 63.143 20.877 113.903l1.433 3.070c19.444 26.608 43.801 67.339 67.441 106.637 33.055 55.161 70.614 117.792 104.897 160.569l1.535 1.944 2.251 0.921c27.734 10.746 57.105 15.965 89.853 15.965 32.032 0 60.891-4.708 88.216-14.43l2.456-0.921 1.637-1.944c34.386-42.573 72.149-105.511 105.409-161.081 30.599-50.965 58.947-98.245 80.131-123.113l1.944-3.684c10.848-43.699 16.784-78.391 16.784-97.836-0.102-164.867-146.958-238.654-292.484-238.654z" />
<glyph unicode="&#xe94d;" glyph-name="download" d="M868.65 615.349h-242.133c-12.69 0-22.924-10.336-22.924-22.924 0-12.69 10.336-22.924 22.924-22.924h242.133c7.061 0 7.266-5.219 7.266-5.833l0.307-640.333c-0.716-1.023-5.015-4.094-12.281-4.094h-704.090c-6.345 0-10.029 5.629-10.029 7.368l-1.842 637.058c0 1.228 2.456 5.833 9.21 5.833h242.133c12.69 0 22.924 10.336 22.924 22.924 0 12.69-10.336 22.924-22.924 22.924h-242.031c-34.079 0-55.058-26.915-55.058-51.783l1.842-637.058c0-25.175 23.026-53.216 55.979-53.216h704.090c32.441 0 57.821 21.286 57.821 48.406v641.97c-0.102 25.38-20.058 51.681-53.318 51.681zM368.010 443.932c-8.903-9.006-8.903-23.538 0-32.441l144.093-144.093c4.298-4.298 10.132-6.754 16.272-6.754h4.094c6.14 0 11.871 2.354 16.272 6.754l144.195 144.093c8.903 9.006 8.903 23.538 0 32.544-8.699 8.699-23.845 8.596-32.441 0l-116.973-117.075v416.825c0 12.69-10.336 22.924-22.924 22.924-12.69 0-22.924-10.336-22.924-22.924v-396.869l-97.017 97.017c-8.801 8.699-23.845 8.699-32.646 0z" />
<glyph unicode="&#xe94e;" glyph-name="download2" d="M639.105 162.194l-97.324-117.996v424.705c0 16.477-13.304 29.883-29.781 29.883s-29.781-13.406-29.781-29.883v-425.729l-98.245 119.122c-11.667 11.769-30.599 11.769-42.266 0s-11.667-30.804 0-42.471l147.163-178.376c6.243-6.243 14.532-8.903 22.617-8.494 8.187-0.409 16.374 2.251 22.617 8.494l147.265 178.274c11.667 11.769 11.667 30.702 0 42.471s-30.599 11.769-42.266 0zM928.927 707.249h-833.855c-16.477 0-29.781-13.304-29.781-29.781v-238.244c0-16.477 13.304-29.781 29.781-29.781s29.781 13.304 29.781 29.781v208.464h774.396v-208.464c0-16.477 13.304-29.781 29.781-29.781s29.781 13.304 29.781 29.781v238.244c0 16.374-13.406 29.781-29.883 29.781z" />
<glyph unicode="&#xe94f;" glyph-name="download2-fill" d="M631.122 171.302h-59.561v268.025c0 32.851-26.71 59.561-59.561 59.561s-59.561-26.71-59.561-59.561v-268.025h-59.561c-11.667 0-38.582 2.763-50.248-8.903-11.667-11.769-11.667-30.702 0-42.471l147.163-178.479c6.243-6.243 14.532-8.903 22.617-8.494 8.187-0.409 16.374 2.251 22.617 8.494l147.163 178.479c11.667 11.769 11.667 30.702 0 42.471-11.564 11.667-30.088 8.903-51.067 8.903zM929.030 707.352h-833.957c-14.327 0-29.781-15.453-29.781-29.781v-208.464c0-32.851 26.71-59.561 59.561-59.561s59.561 26.71 59.561 59.561v119.122h655.274v-119.122c0-32.851 26.71-59.561 59.561-59.561s59.561 26.71 59.561 59.561v208.464c0 16.169-11.871 29.781-29.781 29.781z" />
<glyph unicode="&#xe950;" glyph-name="download-fill" d="M852.481 581.373h-308.756v-246.329l91.286 91.286c11.974 11.974 31.418 11.974 43.392 0s11.974-31.418 0-43.392l-142.046-142.148c-6.345-6.345-14.839-9.108-23.231-8.699-8.392-0.409-16.886 2.251-23.231 8.699l-142.046 142.046c-11.974 11.974-11.974 31.418 0 43.392s31.418 11.974 43.392 0l91.286-91.286v246.431h-310.291c-33.874 0-61.301-27.427-61.301-61.301v-585.274c0-33.874 27.427-61.301 61.301-61.301h680.245c33.874 0 61.301 27.427 61.301 61.301v585.172c0 33.874-27.427 61.403-61.301 61.403zM543.725 736.109c0 16.988-13.713 30.702-30.702 30.702-16.886 0-30.702-13.713-30.702-30.702v-154.838h61.301v154.838z" />
<glyph unicode="&#xe951;" glyph-name="earth" d="M512 766.708c-246.329 0-446.708-200.379-446.708-446.708s200.379-446.708 446.708-446.708 446.708 200.379 446.708 446.708-200.379 446.708-446.708 446.708zM838.665 548.829l5.117 1.74 3.070-4.401c39.707-58.435 63.348-126.695 68.362-197.206l0.512-7.573h-241.621l-0.205 6.857c-1.433 54.751-6.243 106.023-14.123 152.382l-1.228 7.164 7.266 1.023c60.789 8.596 119.020 22.105 172.85 40.014zM611.166 711.445c74.912-18.933 142.66-58.845 195.876-115.643l7.675-8.187-10.746-3.377c-46.666-14.737-96.301-26.096-147.265-33.567l-6.447-0.921-1.433 6.447c-11.871 51.886-27.324 100.906-45.848 145.73l-5.424 12.997 13.611-3.48zM392.571 341.286l0.205 7.266c1.637 52.807 6.55 102.339 14.737 147.265l1.126 6.345 6.447-0.614c67.85-5.936 125.979-5.936 193.829 0l6.447 0.614 1.126-6.345c8.187-45.029 13.099-94.561 14.737-147.368l0.205-7.266h-238.858zM631.429 298.714l-0.205-7.266c-1.637-52.704-6.55-102.339-14.737-147.368l-1.126-6.345-6.447 0.614c-67.441 5.936-126.388 5.936-193.829 0l-6.447-0.614-1.126 6.345c-8.187 44.927-13.099 94.561-14.737 147.265l-0.205 7.266h238.858zM479.866 722.498l8.289 0.614c15.862 1.126 31.93 1.126 47.69 0l8.289-0.614 1.74-3.684c24.152-50.351 43.903-106.432 58.64-166.914l1.944-7.982-8.187-0.716c-30.599-2.661-58.845-3.991-86.374-3.991s-55.775 1.33-86.374 3.991l-8.187 0.716 1.944 7.982c14.839 60.584 34.488 116.666 58.64 166.914l1.944 3.684zM216.958 595.803c53.216 56.696 120.964 96.71 195.876 115.643l13.713 3.48-5.424-12.997c-18.523-44.824-33.976-93.844-45.848-145.73l-1.433-6.447-6.447 0.921c-51.067 7.573-100.599 18.83-147.265 33.567l-10.746 3.377 7.573 8.187zM108.888 348.859c5.015 70.511 28.655 138.771 68.362 197.206l3.070 4.401 5.117-1.74c53.83-17.909 112.061-31.418 172.952-40.014l7.266-1.023-1.228-7.164c-7.88-46.359-12.69-97.631-14.123-152.382l-0.205-6.857h-241.724l0.512 7.573zM185.335 91.171l-5.117-1.74-3.070 4.401c-39.707 58.435-63.348 126.695-68.362 197.206l-0.512 7.573h241.621l0.205-6.857c1.433-54.751 6.243-106.023 14.123-152.382l1.228-7.164-7.266-1.023c-60.789-8.596-119.020-22.105-172.85-40.014zM412.834-71.445c-75.014 18.933-142.66 58.947-195.876 115.643l-7.675 8.187 10.746 3.377c46.666 14.737 96.301 25.994 147.265 33.567l6.447 0.921 1.433-6.447c11.871-51.886 27.324-101.008 45.848-145.73l5.424-12.997-13.611 3.48zM544.134-82.498l-7.88-0.512c-7.982-0.614-16.067-1.126-24.254-1.126s-16.169 0.614-24.152 1.126l-7.982 0.512-1.74 3.684c-24.152 50.248-43.903 106.432-58.64 166.914l-1.944 7.982 8.289 0.716c61.301 5.322 111.344 5.322 172.645 0l8.289-0.716-1.944-7.982c-14.737-60.482-34.488-116.666-58.64-166.914l-2.047-3.684zM807.042 44.197c-53.216-56.696-120.862-96.71-195.876-115.643l-13.713-3.48 5.424 12.997c18.523 44.824 33.976 93.844 45.848 145.73l1.433 6.447 6.447-0.921c50.965-7.573 100.599-18.83 147.265-33.567l10.746-3.377-7.573-8.187zM915.112 291.141c-5.015-70.511-28.655-138.771-68.362-197.206l-3.070-4.401-5.117 1.74c-53.83 17.909-112.061 31.418-172.952 40.014l-7.266 1.023 1.228 7.164c7.88 46.359 12.69 97.631 14.123 152.382l0.205 6.857h241.621l-0.409-7.573z" />
<glyph unicode="&#xe952;" glyph-name="earth-fill" d="M511.795 543.405c24.254 0 51.886 1.944 81.155 5.219-18.626 80.745-43.494 159.648-68.26 218.186-4.298 0.102-8.494 0.614-12.792 0.614s-8.494-0.512-12.792-0.614c-24.766-58.333-49.532-136.929-68.158-217.572 28.143-3.48 55.775-5.833 80.847-5.833zM418.77 149.197c30.395 2.558 61.403 3.991 93.026 3.991 31.52 0 62.529-1.433 93.026-3.991 9.62 50.351 15.965 99.575 18.012 143.581h-222.075c2.047-44.006 8.392-93.23 18.012-143.581zM431.664 759.954c-103.771-18.83-195.057-73.172-260.759-150.028 60.073-19.956 133.347-39.605 204.882-52.397 16.067 72.865 36.023 144.809 55.877 202.426zM659.572 498.99c9.927-53.728 16.886-105.409 19.035-150.438h279.794c-4.81 76.549-29.064 147.777-67.646 209.078l-38.786-13.611c-59.254-20.775-124.239-35.614-192.397-45.029zM604.719 492.236c-30.395-2.558-61.403-3.991-93.026-3.991-31.52 0-62.529 1.433-93.026 3.991-9.62-50.351-15.965-99.575-18.012-143.581h221.972c-1.944 44.006-8.289 93.128-17.909 143.581zM857.802 603.478c-66.008 80.233-159.341 137.134-265.978 156.476 19.956-57.924 40.117-130.482 56.184-203.756 71.535 11.36 147.47 28.962 209.794 47.28zM363.916 142.34c-10.029 53.728-16.886 105.409-19.035 150.438h-279.691c4.81-76.549 29.064-147.777 67.646-209.078l38.786 13.611c59.152 20.877 124.137 35.716 192.294 45.029zM363.916 498.99c-68.158 9.313-133.143 24.152-192.397 45.029l-38.684 13.713c-38.684-61.301-62.836-132.528-67.646-209.078h279.691c2.251 44.927 9.108 96.71 19.035 150.335zM591.824-118.521c103.771 18.728 195.057 73.172 260.759 150.028-60.073 19.956-133.45 39.605-204.882 52.397-15.965-72.865-36.023-144.911-55.877-202.426zM659.572 142.34c68.158-9.313 133.143-24.152 192.397-45.029l38.786-13.611c38.684 61.301 62.836 132.528 67.646 209.078h-279.794c-2.149-44.927-9.006-96.71-19.035-150.438zM170.905 31.507c65.701-76.856 156.987-131.198 260.759-150.028-19.854 57.514-39.81 129.561-55.877 202.323-71.432-12.69-144.707-32.339-204.882-52.295zM511.795 98.028c-25.073 0-52.602-2.354-80.95-5.936 18.626-80.54 43.392-159.137 68.158-217.572 4.298-0.102 8.494-0.614 12.792-0.614s8.494 0.512 12.792 0.614c24.766 58.333 49.532 136.929 68.158 217.572-28.348 3.582-55.877 5.936-80.95 5.936z" />
<glyph unicode="&#xe953;" glyph-name="eye" d="M934.761 379.049c-66.929 66.725-210.818 178.581-422.454 178.581s-355.422-111.958-422.454-178.581c-15.658-15.658-24.357-36.433-24.357-58.435s8.596-42.778 24.357-58.435c66.929-66.725 210.818-178.581 422.454-178.581 211.534 0 355.422 111.958 422.454 178.581 15.658 15.658 24.357 36.433 24.357 58.435-0.102 22.003-8.699 42.778-24.357 58.435zM904.878 291.959c-62.324-62.12-196.285-166.3-392.571-166.3-196.388 0-330.247 104.181-392.571 166.3-7.675 7.675-11.974 17.807-11.974 28.552s4.196 20.877 11.871 28.552c62.324 62.12 196.183 166.3 392.571 166.3s330.247-104.181 392.571-166.3c7.675-7.675 11.974-17.807 11.974-28.552 0.102-10.746-4.196-20.877-11.871-28.552zM512.307 442.499c-67.236 0-121.885-54.649-121.885-121.885s54.649-121.885 121.885-121.885 121.885 54.649 121.885 121.885-54.649 121.885-121.885 121.885zM512.307 240.892c-43.903 0-79.619 35.716-79.619 79.722 0 43.903 35.716 79.619 79.619 79.619s79.619-35.716 79.619-79.619c0-44.006-35.716-79.722-79.619-79.722z" />
<glyph unicode="&#xe954;" glyph-name="eye-fill" d="M512 392.967c-40.219 0-72.967-32.748-72.967-72.967s32.748-72.967 72.967-72.967c40.219 0 72.967 32.748 72.967 72.967s-32.748 72.967-72.967 72.967zM934.454 378.435c-66.929 66.725-210.818 178.581-422.454 178.581s-355.422-111.856-422.454-178.581c-15.658-15.658-24.357-36.433-24.357-58.435s8.596-42.778 24.357-58.435c67.032-66.725 210.92-178.683 422.454-178.683s355.422 111.958 422.454 178.581c15.658 15.658 24.357 36.433 24.357 58.435 0 22.105-8.699 42.88-24.357 58.538zM512 191.36c-70.921 0-128.64 57.719-128.64 128.64s57.719 128.64 128.64 128.64c70.921 0 128.64-57.719 128.64-128.64s-57.719-128.64-128.64-128.64z" />
<glyph unicode="&#xe955;" glyph-name="face" d="M370.159 353.976c28.041 0 50.76 22.822 50.76 50.76s-22.822 50.76-50.76 50.76c-28.041 0-50.76-22.719-50.76-50.76 0-27.938 22.822-50.76 50.76-50.76zM652.92 353.976c28.041 0 50.76 22.822 50.76 50.76s-22.822 50.76-50.76 50.76c-28.041 0-50.76-22.719-50.76-50.76 0-27.938 22.719-50.76 50.76-50.76zM512 766.606c-246.329 0-446.708-200.379-446.708-446.606s200.379-446.606 446.708-446.606 446.708 200.379 446.708 446.606-200.379 446.606-446.708 446.606zM512-81.372c-221.358 0-401.474 180.116-401.474 401.372s180.116 401.372 401.474 401.372 401.474-180.014 401.474-401.372-180.116-401.372-401.474-401.372zM515.48 37.75c135.394 0 246.124 83.611 249.911 187.587h-499.822c3.787-103.976 114.415-187.587 249.911-187.587z" />
<glyph unicode="&#xe956;" glyph-name="face-fill" d="M511.898 767.322c-246.738 0-446.708-199.97-446.708-446.606s199.97-446.606 446.708-446.606c246.738 0 446.708 199.97 446.708 446.606s-199.97 446.606-446.708 446.606zM651.078 460.102c30.804 0 55.672-24.971 55.672-55.672s-24.971-55.672-55.672-55.672c-30.804 0-55.672 24.971-55.672 55.672s24.868 55.672 55.672 55.672zM371.898 460.102c30.804 0 55.672-24.971 55.672-55.672s-24.971-55.672-55.672-55.672c-30.804 0-55.672 24.971-55.672 55.672-0.102 30.702 24.868 55.672 55.672 55.672zM515.275 36.42c-139.385 0-252.469 87.909-252.469 196.285h504.939c0.102-108.479-112.982-196.285-252.469-196.285z" />
<glyph unicode="&#xe957;" glyph-name="fav" d="M958.81 424.999l-308.449 47.076-138.362 294.428-138.362-294.428-308.449-47.076 223.098-228.42-0.512-2.865-52.295-320.32 276.417 152.587 276.417-152.587-52.807 323.185 223.303 228.42zM512 79.402l-220.54-123.625 42.164 249.809-189.326 193.318 256.256 33.362 111.549 237.733 110.526-237.733 255.335-36.228-187.587-191.373 39.4-249.809-217.777 124.546z" />
<glyph unicode="&#xe958;" glyph-name="fav-fill" d="M959.117 424.999l-308.142 47.076-138.566 294.837-138.566-294.837-308.244-47.076 222.996-228.317-52.807-323.288 276.621 152.689 276.519-152.689-52.704 323.288z" />
<glyph unicode="&#xe959;" glyph-name="femalesign" d="M611.064 766.708c-191.578 0-347.337-155.862-347.337-347.337 0-81.973 29.269-161.593 82.383-224.224l4.298-5.015-122.806-123.523-125.058 126.183c-7.982 7.982-21.9 7.982-29.883 0-8.289-8.289-8.289-21.696 0-29.985l125.058-126.183-125.876-126.695c-3.991-3.991-6.243-9.313-6.243-14.941s2.251-10.95 6.243-14.941c7.982-7.982 21.9-7.982 29.883 0l125.774 126.491 126.081-127.309c7.88-7.88 21.9-7.982 29.883 0 3.991 3.991 6.243 9.313 6.243 14.941s-2.251 10.95-6.243 14.941l-126.081 127.412 122.806 123.523 5.117-4.401c62.938-54.035 143.172-83.713 225.759-83.713 191.578 0 347.337 155.862 347.337 347.337 0 191.68-155.862 347.44-347.337 347.44zM611.064 113.89c-168.449 0-305.481 137.031-305.481 305.481s137.031 305.481 305.481 305.481 305.481-137.031 305.481-305.481c0-168.449-137.031-305.481-305.481-305.481z" />
<glyph unicode="&#xe95a;" glyph-name="femalesign-fill" d="M611.064 766.708c-191.578 0-347.337-155.862-347.337-347.337 0-81.973 29.269-161.593 82.383-224.224l4.298-5.015-122.806-123.523-125.058 126.183c-7.982 7.982-21.9 7.982-29.883 0-8.289-8.289-8.289-21.696 0-29.985l125.058-126.183-125.876-126.695c-3.991-3.991-6.243-9.313-6.243-14.941s2.251-10.95 6.243-14.941c7.982-7.982 21.9-7.982 29.883 0l125.774 126.491 126.081-127.309c7.88-7.88 21.9-7.982 29.883 0 3.991 3.991 6.243 9.313 6.243 14.941s-2.251 10.95-6.243 14.941l-126.081 127.412 122.806 123.523 5.117-4.401c62.938-54.035 143.172-83.713 225.759-83.713 191.578 0 347.337 155.862 347.337 347.337 0 191.68-155.862 347.44-347.337 347.44z" />
<glyph unicode="&#xe95b;" glyph-name="file" d="M814.308 766.708h-613.111c-29.883 0-49.225-23.64-49.225-60.175v-773.066c0-36.535 19.342-60.175 49.225-60.175h613.111c31.93 0 57.821 27.017 57.821 60.175v773.066c0 33.158-25.994 60.175-57.821 60.175zM831.706-66.533c0-10.541-8.085-19.751-17.398-19.751h-613.111c-2.149 0-8.801 0-8.801 19.751v773.066c0 19.751 6.652 19.751 8.801 19.751h613.111c9.313 0 17.398-9.21 17.398-19.751v-773.066zM720.975 433.494h-426.547c-11.155 0-20.263-9.108-20.263-20.263s9.108-20.263 20.263-20.263h426.547c11.155 0 20.263 9.108 20.263 20.263s-9.108 20.263-20.263 20.263zM720.975 260.234h-426.547c-11.155 0-20.263-9.108-20.263-20.263s9.108-20.263 20.263-20.263h426.547c11.155 0 20.263 9.108 20.263 20.263s-9.108 20.263-20.263 20.263zM720.975 86.975h-426.547c-11.155 0-20.263-9.108-20.263-20.263s9.108-20.263 20.263-20.263h426.547c11.155 0 20.263 9.108 20.263 20.263s-9.108 20.263-20.263 20.263zM720.975 593.449h-426.547c-11.155 0-20.263-9.108-20.263-20.263s9.108-20.263 20.263-20.263h426.547c11.155 0 20.263 9.108 20.263 20.263s-9.108 20.263-20.263 20.263z" />
<glyph unicode="&#xe95c;" glyph-name="fileadd" d="M597.76-86.284h-399.837c-8.699 0-19.751 11.053-19.751 19.751v773.066c0 8.699 11.053 19.751 19.751 19.751h613.111c6.345 0 19.751-13.918 19.751-24.868v-526.43c0-11.155 9.108-20.263 20.263-20.263s20.263 9.108 20.263 20.263v526.43c0 29.371-27.836 65.292-60.175 65.292h-613.213c-30.906 0-60.175-29.269-60.175-60.175v-773.066c0-30.906 29.269-60.175 60.175-60.175h399.837c11.155 0 20.263 9.108 20.263 20.263 0 11.053-9.108 20.161-20.263 20.161zM717.803 420.189h-426.547c-11.155 0-20.263-9.108-20.263-20.263s9.108-20.263 20.263-20.263h426.547c11.155 0 20.263 9.108 20.263 20.263-0.102 11.155-9.108 20.263-20.263 20.263zM737.964 226.667c0 11.155-9.108 20.263-20.263 20.263h-426.445c-11.155 0-20.263-9.108-20.263-20.263s9.108-20.263 20.263-20.263h426.547c11.155 0 20.161 9.108 20.161 20.263zM291.256 86.975c-11.155 0-20.263-9.108-20.263-20.263s9.108-20.263 20.263-20.263h226.578c11.155 0 20.263 9.108 20.263 20.263s-9.108 20.263-20.263 20.263h-226.578zM717.803 580.145h-426.547c-11.155 0-20.263-9.108-20.263-20.263s9.108-20.263 20.263-20.263h426.547c11.155 0 20.263 9.108 20.263 20.263-0.102 11.155-9.108 20.263-20.263 20.263zM866.092 20.353h-74.81v74.4c0 11.155-9.108 20.263-20.263 20.263s-20.263-9.108-20.263-20.263v-74.4h-72.149c-11.155 0-20.263-9.108-20.263-20.263s9.108-20.263 20.263-20.263h72.149v-72.558c0-11.155 9.108-20.263 20.263-20.263s20.263 9.108 20.263 20.263v72.558h74.81c11.155 0 20.263 9.108 20.263 20.263s-9.108 20.263-20.263 20.263z" />
<glyph unicode="&#xe95d;" glyph-name="fileadd-fill" d="M761.297 164.65c36.228 0 69.693-11.36 97.324-30.702v573.403c0 33.158-25.994 60.175-57.821 60.175h-613.213c-29.883 0-49.225-23.64-49.225-60.175v-773.066c0-36.535 19.342-60.175 49.225-60.175h453.258c-30.804 30.804-49.839 73.377-49.839 120.35 0 93.947 76.242 170.189 170.291 170.189zM304.355 604.604h379.676c16.886 0 30.599-13.713 30.599-30.599s-13.713-30.599-30.599-30.599h-379.676c-16.886 0-30.599 13.713-30.599 30.599s13.713 30.599 30.599 30.599zM304.355 444.648h379.676c16.886 0 30.599-13.713 30.599-30.599s-13.713-30.599-30.599-30.599h-379.676c-16.886 0-30.599 13.713-30.599 30.599s13.713 30.599 30.599 30.599zM512 37.034h-207.645c-16.886 0-30.599 13.713-30.599 30.599s13.713 30.599 30.599 30.599h207.645c16.886 0 30.599-13.713 30.599-30.599s-13.713-30.599-30.599-30.599zM304.355 210.293c-16.886 0-30.599 13.713-30.599 30.599s13.713 30.599 30.599 30.599h379.676c16.886 0 30.599-13.713 30.599-30.599s-13.713-30.599-30.599-30.599h-379.676zM857.495 21.171h-67.85v67.441c0 14.941-12.178 27.12-27.12 27.12s-27.12-12.178-27.12-27.12v-67.441h-65.292c-14.941 0-27.12-12.178-27.12-27.12s12.178-27.12 27.12-27.12h65.292v-65.701c0-14.941 12.178-27.12 27.12-27.12s27.12 12.178 27.12 27.12v65.701h67.85c14.941 0 27.12 12.178 27.12 27.12s-12.178 27.12-27.12 27.12z" />
<glyph unicode="&#xe95e;" glyph-name="filefav" d="M858.314 504.516c-11.462 0-20.775-9.313-20.775-20.775v-548.535c0-6.857-13.509-20.365-20.365-20.365h-617.102c-6.857 0-20.365 13.509-20.365 20.365v754.235c0 6.857 13.509 20.365 20.365 20.365h493.681c11.462 0 20.775 9.313 20.775 20.775s-9.313 20.775-20.775 20.775h-493.681c-30.088 0-61.915-31.827-61.915-61.915v-754.235c0-30.088 31.827-61.915 61.915-61.915h617.102c30.088 0 61.915 31.827 61.915 61.915v548.535c0 11.462-9.313 20.775-20.775 20.775zM721.18 408.523h-425.115c-11.462 0-20.775-9.313-20.775-20.775s9.313-20.775 20.775-20.775h425.115c11.462 0 20.775 9.313 20.775 20.775s-9.313 20.775-20.775 20.775zM721.18 230.249h-425.115c-11.462 0-20.775-9.313-20.775-20.775s9.313-20.775 20.775-20.775h425.115c11.462 0 20.775 9.313 20.775 20.775s-9.313 20.775-20.775 20.775zM721.18 65.689h-425.115c-11.462 0-20.775-9.313-20.775-20.775s9.313-20.775 20.775-20.775h425.115c11.462 0 20.775 9.313 20.775 20.775s-9.313 20.775-20.775 20.775zM716.37 573.083h-420.509c-11.462 0-20.775-9.313-20.775-20.775s9.313-20.775 20.775-20.775h420.509c11.462 0 20.775 9.313 20.775 20.775s-9.313 20.775-20.775 20.775zM983.986 717.995c-4.401 10.541-11.155 19.956-20.263 27.938-7.982 6.959-16.886 12.281-26.506 15.658-18.728 6.754-40.628 6.754-59.254 0-9.62-3.377-18.626-8.801-27.017-16.067l-1.74-1.637-1.74 1.535c-7.675 7.164-16.784 12.588-26.813 16.169-19.035 6.754-40.219 6.652-58.845 0-9.722-3.48-18.626-8.801-26.608-15.76-9.108-8.085-15.862-17.5-20.161-27.938-4.196-10.132-6.243-20.57-6.243-31.111s2.149-20.979 6.345-31.111c4.401-10.439 11.053-19.854 19.956-27.734l114.517-104.897 114.21 104.692c9.006 7.982 15.862 17.398 20.161 27.938 4.196 10.132 6.345 20.672 6.345 31.111 0 10.541-2.149 21.082-6.345 31.213zM945.506 671.738c-2.047-4.81-5.015-8.903-9.62-12.997l-86.374-79.21-86.578 79.415c-4.298 3.889-7.471 8.187-9.415 12.792-2.149 5.117-3.172 10.132-3.172 15.146 0 5.117 1.023 10.234 3.172 15.248 1.944 4.605 5.015 8.801 9.313 12.69 3.991 3.48 8.392 6.14 13.099 7.778 4.912 1.842 9.927 2.661 15.248 2.661s10.643-0.921 15.76-2.763c4.605-1.637 8.699-4.094 12.485-7.573l30.292-27.12 29.064 26.915c3.991 3.582 8.494 6.14 13.202 7.88 9.825 3.582 21.184 3.582 31.213 0 4.708-1.637 8.903-4.196 12.997-7.778 4.298-3.787 7.368-7.982 9.313-12.69 2.149-5.117 3.172-10.234 3.172-15.248 0-5.117-1.023-10.029-3.172-15.146z" />
<glyph unicode="&#xe95f;" glyph-name="filefav-fill" d="M984.293 717.688c-4.401 10.643-11.257 20.161-20.365 28.245-8.085 7.061-16.988 12.383-26.71 15.76-9.21 3.377-19.547 5.117-29.781 5.117v0c-10.234 0-20.468-1.74-29.678-5.015-9.415-3.377-18.319-8.596-26.506-15.658-7.573 6.959-16.477 12.178-26.403 15.658-4.708 1.637-9.62 2.968-14.532 3.787-1.637 0.307-3.275 0.205-4.912 0.409-3.377 0.409-6.652 0.819-10.029 0.819v0c-3.377 0-6.754-0.512-10.132-0.819-1.637-0.205-3.275-0.102-4.912-0.409-4.912-0.819-9.825-2.047-14.43-3.787-9.722-3.48-18.728-8.801-26.813-15.862-9.108-8.085-15.965-17.602-20.365-28.143-4.196-10.132-6.345-20.672-6.345-31.316s2.149-21.184 6.345-31.316c4.401-10.541 11.155-19.956 20.058-27.938l112.675-103.362 112.47 103.055c9.108 8.085 15.965 17.602 20.365 28.245 4.298 10.234 6.345 20.775 6.345 31.316 0.102 10.439-2.149 20.979-6.345 31.213zM940.901 672.966c-1.74-4.196-4.401-7.675-8.494-11.36l-80.95-74.195-81.257 74.502c-3.787 3.377-6.447 7.061-8.187 11.053-1.842 4.503-2.763 8.903-2.763 13.304 0 4.503 0.921 9.006 2.763 13.406 1.637 3.991 4.298 7.573 8.085 10.95 3.48 3.070 7.368 5.424 11.564 6.857 4.401 1.535 8.801 2.354 13.509 2.354s9.517-0.819 14.123-2.456c4.094-1.433 7.573-3.48 10.848-6.652l31.52-28.245 30.292 28.041c3.48 3.070 7.368 5.424 11.564 6.857 0.512 0.205 1.023 0.102 1.535 0.307 3.889 1.228 7.982 2.047 12.281 2.047s8.392-0.819 12.383-2.149c0.512-0.205 1.023-0.102 1.535-0.307 4.094-1.433 7.88-3.684 11.36-6.754 3.787-3.377 6.447-6.959 8.085-10.95 1.842-4.503 2.763-9.006 2.763-13.406 0.307-4.298-0.614-8.596-2.558-13.202zM814.513 483.332l-112.163 102.85c-15.044 13.509-26.608 29.474-34.181 47.792-6.959 16.784-10.439 34.386-10.439 52.193s3.48 35.409 10.541 52.295c3.172 7.573 7.368 14.532 11.871 21.286h-493.579c-29.678 0-48.918-23.436-48.918-59.766v-767.13c0-36.33 19.137-59.766 48.918-59.766h608.403c31.623 0 57.412 26.813 57.412 59.766v517.424l-0.921-0.819-36.944 33.874zM302.411 598.156h322.469c16.681 0 30.292-13.611 30.292-30.292s-13.611-30.292-30.292-30.292h-322.469c-16.681 0-30.292 13.611-30.292 30.292s13.611 30.292 30.292 30.292zM679.119 34.885h-376.708c-16.681 0-30.292 13.611-30.292 30.292s13.611 30.292 30.292 30.292h376.708c16.681 0 30.292-13.611 30.292-30.292s-13.509-30.292-30.292-30.292zM679.119 206.916h-376.708c-16.681 0-30.292 13.611-30.292 30.292s13.611 30.292 30.292 30.292h376.708c16.681 0 30.292-13.611 30.292-30.292s-13.509-30.292-30.292-30.292zM679.119 378.845h-376.708c-16.681 0-30.292 13.611-30.292 30.292s13.611 30.292 30.292 30.292h376.708c16.681 0 30.292-13.611 30.292-30.292s-13.509-30.292-30.292-30.292z" />
<glyph unicode="&#xe960;" glyph-name="file-fill" d="M814.104 766.606h-613.111c-29.883 0-49.225-23.64-49.225-60.175v-773.066c0-36.535 19.342-60.175 49.225-60.175h613.111c31.93 0 57.821 27.017 57.821 60.175v773.066c0 33.26-25.994 60.175-57.821 60.175zM697.335 36.113h-379.676c-16.886 0-30.599 13.713-30.599 30.599s13.816 30.497 30.702 30.497h379.676c16.886 0 30.599-13.713 30.599-30.599s-13.816-30.497-30.702-30.497zM697.335 209.372h-379.676c-16.886 0-30.599 13.713-30.599 30.599s13.713 30.599 30.599 30.599h379.676c16.886 0 30.599-13.713 30.599-30.599s-13.713-30.599-30.599-30.599zM697.335 382.631h-379.676c-16.886 0-30.599 13.713-30.599 30.599s13.713 30.599 30.599 30.599h379.676c16.886 0 30.599-13.713 30.599-30.599s-13.713-30.599-30.599-30.599zM697.335 542.586h-379.676c-16.886 0-30.599 13.713-30.599 30.599s13.713 30.599 30.599 30.599h379.676c16.886 0 30.599-13.713 30.599-30.599s-13.713-30.599-30.599-30.599z" />
<glyph unicode="&#xe961;" glyph-name="fileperson" d="M394.413 88.101c102.134 0 185.131 101.213 185.131 225.554s-83.099 225.554-185.131 225.554c-50.351 0-97.426-24.050-132.426-67.748-33.976-42.368-52.704-98.45-52.704-157.806 0-124.341 82.997-225.554 185.131-225.554zM394.413 498.274c79.415 0 143.99-82.792 143.99-184.619 0-101.725-64.576-184.619-143.99-184.619s-143.99 82.792-143.99 184.619c0 101.827 64.576 184.619 143.99 184.619zM538.403 129.139c-11.36 0-20.57-9.21-20.57-20.468 0-11.36 9.21-20.468 20.57-20.468 79.415 0 143.99-64.371 143.99-143.581 0-11.36-9.21-20.468-20.57-20.468h-534.822c-11.36 0-20.57 9.21-20.57 20.468 0 79.108 64.576 143.581 143.99 143.581 11.36 0 20.57 9.21 20.57 20.468 0 11.36-9.21 20.468-20.57 20.468-102.134 0-185.131-82.792-185.131-184.516 0-33.976 27.734-61.505 61.71-61.505h534.924c34.079 0 61.71 27.631 61.71 61.505 0 101.725-83.099 184.516-185.233 184.516zM789.952 758.009v-0.614c-2.763 0-13.918 1.023-42.164 0.614h-344.267c-46.564 0-84.429-37.558-84.429-84.020v-116.871c13.509 5.936 27.631 10.029 42.164 11.974v104.897c0 23.231 18.933 41.959 42.164 41.959h343.653c-0.409-50.248 0.614-84.020 0.614-84.020 0-46.359 37.763-84.020 84.429-84.020 0 0 35.307 0 84.429 0v-500.845c0-23.231-18.933-41.959-42.164-41.959h-142.967c7.368-13.099 12.997-27.222 16.988-41.959h125.876c46.564 0 84.429 37.558 84.429 84.020v500.845c0 6.55 0 11.155 0 41.959l-168.756 168.040zM832.115 590.072c-23.333 0-42.164 18.83-42.164 41.959 0 0 0 33.976 0 84.020l126.593-125.979h-84.429z" />
<glyph unicode="&#xe962;" glyph-name="fileperson-fill" d="M538.506 128.524l-33.772 2.968 3.582 3.787-0.512 0.205c43.494 41.345 71.842 105.409 71.842 177.66 0 124.341-83.099 225.554-185.131 225.554-50.351 0-97.426-24.050-132.426-67.748-33.976-42.368-52.704-98.45-52.704-157.806 0-75.424 30.702-142.148 77.47-183.084h0.614l0.205-0.102h-0.716c-0.102 0-0.102 0.102-0.205 0.102l-3.172-0.102-33.158-1.33c-102.134 0-185.131-82.792-185.131-184.516 0-33.976 27.734-61.505 61.71-61.505h534.924c34.079 0 61.71 27.631 61.71 61.505 0 101.622-83.099 184.414-185.131 184.414zM789.952 757.395v-0.614c-2.661 0-13.918 1.023-42.164 0.614h-344.267c-46.564 0-84.429-37.558-84.429-84.020v-105.613c23.845 9.62 49.123 14.941 75.321 14.941 126.388 0 229.136-120.964 229.136-269.56 0-52.5-12.895-102.748-36.535-145.73 97.222-20.979 171.519-103.669 179.809-204.677h107.558c46.564 0 84.429 37.558 84.429 84.020v500.743c0 6.55 0 11.155 0 41.959l-168.859 167.938zM830.068 582.294c-26.199 0-47.383 21.082-47.383 47.178 0 0 0 38.172 0 94.254l142.148-141.432h-94.766z" />
<glyph unicode="&#xe963;" glyph-name="filesearch" d="M581.59-38.287h-378.857c-6.447 0-6.55 15.248-6.55 15.351v715.858c0 6.959 5.731 12.485 13.099 12.485h570.538c11.257 0 11.257-3.48 11.257-6.55v-500.64c0-11.36 9.21-20.57 20.57-20.57s20.57 9.21 20.57 20.57v500.64c0 28.962-20.57 47.587-52.295 47.587h-570.64c-29.883 0-54.137-24.050-54.137-53.523v-715.858c0-33.26 19.547-56.491 47.587-56.491h378.857c11.36 0 20.57 9.21 20.57 20.57-0.102 11.36-9.313 20.57-20.57 20.57zM689.864 435.233h-392.469c-11.36 0-20.57-9.21-20.57-20.57s9.21-20.57 20.57-20.57h392.366c11.36 0 20.57 9.21 20.57 20.57s-9.21 20.57-20.468 20.57zM710.332 252.354c0 11.36-9.21 20.57-20.57 20.57h-392.366c-11.36 0-20.57-9.21-20.57-20.57s9.21-20.57 20.57-20.57h392.366c11.36 0.102 20.57 9.313 20.57 20.57zM297.396 124.022c-11.36 0-20.57-9.21-20.57-20.468 0-11.36 9.21-20.57 20.57-20.57h202.937c11.36 0 20.57 9.21 20.57 20.57s-9.21 20.468-20.57 20.468h-202.937zM689.864 584.136h-392.469c-11.36 0-20.57-9.21-20.57-20.57s9.21-20.57 20.57-20.57h392.366c11.36 0 20.57 9.21 20.57 20.57s-9.21 20.57-20.468 20.57zM920.843-111.971l-87.909 88.216c14.839 20.775 22.617 45.131 22.617 70.921 0 32.748-12.792 63.552-35.921 86.681-23.231 23.129-54.137 35.921-86.988 35.921-32.748 0-63.552-12.792-86.578-35.921s-35.614-53.932-35.614-86.681c0-67.543 54.853-122.602 122.295-122.602 25.892 0 50.351 7.778 71.228 22.719l87.807-88.114c3.889-3.889 9.006-6.038 14.532-6.038 5.424 0 10.541 2.149 14.532 5.936 7.982 7.982 7.982 20.979 0 28.962zM790.566-10.554c-15.453-15.453-36.023-23.947-57.924-23.947-44.824 0-81.257 36.637-81.257 81.564 0 21.9 8.392 42.368 23.743 57.719 15.248 15.351 35.716 23.845 57.617 23.845s42.471-8.494 57.924-23.845c15.453-15.453 23.947-35.921 23.947-57.719-0.102-21.696-8.596-42.164-24.050-57.617z" />
</font>
</defs>
</svg>
